<svg xmlns="http://www.w3.org/2000/svg" viewBox="0 0 512 512" fill="currentColor">
  <g transform="translate(52.773 52.773)">
    <path fill-rule="nonzero" d="M202.973241,0 C90.8738026,0 0,90.8738026 0,202.973241 C0,315.071647 90.8738026,405.946482 202.973241,405.946482 C315.072679,405.946482 405.946482,315.071647 405.946482,202.973241 C405.946482,90.8738026 315.072679,0 202.973241,0 Z M209.400727,313.931946 C148.680541,313.931946 99.456888,264.405194 99.456888,203.31153 C99.456888,142.217071 148.680541,92.6911133 209.400727,92.6911133 C270.120913,92.6911133 319.344566,142.217071 319.344566,203.31153 C319.344566,264.405194 270.120913,313.931946 209.400727,313.931946 Z"/>
    <path fill-rule="nonzero" d="M267.150198,372.117608 C174.936176,372.117608 100.181324,296.38875 100.181324,202.973241 C100.181324,109.556698 174.936176,33.8288735 267.150198,33.8288735 C287.766533,33.8288735 307.424917,37.7942264 325.655545,44.716304 C291.333374,16.7946808 247.808754,0 200.362649,0 C89.7050059,0 0,90.8738026 0,202.973241 C0,315.071647 89.7050059,405.946482 200.362649,405.946482 C247.808754,405.946482 291.333374,389.152833 325.655545,361.230178 C307.424917,368.152255 287.766533,372.117608 267.150198,372.117608 Z"/>
  </g>
</svg>
