<?xml version="1.0" encoding="UTF-8"?>
<svg id="_图层_1" data-name="图层 1" xmlns="http://www.w3.org/2000/svg" viewBox="0 0 300 300">
  <defs>
    <style>
      .cls-1 {
        fill: #fff;
      }

      .cls-2 {
        fill: #00dcff;
      }

      .cls-3 {
        fill: #006aff;
      }
    </style>
  </defs>
  <rect class="cls-1" width="300" height="300"/>
  <g>
    <path class="cls-2" d="M131.44,120.14l-38.02,117h81.69l-38.02-117c-.89-2.74-4.77-2.74-5.66,0Z"/>
    <path class="cls-2" d="M75.59,154.25c-.89-2.74-4.77-2.74-5.66,0l-26.93,82.89h23.92l17.8-54.79-9.13-28.1Z"/>
    <path class="cls-3" d="M117.97,97.45c-.89-2.74-4.77-2.74-5.66,0l-45.39,139.69h26.5l34.97-107.62-10.42-32.07Z"/>
    <path class="cls-2" d="M225.17,139.19c-.89-2.74-4.77-2.74-5.66,0l-9.02,27.77,22.8,70.18h23.71l-31.83-97.95Z"/>
    <path class="cls-3" d="M172.06,48.7c-.89-2.74-4.77-2.74-5.66,0l-26.26,80.81,34.97,107.62h58.18l-61.23-188.43Z"/>
  </g>
</svg>