<svg width="512" height="512" viewBox="0 0 512 512" fill="none" xmlns="http://www.w3.org/2000/svg">
<mask id="mask0_4410_575" style="mask-type:luminance" maskUnits="userSpaceOnUse" x="90" y="0" width="335" height="512">
<path d="M424.735 0H90.3672V512H424.735V0Z" fill="white"/>
</mask>
<g mask="url(#mask0_4410_575)">
<path fill-rule="evenodd" clip-rule="evenodd" d="M250.483 0.359584C182.748 7.03227 180.363 107.305 247.672 118.526C250.722 119.034 251.688 119.301 251.758 119.655C251.809 119.91 251.564 124.966 251.214 130.891C250.864 136.816 250.423 148.467 250.234 156.781C250.046 165.095 249.825 171.946 249.743 172.005C249.662 172.064 248.562 172.62 247.299 173.241C244.933 174.404 241.82 176.957 240.569 178.763C239.868 179.776 239.868 179.776 235.559 179.916C228.756 180.139 224.609 181.802 220.844 185.817C219.8 186.93 218.844 187.72 218.717 187.572C218.59 187.425 214.665 181.644 209.993 174.725C205.322 167.805 200.017 160.014 198.206 157.41L194.912 152.676L196.845 150.535C232.887 110.603 182.49 50.4607 139.635 82.2617C96.9782 113.916 135.21 180.314 184.256 159.757C184.458 159.672 188.101 164.228 192.874 170.532C197.421 176.539 203.101 183.945 205.496 186.99C207.891 190.036 210.052 192.832 210.3 193.205C210.807 193.97 210.971 193.859 208.228 194.612C200.621 196.702 193.449 203.015 192.027 208.874C191.841 209.643 191.535 210.276 191.348 210.282C178.493 210.623 168.656 220.169 168.517 232.439C168.47 236.612 168.47 236.612 166.719 237.651C150.787 247.107 129.171 278.828 127.628 295.02C127.4 297.413 127.49 297.335 124.337 297.873C117.223 299.087 113.067 301.656 108.684 307.545C103.135 315.006 102.623 321.419 106.854 330.474C108.288 333.543 108.367 332.999 106.004 336.329C81.0188 371.522 86.2237 412.821 119.838 446.095C141.823 467.857 172.683 481.125 207.282 483.685C220.493 484.662 222.005 485.16 225.408 489.642C247.781 519.104 267.093 519.104 289.466 489.642C292.869 485.16 294.381 484.662 307.592 483.685C359.307 479.858 402.574 451.511 418.793 410.829C429.131 384.898 425.85 360.278 408.863 336.305C406.507 332.979 406.587 333.537 408.019 330.474C412.251 321.419 411.739 315.006 406.19 307.545C401.808 301.656 397.651 299.087 390.537 297.873C387.383 297.335 387.475 297.413 387.247 295.02C386.741 289.711 381.057 276.086 375.634 267.179C368.97 256.233 356.023 242.321 348.154 237.651C346.404 236.612 346.404 236.612 346.356 232.439C346.218 220.169 336.381 210.623 323.526 210.282C323.339 210.276 323.033 209.643 322.847 208.874C321.425 203.015 314.253 196.702 306.646 194.612C303.903 193.859 304.067 193.97 304.574 193.205C304.821 192.832 306.983 190.036 309.378 186.99C311.773 183.945 317.453 176.539 322 170.532C326.773 164.228 330.416 159.672 330.618 159.757C379.664 180.314 417.896 113.916 375.239 82.2617C332.384 50.4607 281.987 110.603 318.029 150.535L319.962 152.676L316.668 157.41C314.857 160.014 309.552 167.805 304.881 174.725C300.209 181.644 296.284 187.425 296.157 187.572C296.03 187.72 295.074 186.93 294.03 185.817C290.265 181.802 286.118 180.139 279.315 179.916C275.006 179.776 275.006 179.776 274.315 178.777C272.502 176.161 268.325 173.191 264.946 172.113C263.43 171.63 263.43 171.63 263.467 153.868C263.486 144.098 263.436 132.3 263.355 127.65L263.207 119.194L267.202 118.527C342.905 105.883 326.91 -7.16915 250.483 0.359584ZM248.622 14.9949C222.651 19.6864 205.582 43.6999 210.241 67.2016C210.577 68.8964 211.026 70.5886 211.593 72.2709C225.164 112.545 289.71 112.545 303.281 72.2709C303.854 70.5703 304.307 68.8682 304.646 67.1707C310.593 37.4047 281.468 9.06198 248.622 14.9949ZM161.417 88.7207C142.237 92.2671 130.885 111.728 135.615 128.23C136.524 131.402 138.028 134.465 140.185 137.285C155.444 157.234 182.92 155.221 194.241 133.326C195.232 131.409 195.989 129.457 196.53 127.493C202.25 106.721 183.77 84.5881 161.417 88.7207ZM343.146 88.7374C324.012 92.1553 314.096 110.827 318.369 127.464C319.796 133.024 322.809 138.358 327.592 142.819C341.35 155.651 362.545 153.161 374.689 137.285C376.848 134.462 378.345 131.442 379.254 128.339C385.153 108.214 366.346 84.5928 343.146 88.7374ZM254.218 181.618C244.854 183.27 241.83 191.935 246.812 202.841C248.295 206.089 248.295 206.089 250.572 206.112C252.616 206.134 253.082 206.254 255.142 207.295C257.437 208.454 257.437 208.454 259.732 207.295C261.792 206.254 262.258 206.134 264.302 206.112C266.578 206.089 266.578 206.089 268.06 202.841C274.172 189.449 267.532 179.269 254.218 181.618ZM230.2 190.191C222.528 192.236 220.315 201.544 225.181 211.296C227.196 215.334 226.796 215.016 229.235 214.514C230.815 214.188 231.688 214.153 232.771 214.374C236.326 215.099 235.891 215.216 237.398 213.127C238.147 212.089 239.393 210.712 240.167 210.066C241.574 208.892 241.574 208.892 240.645 207.461C238.113 203.557 237.047 199.808 236.808 193.961C236.627 189.559 235.334 188.821 230.2 190.191ZM278.067 193.926C277.827 199.811 276.767 203.549 274.228 207.461C273.3 208.892 273.3 208.892 274.707 210.066C275.481 210.712 276.727 212.089 277.476 213.127C278.983 215.216 278.548 215.099 282.103 214.374C283.186 214.153 284.059 214.188 285.639 214.514C288.078 215.016 287.678 215.334 289.693 211.296C295.38 199.898 291.662 190.268 281.412 189.85L278.24 189.721L278.067 193.926ZM209.205 201.662C197.74 204.629 193.665 218.352 201.414 227.9C203.261 230.175 203.137 230.136 204.984 229.032C207.854 227.318 211.09 226.766 214.863 227.348C216.23 227.558 216.23 227.558 216.577 226.198C217.159 223.913 218.871 220.931 220.729 218.967C222.496 217.099 222.496 217.099 221.292 215.515C218.666 212.059 216.33 205.454 216.308 201.422C216.306 201.04 210.902 201.223 209.205 201.662ZM298.566 201.422C298.544 205.454 296.208 212.059 293.582 215.515C292.378 217.099 292.378 217.099 294.145 218.967C296.003 220.931 297.715 223.913 298.297 226.198C298.644 227.558 298.644 227.558 300.011 227.348C303.784 226.766 307.019 227.318 309.89 229.032C311.737 230.136 311.613 230.175 313.46 227.9C319.918 219.943 317.992 207.263 309.719 203.259C306.166 201.539 298.572 200.289 298.566 201.422ZM245.965 215.385C237.91 219.092 237.18 228.131 244.098 238.464C246.225 241.641 246.225 241.641 247.054 240.348C251.463 233.476 263.411 233.476 267.82 240.348C269.019 242.218 273.846 235.092 275.072 229.641C277.261 219.912 267.663 210.018 262.237 216.409C261.083 217.769 259.665 220.266 259.105 221.925C258.02 225.138 256.854 225.138 255.769 221.925C254.902 219.356 253.074 216.586 251.405 215.312C250.218 214.407 248.026 214.436 245.965 215.385ZM188.788 217.359C174.157 219.26 171.484 240.054 184.727 248.947C187.547 250.84 195.594 254.178 195.594 253.455C195.594 253.41 195.328 252.344 195.002 251.086C193.614 245.72 195.063 238.967 198.51 234.738C199.435 233.605 199.435 233.605 197.114 231.181C193.675 227.589 191.814 223.727 191.301 219.122C191.059 216.95 191.196 217.046 188.788 217.359ZM323.856 217.413C323.798 217.589 323.61 218.686 323.437 219.852C322.751 224.471 321.101 227.731 317.636 231.318C315.433 233.597 315.433 233.597 316.36 234.735C319.811 238.967 321.26 245.718 319.872 251.086C319.546 252.344 319.28 253.41 319.28 253.455C319.28 254.178 327.327 250.84 330.147 248.947C341.88 241.068 341.676 223.917 329.785 218.435C327.823 217.531 324.03 216.877 323.856 217.413ZM229.209 221.131C219.902 222.456 218.004 237.561 225.87 247.708C226.55 248.586 227.197 249.433 227.307 249.592C227.425 249.762 227.968 249.565 228.639 249.107C232.429 246.522 237.017 245.96 243.945 247.233C244.175 247.276 245.431 244.184 245.23 244.069C237.695 239.764 233.395 232.123 233.829 223.807C233.954 221.397 233.954 221.397 232.898 221.222C232.317 221.125 231.642 221.009 231.398 220.965C231.154 220.92 230.169 220.995 229.209 221.131ZM283.328 220.97C283.165 221.014 282.557 221.128 281.976 221.223C280.919 221.397 280.919 221.397 281.045 223.807C281.478 232.123 277.179 239.764 269.643 244.069C269.443 244.184 270.699 247.276 270.929 247.233C277.857 245.96 282.444 246.522 286.235 249.107C286.906 249.565 287.449 249.762 287.567 249.592C287.677 249.433 288.323 248.586 289.004 247.708C294.785 240.25 295.489 227.61 290.371 223.155C288.787 221.777 284.861 220.559 283.328 220.97ZM210.33 233.21C198.924 236.246 198.125 251.831 208.864 261.808C216.626 269.019 209.046 267.329 200.591 259.963C198.299 257.966 198.299 257.966 196.552 258.147C189.418 258.884 178.428 252.646 172.567 244.533C171.215 242.66 171.215 242.66 170.355 243.655C158.171 257.738 151.237 270.347 143.34 292.776C141.385 298.329 141.366 297.896 143.589 298.315C181.532 305.436 206.568 345.407 207.348 400.109C207.518 412.054 207.217 411.338 211.419 409.784C213.985 408.834 214.505 408.111 216.602 402.59C226.196 377.318 234.273 367.297 247.804 363.877C250.604 363.169 250.522 363.222 250.762 361.96C251.302 359.111 254.345 351.65 255.441 350.486C258.084 347.68 262.515 353.543 264.112 361.96C264.352 363.222 264.27 363.169 267.07 363.877C280.601 367.297 288.678 377.318 298.272 402.59C300.369 408.111 300.889 408.834 303.455 409.784C307.657 411.338 307.355 412.054 307.526 400.109C308.306 345.404 333.339 305.436 371.284 298.315C373.508 297.896 373.489 298.329 371.534 292.776C363.637 270.347 356.703 257.738 344.519 243.655C343.659 242.66 343.659 242.66 342.307 244.533C336.446 252.646 325.456 258.884 318.322 258.147C316.575 257.966 316.575 257.966 314.283 259.963C305.828 267.329 298.248 269.019 306.01 261.808C313.758 254.609 315.714 247.176 311.848 239.617C308.786 233.627 299.338 230.037 298.738 234.635C297.778 241.991 294.837 247.649 290.408 250.662C289.118 251.54 289.118 251.54 290.218 253.507C292.748 258.033 291.497 263.916 287.063 268.348C283.312 272.098 280.298 272.343 283.74 268.619C288.256 263.733 287.942 257.778 283.093 256.354C280.193 255.502 271.048 255.864 271.048 256.83C271.048 259.028 268.109 265.785 266.364 267.599C264.2 269.849 263.746 268.874 265.237 265.174C269.803 253.842 265.997 243.041 257.437 243.041C248.877 243.041 245.071 253.842 249.637 265.174C251.128 268.874 250.674 269.849 248.51 267.599C246.765 265.785 243.826 259.028 243.826 256.83C243.826 255.864 234.681 255.502 231.781 256.354C226.931 257.778 226.617 263.733 231.133 268.619C234.576 272.343 231.562 272.098 227.81 268.348C223.376 263.916 222.126 258.033 224.656 253.507C225.756 251.54 225.756 251.54 224.466 250.662C220.041 247.652 217.096 241.989 216.138 234.654C215.981 233.448 215.814 233.109 215.31 232.976C214.271 232.7 211.812 232.815 210.33 233.21ZM128.764 305.638C111.304 308.379 113.93 327.396 133.969 343.329C140.331 348.388 140.446 348.458 150.617 353.64C188.112 372.742 197.961 384.48 197.961 410.071C197.961 411.829 199.224 412.368 200.994 411.361C201.313 411.18 201.262 398.939 200.916 392.397C199.288 361.677 186.841 332.961 168.997 318.765C157.195 309.374 140.228 303.839 128.764 305.638ZM377.128 305.541C344.749 308.95 320.129 339.585 314.703 383.216C313.84 390.162 313.23 410.99 313.88 411.361C315.65 412.368 316.913 411.829 316.913 410.071C316.913 384.477 326.755 372.745 364.257 353.64C374.428 348.458 374.543 348.388 380.905 343.329C404.921 324.237 402.782 302.841 377.128 305.541ZM116.081 344.635C102.46 359.316 98.4465 389.638 107.26 411.268C119.632 441.631 160.11 469.858 195.741 472.974C211.889 474.384 215.554 474.144 214.01 471.766C211.477 467.871 202.796 452.076 197.723 442.134C196.409 439.559 194.371 435.94 193.192 434.088C187.901 425.776 187.512 419.734 191.967 415.027C194.604 412.239 192.947 399.053 188.959 391.077C186.987 387.134 187.123 387.174 185.246 389.983C163.658 422.292 119.614 397.566 120.507 353.643C120.643 346.94 120.643 346.94 118.775 345.457C116.593 343.731 116.849 343.806 116.081 344.635ZM396.035 345.477C394.23 346.94 394.23 346.94 394.366 353.643C395.26 397.566 351.216 422.289 329.628 389.983C327.751 387.174 327.887 387.134 325.915 391.077C321.926 399.053 320.27 412.239 322.907 415.027C327.362 419.734 326.973 425.776 321.681 434.088C320.503 435.94 318.465 439.559 317.151 442.134C312.078 452.076 303.397 467.871 300.864 471.766C299.31 474.159 298.875 474.045 307.968 473.624C326.932 472.748 334.82 471.016 350.201 464.352C405.818 440.261 428.433 389.082 401.45 348.379C398.115 343.347 398.444 343.526 396.035 345.477ZM127.997 352.534C125.129 361.946 130.806 379.685 139.598 388.784C142.327 391.607 142.491 391.625 141.401 388.977C137.017 378.327 138.624 365.12 144.814 360.928C145.959 360.152 143.869 358.85 135.822 355.334C133.95 354.515 131.524 353.403 130.429 352.862C128.067 351.691 128.246 351.718 127.997 352.534ZM384.822 352.669C384.008 353.087 381.478 354.26 379.2 355.275C370.407 359.184 368.879 360.129 370.055 360.925C376.25 365.12 377.858 378.321 373.473 388.977C372.383 391.625 372.547 391.607 375.276 388.784C384.068 379.685 389.745 361.946 386.877 352.534C386.631 351.729 386.643 351.729 384.822 352.669ZM253.934 370.618C242.612 372.622 232.015 384.755 223.796 405.124C219.676 415.338 217.533 416.815 203.879 418.869C194.894 420.22 194.301 422.385 200.476 431.294C204.941 437.736 210.395 446.636 216.155 456.876C226.448 475.183 230.247 481.254 235.482 487.775C253.536 510.271 268.967 506.582 288.11 475.195C291.879 469.016 292.35 468.202 298.719 456.876C304.479 446.636 309.933 437.736 314.397 431.294C320.573 422.385 319.98 420.22 310.995 418.869C297.34 416.815 295.197 415.338 291.077 405.124C281.17 380.568 267.814 368.16 253.934 370.618ZM223.853 419.044C221.088 420.469 220.09 423.205 221.378 425.835C222.398 427.918 225.21 428.957 226.94 427.889C227.415 427.596 227.775 427.704 229.229 428.585C234.427 431.727 236.409 431.119 234.793 426.873C232.327 420.396 227.68 417.072 223.853 419.044ZM285.934 419.176C282.762 420.77 278.704 427.584 279.7 429.65C280.42 431.142 281.833 430.89 285.645 428.585C287.099 427.704 287.458 427.596 287.934 427.889C289.664 428.957 292.476 427.918 293.496 425.835C295.701 421.332 290.593 416.832 285.934 419.176Z" fill="#22110C"/>
<path d="M283.327 220.971C283.164 221.014 282.556 221.128 281.975 221.224C280.918 221.397 280.918 221.397 281.044 223.808C281.477 232.123 277.177 239.765 269.643 244.07C269.442 244.185 270.698 247.276 270.927 247.234C277.856 245.96 282.443 246.522 286.234 249.108C286.905 249.565 287.447 249.762 287.566 249.592C287.676 249.434 288.322 248.586 289.003 247.709C294.784 240.251 295.488 227.61 290.369 223.156C288.786 221.777 284.86 220.56 283.327 220.971Z" fill="#2430F0"/>
<path d="M323.855 217.413C323.798 217.589 323.609 218.686 323.436 219.852C322.75 224.471 321.1 227.731 317.635 231.318C315.432 233.597 315.432 233.597 316.36 234.735C319.809 238.968 321.26 245.719 319.871 251.086C319.546 252.344 319.28 253.41 319.28 253.455C319.28 254.178 327.326 250.84 330.146 248.947C341.879 241.068 341.675 223.917 329.784 218.435C327.823 217.531 324.03 216.877 323.855 217.413Z" fill="#2430F0"/>
<path d="M298.569 201.422C298.547 205.454 296.212 212.059 293.585 215.515C292.381 217.099 292.381 217.099 294.148 218.966C296.006 220.93 297.718 223.913 298.3 226.198C298.647 227.558 298.647 227.558 300.014 227.348C303.787 226.766 307.023 227.317 309.893 229.032C311.74 230.136 311.616 230.175 313.463 227.899C319.921 219.942 317.996 207.263 309.722 203.259C306.169 201.539 298.575 200.288 298.569 201.422Z" fill="#2430F0"/>
<path d="M278.071 193.926C277.83 199.811 276.77 203.549 274.232 207.461C273.303 208.892 273.303 208.892 274.71 210.067C275.484 210.713 276.73 212.09 277.479 213.128C278.986 215.217 278.551 215.099 282.107 214.375C283.19 214.154 284.062 214.188 285.642 214.514C288.081 215.017 287.682 215.334 289.696 211.297C295.384 199.898 291.665 190.268 281.414 189.85L278.243 189.722L278.071 193.926Z" fill="#2430F0"/>
<path d="M254.221 181.619C244.857 183.271 241.834 191.935 246.815 202.842C248.299 206.09 248.299 206.09 250.575 206.113C252.62 206.134 253.085 206.255 255.146 207.295C257.44 208.455 257.44 208.455 259.735 207.295C261.795 206.255 262.261 206.134 264.305 206.113C266.582 206.09 266.582 206.09 268.064 202.842C274.175 189.45 267.535 179.27 254.221 181.619Z" fill="#2430F0"/>
<path d="M245.965 215.383C237.911 219.091 237.18 228.13 244.098 238.463C246.226 241.64 246.226 241.64 247.055 240.347C251.463 233.474 263.412 233.474 267.82 240.347C269.019 242.216 273.847 235.09 275.073 229.639C277.262 219.911 267.664 210.016 262.237 216.408C261.083 217.768 259.665 220.265 259.105 221.923C258.021 225.136 256.855 225.136 255.77 221.923C254.903 219.354 253.075 216.584 251.405 215.311C250.219 214.405 248.026 214.435 245.965 215.383Z" fill="#2430F0"/>
<path d="M229.207 221.13C219.9 222.454 218.002 237.56 225.868 247.707C226.549 248.585 227.195 249.432 227.305 249.59C227.424 249.761 227.966 249.564 228.637 249.106C232.428 246.52 237.015 245.959 243.944 247.232C244.174 247.274 245.429 244.183 245.228 244.068C237.694 239.763 233.394 232.122 233.827 223.806C233.953 221.395 233.953 221.395 232.896 221.22C232.315 221.124 231.64 221.008 231.396 220.963C231.152 220.918 230.167 220.994 229.207 221.13Z" fill="#2430F0"/>
<path d="M209.202 201.663C197.737 204.629 193.662 218.352 201.411 227.9C203.258 230.176 203.134 230.137 204.981 229.033C207.851 227.318 211.087 226.767 214.86 227.348C216.227 227.559 216.227 227.559 216.574 226.199C217.156 223.913 218.868 220.931 220.726 218.967C222.492 217.1 222.492 217.1 221.289 215.516C218.662 212.06 216.326 205.455 216.304 201.422C216.303 201.041 210.899 201.223 209.202 201.663Z" fill="#2430F0"/>
<path d="M230.199 190.192C222.527 192.238 220.314 201.545 225.18 211.297C227.195 215.335 226.796 215.018 229.234 214.515C230.814 214.189 231.687 214.155 232.77 214.376C236.326 215.1 235.89 215.217 237.397 213.129C238.146 212.091 239.392 210.713 240.166 210.068C241.573 208.893 241.573 208.893 240.645 207.462C238.112 203.558 237.047 199.809 236.807 193.963C236.627 189.56 235.333 188.823 230.199 190.192Z" fill="#2430F0"/>
<path d="M188.788 217.359C174.156 219.261 171.483 240.055 184.727 248.947C187.546 250.84 195.593 254.179 195.593 253.455C195.593 253.411 195.327 252.345 195.002 251.086C193.614 245.721 195.063 238.967 198.51 234.739C199.434 233.605 199.434 233.605 197.113 231.181C193.675 227.589 191.813 223.728 191.3 219.122C191.058 216.95 191.196 217.046 188.788 217.359Z" fill="#2430F0"/>
<path d="M377.126 305.54C344.747 308.949 320.127 339.584 314.701 383.215C313.837 390.161 313.228 410.989 313.877 411.36C315.647 412.367 316.911 411.829 316.911 410.07C316.911 384.476 326.754 372.744 364.255 353.639C374.426 348.458 374.541 348.388 380.902 343.329C404.919 324.236 402.779 302.84 377.126 305.54Z" fill="#2BE1B7"/>
<path d="M396.04 345.477C394.235 346.94 394.235 346.94 394.371 353.642C395.265 397.566 351.22 422.288 329.633 389.983C327.756 387.174 327.892 387.133 325.92 391.077C321.931 399.052 320.275 412.238 322.912 415.027C327.366 419.734 326.978 425.776 321.686 434.088C320.508 435.94 318.47 439.559 317.156 442.133C312.083 452.075 303.402 467.871 300.869 471.765C299.315 474.158 298.88 474.044 307.973 473.623C326.936 472.748 334.825 471.016 350.206 464.351C405.823 440.261 428.438 389.081 401.455 348.379C398.12 343.347 398.449 343.525 396.04 345.477Z" fill="#2BE1B7"/>
<path d="M116.08 344.634C102.46 359.315 98.4461 389.637 107.26 411.267C119.631 441.63 160.109 469.858 195.742 472.974C211.888 474.384 215.554 474.144 214.009 471.765C211.477 467.871 202.795 452.075 197.723 442.133C196.409 439.559 194.37 435.94 193.192 434.088C187.9 425.776 187.512 419.734 191.966 415.027C194.604 412.238 192.947 399.052 188.959 391.077C186.986 387.133 187.122 387.174 185.246 389.983C163.658 422.291 119.614 397.566 120.506 353.642C120.643 346.94 120.643 346.94 118.774 345.456C116.593 343.73 116.848 343.806 116.08 344.634Z" fill="#2BE1B7"/>
<path d="M128.765 305.639C111.305 308.38 113.931 327.397 133.97 343.33C140.332 348.389 140.447 348.459 150.618 353.641C188.113 372.742 197.962 384.48 197.962 410.072C197.962 411.83 199.225 412.369 200.995 411.362C201.314 411.181 201.263 398.94 200.917 392.397C199.289 361.677 186.842 332.962 168.998 318.766C157.196 309.375 140.23 303.839 128.765 305.639Z" fill="#2BE1B7"/>
<path d="M210.332 233.209C198.926 236.245 198.127 251.83 208.866 261.807C216.628 269.019 209.047 267.328 200.593 259.962C198.301 257.965 198.301 257.965 196.554 258.146C189.42 258.883 178.429 252.645 172.569 244.532C171.217 242.659 171.217 242.66 170.357 243.654C158.173 257.737 151.238 270.347 143.342 292.775C141.387 298.329 141.368 297.895 143.591 298.314C181.534 305.435 206.57 345.406 207.35 400.108C207.52 412.054 207.218 411.337 211.421 409.784C213.987 408.833 214.507 408.11 216.604 402.589C226.197 377.317 234.274 367.296 247.806 363.876C250.606 363.168 250.524 363.221 250.763 361.96C251.304 359.11 254.346 351.65 255.442 350.485C258.086 347.68 262.517 353.543 264.114 361.96C264.353 363.221 264.271 363.168 267.072 363.876C280.603 367.296 288.68 377.317 298.274 402.589C300.37 408.11 300.89 408.833 303.457 409.784C307.659 411.337 307.357 412.054 307.527 400.108C308.307 345.403 333.341 305.435 371.286 298.314C373.51 297.895 373.49 298.329 371.536 292.775C363.639 270.347 356.705 257.737 344.521 243.654C343.661 242.66 343.661 242.659 342.308 244.532C336.448 252.645 325.458 258.883 318.323 258.146C316.576 257.965 316.576 257.965 314.284 259.962C305.83 267.328 298.249 269.019 306.011 261.807C313.76 254.608 315.716 247.175 311.85 239.616C308.788 233.626 299.34 230.037 298.739 234.635C297.78 241.99 294.839 247.648 290.409 250.661C289.12 251.539 289.12 251.539 290.219 253.506C292.749 258.033 291.499 263.916 287.065 268.347C283.314 272.097 280.3 272.342 283.742 268.618C288.258 263.732 287.944 257.777 283.095 256.353C280.195 255.502 271.05 255.863 271.05 256.829C271.05 259.027 268.111 265.785 266.366 267.599C264.201 269.848 263.748 268.873 265.238 265.174C269.805 253.841 265.999 243.04 257.439 243.04C248.878 243.04 245.072 253.841 249.639 265.174C251.13 268.873 250.676 269.848 248.512 267.599C246.767 265.785 243.827 259.027 243.827 256.829C243.827 255.863 234.683 255.502 231.782 256.353C226.933 257.777 226.619 263.732 231.135 268.618C234.578 272.342 231.564 272.097 227.812 268.347C223.378 263.916 222.128 258.033 224.658 253.506C225.758 251.539 225.758 251.539 224.467 250.661C220.043 247.651 217.097 241.988 216.14 234.653C215.983 233.447 215.816 233.109 215.312 232.975C214.272 232.699 211.814 232.814 210.332 233.209Z" fill="#2430F0"/>
<path fill-rule="evenodd" clip-rule="evenodd" d="M253.936 370.618C242.613 372.622 232.016 384.755 223.798 405.123C219.677 415.337 217.535 416.815 203.88 418.869C194.895 420.22 194.302 422.385 200.478 431.294C204.943 437.736 210.396 446.636 216.156 456.876C226.449 475.183 230.248 481.254 235.483 487.775C253.537 510.27 268.968 506.582 288.111 475.194C291.881 469.015 292.351 468.202 298.721 456.876C304.481 446.636 309.934 437.736 314.399 431.294C320.574 422.385 319.982 420.22 310.996 418.869C297.341 416.815 295.199 415.337 291.079 405.123C281.171 380.568 267.815 368.16 253.936 370.618ZM221.379 425.834C220.091 423.204 221.089 420.469 223.854 419.044C227.682 417.072 232.328 420.396 234.794 426.873C236.41 431.118 234.429 431.727 229.23 428.585C227.776 427.704 227.417 427.596 226.941 427.889C225.211 428.957 222.4 427.918 221.379 425.834ZM279.701 429.65C278.706 427.584 282.763 420.77 285.935 419.176C290.594 416.832 295.702 421.332 293.498 425.834C292.477 427.918 289.665 428.957 287.936 427.889C287.46 427.596 287.1 427.704 285.646 428.585C281.834 430.89 280.421 431.142 279.701 429.65Z" fill="#F2C79C"/>
<path fill-rule="evenodd" clip-rule="evenodd" d="M196.528 127.494C192.591 112.825 180.326 101.271 163.662 104.352C150.44 106.797 138.691 116.843 135.613 128.23C136.523 131.403 138.026 134.466 140.183 137.285C155.442 157.234 182.918 155.222 194.239 133.326C195.23 131.41 195.987 129.458 196.528 127.494Z" fill="#2430F0"/>
<path fill-rule="evenodd" clip-rule="evenodd" d="M211.594 72.2704C211.027 70.5882 210.578 68.8959 210.242 67.2011C213.689 49.567 230.725 34.2649 250.87 30.6257C277.833 25.7555 300.042 44.0193 304.648 67.1703C304.309 68.8677 303.856 70.5699 303.282 72.2704C289.711 112.545 225.165 112.545 211.594 72.2704Z" fill="#2430F0"/>
<path d="M343.146 88.7377C324.013 92.1555 314.097 110.827 318.369 127.465C321.196 116.314 332.24 106.719 345.394 104.369C362.635 101.289 375.203 113.581 379.255 128.339C385.153 108.214 366.347 84.5931 343.146 88.7377Z" fill="#2430F0"/>
<path d="M210.238 67.2017C213.685 49.5676 230.721 34.2656 250.867 30.6263C277.829 25.7562 300.038 44.0199 304.644 67.1709C310.59 37.4049 281.465 9.06218 248.62 14.9951C222.648 19.6866 205.58 43.7001 210.238 67.2017Z" fill="#2430F0"/>
<path d="M163.663 104.352C180.327 101.271 192.592 112.825 196.529 127.493C202.249 106.721 183.769 84.5882 161.416 88.7208C142.236 92.2672 130.884 111.728 135.614 128.23C138.692 116.842 150.441 106.797 163.663 104.352Z" fill="#2430F0"/>
<path d="M327.591 142.819C341.348 155.652 362.544 153.161 374.688 137.286C376.846 134.463 378.343 131.443 379.253 128.34C375.201 113.581 362.633 101.289 345.391 104.369C332.238 106.719 321.194 116.315 318.367 127.465C319.795 133.025 322.808 138.359 327.591 142.819Z" fill="#2430F0"/>
<path fill-rule="evenodd" clip-rule="evenodd" d="M217.397 51.3137C224.924 40.9781 237.192 33.1026 250.9 30.6263C271.412 26.9211 289.174 36.6062 298.526 51.6464C300.309 49.8726 301.939 48.0697 303.285 46.3038C296.329 25.7079 273.56 10.4959 248.653 14.9951C231.445 18.1035 218.145 29.6942 212.484 43.998C213.709 46.3321 215.438 48.8365 217.397 51.3137Z" fill="#F2C79C"/>
<path d="M217.395 51.3131C224.077 59.7625 233.433 67.8986 234.56 67.8986C235.413 67.8986 240.13 63.3685 245.03 58.6638C250.321 53.5819 255.825 48.2964 256.901 48.2964C257.936 48.2964 262.375 53.1969 266.813 58.0975C271.252 62.998 275.69 67.8986 276.726 67.8986C278.047 67.8986 290.022 60.1021 298.523 51.6457C289.171 36.6055 271.409 26.9205 250.897 30.6256C237.189 33.102 224.921 40.9774 217.395 51.3131Z" fill="#2BE1B7"/>
<path d="M135.771 127.404C139.18 116.36 150.679 106.737 163.581 104.352C173.447 102.528 181.771 105.834 187.737 111.878C188.846 107.826 189.648 102.987 189.554 98.9242C182.858 91.216 172.587 86.6404 161.334 88.7208C142.607 92.1831 131.343 110.818 135.224 127.056C135.404 127.174 135.586 127.29 135.771 127.404Z" fill="#2BE1B7"/>
<path d="M135.773 127.405C143.03 131.936 152.922 133.915 155.528 132.411C157.546 131.248 158.48 125.379 158.7 119.334C158.867 114.74 159.016 110.627 159.911 109.869C160.899 109.031 165.694 111.757 170.774 114.647C176.343 117.812 182.632 120.573 184.257 119.655C185.419 118.999 186.563 116.183 187.74 111.879C181.774 105.834 173.449 102.528 163.583 104.352C150.682 106.738 139.182 116.36 135.773 127.405Z" fill="#2BE1B7"/>
<path fill-rule="evenodd" clip-rule="evenodd" d="M320.576 106.519C321.019 109.737 330.34 126.999 332.855 127.584C334.217 127.901 338.876 124.614 343.145 121.604C346.758 119.055 350.091 116.704 350.905 116.905C351.648 117.088 353.062 119.292 354.716 121.869C357.019 125.457 359.787 129.767 361.853 130.363C364.53 131.135 375.189 125.592 380.405 121.875C381.21 103.529 363.977 85.031 343.23 88.7378C332.396 90.6729 324.517 97.4987 320.496 106.076C320.527 106.212 320.553 106.358 320.576 106.519Z" fill="#2BE1B7"/>
<path d="M384.824 352.669C384.01 353.087 381.481 354.26 379.202 355.275C370.409 359.184 368.881 360.129 370.057 360.925C376.252 365.12 377.86 378.321 373.476 388.977C372.385 391.625 372.549 391.607 375.279 388.783C384.07 379.684 389.747 361.946 386.879 352.534C386.633 351.729 386.645 351.729 384.824 352.669Z" fill="#F1F1F1"/>
<path d="M127.996 352.534C125.128 361.946 130.805 379.684 139.597 388.783C142.326 391.607 142.49 391.624 141.4 388.977C137.016 378.327 138.624 365.12 144.813 360.927C145.958 360.152 143.868 358.85 135.821 355.333C133.949 354.514 131.523 353.402 130.428 352.861C128.066 351.691 128.245 351.718 127.996 352.534Z" fill="#F1F1F1"/>
<path d="M365.554 379.342C365.554 378.371 364.692 377.587 363.63 377.587C362.568 377.587 361.707 378.371 361.707 379.342C361.707 380.31 362.568 381.098 363.63 381.098C364.692 381.098 365.554 380.31 365.554 379.342Z" fill="#F1F1F1"/>
<path opacity="0.2" fill-rule="evenodd" clip-rule="evenodd" d="M302.009 75.5918C285.547 93.7213 252.826 103.698 215.437 80.6104C233.925 111.352 287.321 109.679 302.009 75.5918ZM189.521 140.34C172.193 147.507 148.665 140.17 137.172 132.356C137.979 134.06 138.98 135.71 140.185 137.285C153.615 154.842 176.508 155.388 189.521 140.34ZM377.367 133.06C367.404 142.323 347.231 148.909 323.669 138.464C324.811 139.986 326.117 141.444 327.592 142.819C341.35 155.651 362.545 153.161 374.689 137.285C375.734 135.918 376.624 134.506 377.367 133.06Z" fill="#22110C"/>
<path d="M210.238 67.2017C213.685 49.5676 230.721 34.2655 250.867 30.6265C277.829 25.7561 300.038 44.0199 304.644 67.1709C310.59 37.4051 281.465 9.06218 248.62 14.9951C222.648 19.6866 205.58 43.7004 210.238 67.2017Z" fill="#2430F0"/>
<path fill-rule="evenodd" clip-rule="evenodd" d="M217.397 51.3137C224.924 40.978 237.192 33.1026 250.9 30.6265C271.412 26.9211 289.174 36.6061 298.526 51.6463C300.309 49.8724 301.939 48.0699 303.285 46.3039C296.329 25.7079 273.56 10.496 248.653 14.9951C231.445 18.1035 218.145 29.6941 212.484 43.9979C213.709 46.3321 215.438 48.8365 217.397 51.3137Z" fill="#2BE1B7"/>
<g opacity="0.2">
<g style="mix-blend-mode:hard-light">
<path fill-rule="evenodd" clip-rule="evenodd" d="M269.305 187.964C267.142 182.967 261.748 180.291 254.222 181.619C249.777 182.403 246.76 184.768 245.351 188.202C248.317 185.781 253.565 184.989 257.481 184.907C261.265 184.987 266.294 185.729 269.305 187.964ZM236.352 191.126C232.686 191.682 225.991 193.446 223.081 197.504C224.051 193.878 226.487 191.182 230.204 190.191C233.924 189.199 235.628 189.313 236.352 191.126ZM216.356 202.385C216.329 202.051 216.314 201.729 216.312 201.422C216.31 201.041 210.906 201.224 209.209 201.663C203.399 203.166 199.486 207.433 198.049 212.518C201.935 207.085 209.171 202.555 216.356 202.385ZM176.18 231.984C177.897 226.208 184.296 220.183 189.498 220.183C190.234 220.183 190.875 220.143 191.432 220.071C191.382 219.759 191.341 219.442 191.305 219.123C191.293 219.015 191.282 218.914 191.271 218.817C191.179 217.964 191.131 217.525 190.885 217.327C190.623 217.117 190.136 217.182 189.131 217.315C189.024 217.329 188.911 217.345 188.792 217.36C180.941 218.38 176.532 224.841 176.18 231.984ZM254.195 218.61C251.177 216.292 246.712 215.377 240.442 220.563C241.5 218.364 243.346 216.592 245.968 215.385C248.029 214.437 250.222 214.407 251.409 215.313C252.354 216.034 253.351 217.237 254.195 218.61ZM273.601 219.835C270.893 214.899 265.713 212.32 262.241 216.41C261.734 217.007 261.177 217.823 260.664 218.69C263.535 216.431 267.741 215.418 273.601 219.835ZM233.882 222.764C233.927 221.393 233.777 221.368 232.902 221.222C232.321 221.126 231.645 221.01 231.402 220.965C231.158 220.92 230.172 220.996 229.212 221.132C224.641 221.783 221.857 225.758 221.14 230.837C222.95 225.026 229.772 222.312 233.882 222.764ZM298.911 233.968C300.333 230.428 308.953 233.948 311.852 239.618C312.659 241.193 313.211 242.764 313.511 244.328C311.29 238.154 304.294 235.324 298.911 233.968ZM271.045 257.034C271.05 256.962 271.052 256.895 271.052 256.831C271.052 255.865 280.197 255.503 283.097 256.355C284.472 256.758 285.482 257.526 286.121 258.53C283.345 256.108 277.308 256.558 271.045 257.034ZM250.028 247.027C251.71 244.548 254.244 243.041 257.441 243.041C260.577 243.041 263.075 244.492 264.758 246.887C262.663 245.27 259.792 244.44 257.481 244.225C255.104 244.446 252.136 245.318 250.028 247.027ZM228.659 258.698C229.29 257.611 230.334 256.781 231.784 256.355C234.685 255.503 243.83 255.865 243.83 256.831C243.83 256.893 243.832 256.959 243.836 257.028C237.462 256.543 231.334 256.098 228.659 258.698ZM216.033 233.973C210.529 235.362 203.348 238.291 201.305 244.758C201.635 239.301 204.682 234.715 210.334 233.21C211.816 232.816 214.275 232.7 215.314 232.976C215.707 233.08 215.895 233.309 216.033 233.973ZM291.879 197.501C290.628 193.026 286.986 190.078 281.415 189.851L278.243 189.722L278.188 191.065C281.738 191.546 288.853 193.284 291.879 197.501ZM316.742 212.283C315.71 208.371 313.315 204.998 309.723 203.259C306.17 201.54 298.576 200.289 298.57 201.422C298.568 201.729 298.553 202.05 298.526 202.383C305.634 202.52 312.803 206.935 316.742 212.283ZM338.806 232.062C337.123 226.263 330.69 220.183 325.464 220.183C324.675 220.183 323.995 220.137 323.41 220.055C323.42 219.988 323.431 219.92 323.441 219.852C323.614 218.687 323.802 217.59 323.86 217.414C324.034 216.878 327.827 217.532 329.789 218.436C335.491 221.064 338.505 226.376 338.806 232.062ZM293.65 230.333C293.26 227.314 292.179 224.726 290.374 223.156C288.791 221.778 284.865 220.56 283.332 220.971C283.169 221.014 282.561 221.128 281.98 221.224C281.104 221.368 280.954 221.393 281 222.773C284.981 222.291 291.6 224.832 293.65 230.333Z" fill="white"/>
</g>
</g>
<g style="mix-blend-mode:hard-light">
<path fill-rule="evenodd" clip-rule="evenodd" d="M392.791 308.158C381.132 307.292 367.534 311.112 357.709 317.172C343.949 325.656 322.793 348.184 318.354 369.981C317.126 376.008 316.205 377.98 315.523 377.547C322.302 336.947 346.167 308.801 377.124 305.542C384.106 304.808 389.347 305.858 392.791 308.158Z" fill="white" fill-opacity="0.4"/>
</g>
<g style="mix-blend-mode:hard-light">
<path fill-rule="evenodd" clip-rule="evenodd" d="M121.473 308.435C133.434 307.128 147.75 311.01 157.978 317.318C171.737 325.802 192.894 348.33 197.333 370.127C198.029 373.544 198.626 375.657 199.137 376.768C194.838 352.219 183.765 330.519 168.995 318.766C157.192 309.375 140.226 303.839 128.762 305.639C125.732 306.115 123.307 307.081 121.473 308.435Z" fill="white" fill-opacity="0.4"/>
</g>
<g style="mix-blend-mode:hard-light">
<path fill-rule="evenodd" clip-rule="evenodd" d="M228.262 395.314C237.937 384.793 250.334 383 256.96 383C263.844 383 277.488 385.197 287.34 396.756C277.935 377.786 266.137 368.456 253.936 370.618C244.569 372.277 235.699 380.864 228.262 395.314Z" fill="white" fill-opacity="0.4"/>
</g>
<path opacity="0.2" fill-rule="evenodd" clip-rule="evenodd" d="M387.63 358.201C383.205 360.088 378.251 362.004 372.9 363.924C372.1 362.686 371.15 361.665 370.057 360.925C368.881 360.129 370.409 359.184 379.202 355.275C381.48 354.26 384.01 353.087 384.824 352.669L384.855 352.651C385.984 352.069 386.396 351.855 386.609 351.981C386.73 352.051 386.786 352.232 386.875 352.522L386.878 352.534C387.384 354.196 387.624 356.115 387.63 358.201ZM127.254 357.721C131.725 359.722 136.712 361.75 142.075 363.774C142.853 362.604 143.769 361.636 144.816 360.928C145.961 360.153 143.87 358.851 135.824 355.334C133.952 354.514 131.526 353.403 130.431 352.861C130.279 352.786 130.137 352.715 130.005 352.651C128.814 352.06 128.419 351.861 128.234 351.984C128.142 352.042 128.102 352.18 128.042 352.388C128.029 352.431 128.015 352.481 127.999 352.534C127.532 354.067 127.291 355.823 127.254 357.721Z" fill="#22110C"/>
<path opacity="0.2" fill-rule="evenodd" clip-rule="evenodd" d="M191.236 430.684C190.292 440.721 193.772 451.947 195.379 457.129C195.653 458.01 195.872 458.718 196.006 459.215C197.152 463.466 184.692 470.189 138.988 449.592C155.863 462.293 176.51 471.292 195.743 472.975C211.89 474.385 215.556 474.145 214.011 471.766C211.479 467.872 202.797 452.076 197.725 442.135C196.411 439.56 194.372 435.941 193.194 434.089C192.443 432.91 191.79 431.774 191.236 430.684Z" fill="#22110C"/>
<path opacity="0.2" fill-rule="evenodd" clip-rule="evenodd" d="M376.172 449.501C330.305 470.206 317.807 463.471 318.955 459.214C319.089 458.717 319.308 458.011 319.581 457.128C321.195 451.923 324.7 440.618 323.712 430.548C323.143 431.68 322.468 432.859 321.686 434.088C320.508 435.94 318.47 439.559 317.156 442.134C312.083 452.075 303.402 467.871 300.869 471.765C300.305 472.634 299.889 473.17 300.02 473.483C300.251 474.035 302.176 473.892 307.973 473.623C326.936 472.748 334.825 471.016 350.207 464.351C359.891 460.156 368.576 455.142 376.172 449.501Z" fill="#22110C"/>
<path opacity="0.2" fill-rule="evenodd" clip-rule="evenodd" d="M213.57 452.33C223.569 468.319 227.622 474.074 233.088 480.227C253.085 502.74 270.177 499.048 291.38 467.635C295.352 461.754 296.017 460.73 302.144 450.891C301.019 452.824 299.877 454.826 298.723 456.876C292.353 468.202 291.883 469.015 288.113 475.194C268.97 506.582 253.539 510.271 235.484 487.775C230.25 481.254 226.451 475.183 216.157 456.876C215.287 455.329 214.424 453.813 213.57 452.33Z" fill="#22110C"/>
<path d="M257.256 342.478C253.557 342.478 248.823 368.516 246.752 368.516L242.461 372.466L257.256 368.516L274.27 373.49C272.445 371.831 268.53 368.516 267.465 368.516C266.133 368.516 260.955 342.478 257.256 342.478Z" fill="black" fill-opacity="0.2"/>
<path d="M232.697 272.553C230.626 272.553 223.672 267.725 223.672 260.557C224.658 258.753 226.631 255.935 226.631 259.094C226.631 263.044 231.07 268.164 232.253 269.334C233.437 270.505 234.768 272.553 232.697 272.553Z" fill="black" fill-opacity="0.2"/>
<path d="M193.043 260.557C184.61 260.557 173.662 249.585 168.039 242.125L171.442 239.199L179.135 250.171L196.594 255.291L199.997 249.732C200.835 251 202.808 254.062 203.991 256.168C205.471 258.801 209.317 260.849 212.424 265.238C215.531 269.627 203.695 264.214 202.216 263.483C201.032 262.897 198.468 261.093 197.333 260.264C197.333 260.362 196.475 260.557 193.043 260.557Z" fill="black" fill-opacity="0.2"/>
<path d="M219.53 247.244C216.127 243.002 217.31 238.028 216.719 233.786L226.335 251.048L225.596 252.364L225.576 252.354C224.625 251.86 222.233 250.615 219.53 247.244Z" fill="black" fill-opacity="0.2"/>
<path d="M249.855 269.92C246.748 269.188 243.938 262.02 243.938 256.608L246.897 255.291L248.82 262.898C249.412 265.239 252.962 270.651 249.855 269.92Z" fill="black" fill-opacity="0.2"/>
<path d="M281.961 272.553C284.032 272.553 290.986 267.725 290.986 260.557C289.999 258.753 288.027 255.935 288.027 259.094C288.027 263.044 283.588 268.164 282.405 269.334C281.221 270.505 279.89 272.553 281.961 272.553Z" fill="black" fill-opacity="0.2"/>
<path d="M321.618 260.557C330.051 260.557 340.999 249.585 346.621 242.125L343.219 239.199L335.525 250.171L318.067 255.291L314.664 249.732C313.826 251 311.853 254.062 310.67 256.168C309.19 258.801 305.343 260.849 302.236 265.238C299.129 269.627 310.965 264.214 312.445 263.483C313.628 262.897 316.193 261.093 317.327 260.264C317.327 260.362 318.186 260.557 321.618 260.557Z" fill="black" fill-opacity="0.2"/>
<path d="M295.126 247.244C298.528 243.002 297.345 238.028 297.937 233.786L288.32 251.048L289.06 252.364L289.079 252.354C290.03 251.86 292.422 250.615 295.126 247.244Z" fill="black" fill-opacity="0.2"/>
<path d="M264.65 270.066C267.757 269.334 270.716 262.02 270.716 256.608L267.757 255.291L265.833 262.898C265.242 265.238 261.543 270.797 264.65 270.066Z" fill="black" fill-opacity="0.2"/>
<path opacity="0.2" d="M222.253 426.739C221.218 426.739 224.472 425.13 223.436 422.35C225.902 421.326 229.769 422.38 232.61 424.837C236.161 427.909 236.161 435.516 236.012 438.734C235.864 441.953 223.289 426.739 222.253 426.739Z" fill="#22110C"/>
<path opacity="0.2" d="M292.419 426.835C293.454 426.835 290.2 425.226 291.235 422.447C288.769 421.423 284.903 422.476 282.062 424.934C278.511 428.006 278.511 435.613 278.659 438.831C278.807 442.049 291.383 426.835 292.419 426.835Z" fill="#22110C"/>
<path opacity="0.2" fill-rule="evenodd" clip-rule="evenodd" d="M158.121 352.501C176.13 363.154 193.637 373.511 193.637 386.364C193.637 386.776 193.63 387.185 193.616 387.587C187.762 375.465 175.065 366.127 150.555 353.64C140.384 348.458 140.269 348.388 133.908 343.329C118.305 330.924 113.259 316.65 120.03 309.643C115.474 327.276 137.138 340.09 158.121 352.501Z" fill="#22110C"/>
<path opacity="0.2" fill-rule="evenodd" clip-rule="evenodd" d="M120.317 309.136L120.177 309.677C117.919 318.416 122.149 325.979 129.603 332.925C137.058 339.87 147.704 346.166 158.2 352.375L158.208 352.381C167.206 357.703 176.094 362.96 182.73 368.496C189.366 374.028 193.788 379.868 193.788 386.363C193.788 386.778 193.781 387.188 193.768 387.589L193.486 387.647C187.655 375.576 175.002 366.255 150.491 353.768C145.408 351.178 142.829 349.862 140.728 348.56C138.624 347.258 136.998 345.97 133.819 343.443C126.003 337.228 120.822 330.54 118.444 324.514C116.067 318.489 116.486 313.1 119.927 309.54L120.317 309.136ZM118.72 324.408C121.073 330.374 126.216 337.024 134.004 343.215C137.186 345.745 138.798 347.021 140.885 348.314C142.974 349.607 145.538 350.918 150.626 353.51C174.771 365.81 187.494 375.076 193.487 386.98C193.49 386.775 193.492 386.571 193.492 386.363C193.492 380.005 189.161 374.239 182.54 368.718C175.923 363.2 167.055 357.954 158.048 352.626L158.038 352.621C147.554 346.418 136.881 340.108 129.4 333.135C122.074 326.31 117.776 318.823 119.754 310.165C116.779 313.612 116.46 318.679 118.72 324.408Z" fill="#22110C"/>
<path opacity="0.2" fill-rule="evenodd" clip-rule="evenodd" d="M356.985 352.501C338.976 363.154 321.469 373.511 321.469 386.364C321.469 386.545 321.47 386.727 321.473 386.905C327.47 375.115 340.145 365.893 364.199 353.64C374.37 348.458 374.485 348.388 380.846 343.329C396.444 330.927 401.01 317.557 395.266 310.444C398.971 327.668 377.648 340.281 356.985 352.501Z" fill="#22110C"/>
<path opacity="0.2" fill-rule="evenodd" clip-rule="evenodd" d="M396.195 324.96C393.81 330.77 388.75 337.233 380.939 343.444C377.759 345.972 376.133 347.259 374.029 348.564C371.927 349.863 369.349 351.18 364.266 353.772C340.211 366.025 327.578 375.229 321.605 386.973L321.324 386.908C321.321 386.727 321.32 386.546 321.32 386.365C321.32 379.869 325.743 374.03 332.377 368.497C339.015 362.961 347.902 357.704 356.901 352.382L356.909 352.377C367.244 346.264 377.725 340.062 385.162 333.242C392.6 326.422 396.955 319.011 395.121 310.477L395.381 310.354C398.299 313.965 398.58 319.149 396.195 324.96ZM395.535 311.045C398 314.518 398.172 319.368 395.923 324.848C393.561 330.6 388.54 337.025 380.753 343.216C377.571 345.747 375.959 347.023 373.872 348.316C371.783 349.609 369.218 350.92 364.13 353.511C340.439 365.58 327.746 374.723 321.616 386.309C321.642 379.972 325.967 374.225 332.569 368.719C339.185 363.202 348.053 357.956 357.061 352.628L357.07 352.622C367.395 346.516 377.902 340.302 385.363 333.456C392.647 326.777 397.062 319.465 395.535 311.045Z" fill="#22110C"/>
<g style="mix-blend-mode:multiply">
<path fill-rule="evenodd" clip-rule="evenodd" d="M113.423 347.775C113.245 362.272 113.802 424.838 188.163 424.838C188.467 424.838 188.769 424.838 189.069 424.835C188.353 420.985 189.302 417.778 191.905 415.028C194.542 412.24 192.886 399.054 188.897 391.078C187.841 388.966 187.39 387.998 186.91 387.983C186.494 387.971 186.056 388.679 185.184 389.984C163.597 422.293 119.552 397.567 120.445 353.644C120.581 346.941 120.581 346.941 118.713 345.458C117.351 344.381 116.939 344.006 116.635 344.077C116.452 344.12 116.308 344.325 116.019 344.636C115.111 345.616 114.245 346.663 113.423 347.775Z" fill="black" fill-opacity="0.2"/>
</g>
<path opacity="0.2" fill-rule="evenodd" clip-rule="evenodd" d="M401.811 349.017C401.924 365.103 399.897 425.129 327.062 425.129C326.578 425.129 326.1 425.126 325.628 425.124C326.448 421.145 325.517 417.847 322.849 415.027C320.212 412.238 321.868 399.049 325.857 391.077C326.913 388.964 327.364 387.996 327.844 387.982C328.26 387.97 328.698 388.678 329.57 389.983C351.158 422.288 395.201 397.566 394.31 353.642C394.213 348.876 394.183 347.498 394.825 346.576C395.086 346.199 395.456 345.901 395.979 345.477C396.955 344.684 397.482 344.186 397.985 344.207C398.722 344.239 399.409 345.389 401.391 348.379C401.533 348.593 401.672 348.806 401.811 349.017Z" fill="#22110C"/>
<path opacity="0.2" fill-rule="evenodd" clip-rule="evenodd" d="M244.495 191.192C244.049 194.521 244.764 198.503 246.745 202.841C248.229 206.089 248.229 206.089 250.505 206.112C252.55 206.133 253.015 206.253 255.076 207.295C257.37 208.454 257.37 208.454 259.664 207.295C261.726 206.253 262.191 206.133 264.235 206.112C266.512 206.089 266.512 206.089 267.994 202.841C269.974 198.501 270.616 194.498 270.124 191.15C269.142 196.567 266.878 203.646 261.801 204.237C259.603 204.694 258.074 204.723 257.545 204.679L257.51 204.676H257.101H257.066C256.538 204.72 255.009 204.694 252.811 204.237C247.747 203.648 245.482 196.603 244.495 191.192ZM274.161 207.461C276.699 203.549 277.76 199.811 278 193.926L278.127 190.835C279.1 196.135 278.84 203.556 274.39 209.857C273.237 208.886 273.292 208.801 274.161 207.461ZM292.242 202.477C292.036 205.181 291.184 208.172 289.626 211.296C289.459 211.631 289.308 211.936 289.171 212.213C288.335 213.908 288.007 214.573 287.503 214.751C287.178 214.866 286.779 214.777 286.123 214.633C285.957 214.595 285.774 214.555 285.572 214.513C283.992 214.188 283.12 214.153 282.036 214.374C281.752 214.432 281.494 214.486 281.258 214.535C281.207 214.546 281.158 214.556 281.109 214.566C281.303 213.986 282.812 213.513 284.349 213.031C285.796 212.578 287.268 212.117 287.692 211.551C289.8 208.742 291.41 205.909 292.242 202.477ZM298.499 201.422C298.477 205.454 296.141 212.059 293.515 215.515C292.393 216.991 292.317 217.092 293.743 218.611C296.766 214.291 299.914 205.783 298.723 201.148C298.579 201.216 298.5 201.306 298.499 201.422ZM317.171 215.113C316.784 217.587 315.401 222.797 313.288 225.01C310.773 227.643 309.737 227.936 307.666 227.058C306.434 226.536 304.635 226.79 303.327 227.135C305.703 227.224 307.849 227.853 309.823 229.032L309.885 229.069L309.997 229.137C310.716 229.567 311.113 229.805 311.476 229.762C311.928 229.707 312.326 229.216 313.218 228.115L313.306 228.006L313.393 227.9C316.389 224.208 317.581 219.5 317.171 215.113ZM338.641 230.948C338.118 235.033 336.628 242.295 330.894 247.099C325.498 251.619 321.425 251.926 320.537 245.489C320.451 244.868 320.331 244.539 320.188 244.442C320.455 246.713 320.344 249.003 319.805 251.086C319.48 252.344 319.213 253.41 319.213 253.455C319.213 254.178 327.26 250.84 330.08 248.946C336.556 244.598 339.395 237.425 338.641 230.948ZM323.345 220.015C322.645 224.548 320.993 227.773 317.569 231.317C315.366 233.597 315.366 233.597 316.293 234.735C316.393 234.857 316.49 234.98 316.586 235.106C319.535 232.143 322.821 226.485 323.345 220.015ZM293.733 233.734C293.185 236.83 292.284 240.217 290.947 241.832C288.284 245.051 284.733 245.928 281.922 245.489C280.509 245.269 278.165 245.884 276.117 246.601C280.273 246.427 283.429 247.238 286.169 249.107C286.84 249.565 287.382 249.762 287.5 249.592C287.61 249.433 288.257 248.586 288.937 247.708C291.947 243.825 293.58 238.539 293.733 233.734ZM269.849 245.17C274.108 242.949 280.936 237.006 280.852 227.551C280.026 234.374 275.964 240.42 269.577 244.069C269.5 244.113 269.638 244.595 269.849 245.17ZM275.247 228.187C273.932 232.021 271.007 238.051 266.387 236.42C262.245 234.957 259.73 234.664 257.658 234.664C257.526 234.664 257.409 234.677 257.306 234.7C257.203 234.677 257.086 234.664 256.954 234.664C254.882 234.664 252.367 234.957 248.224 236.42C244.056 237.892 241.268 233.124 239.796 229.362C240.482 232.193 241.89 235.266 244.031 238.464C245.372 240.467 245.868 241.207 246.259 241.157C246.488 241.127 246.681 240.826 246.988 240.348C251.396 233.476 263.345 233.476 267.753 240.348C268.952 242.218 273.779 235.091 275.005 229.641C275.114 229.156 275.194 228.671 275.247 228.187ZM220.885 233.768C220.936 238.369 222.519 243.471 225.803 247.708C226.484 248.586 227.131 249.433 227.24 249.592C227.358 249.762 227.901 249.565 228.571 249.107C231.28 247.26 234.394 246.445 238.479 246.595C236.434 245.881 234.099 245.27 232.69 245.489C229.879 245.928 226.328 245.051 223.665 241.832C222.333 240.223 221.433 236.854 220.885 233.768ZM233.793 226.577C233.206 236.681 240.477 242.976 244.871 245.226C245.094 244.626 245.243 244.115 245.163 244.069C238.474 240.247 234.334 233.796 233.793 226.577ZM220.924 218.689C222.426 217.095 222.366 217.016 221.225 215.515C218.599 212.059 216.263 205.454 216.241 201.422C216.241 201.36 216.1 201.313 215.856 201.28C214.751 205.971 217.913 214.434 220.924 218.689ZM197.458 215.218C197.007 219.468 198.205 224.027 201.347 227.9C201.408 227.974 201.466 228.046 201.523 228.115C202.415 229.216 202.812 229.707 203.264 229.762C203.627 229.805 204.025 229.567 204.743 229.137C204.799 229.103 204.858 229.068 204.918 229.032C206.86 227.871 208.971 227.243 211.302 227.139C209.993 226.792 208.184 226.533 206.947 227.058C204.875 227.936 203.84 227.643 201.325 225.01C199.24 222.828 197.867 217.732 197.458 215.218ZM222.692 203.652C223.008 206.08 223.805 208.671 225.114 211.296C225.282 211.631 225.432 211.936 225.569 212.213C226.405 213.908 226.733 214.573 227.238 214.751C227.563 214.866 227.961 214.777 228.617 214.633C228.783 214.595 228.966 214.555 229.168 214.513C230.749 214.188 231.62 214.153 232.704 214.374C232.988 214.432 233.246 214.486 233.482 214.535C233.486 214.536 233.489 214.536 233.492 214.537C233.259 213.97 231.775 213.505 230.263 213.031C228.817 212.578 227.345 212.117 226.92 211.551C225.057 209.069 223.584 206.569 222.692 203.652ZM236.385 191.415C236.592 192.07 236.698 192.911 236.741 193.961C236.98 199.808 238.047 203.557 240.579 207.461C241.468 208.832 241.505 208.889 240.27 209.924C235.934 203.836 235.533 196.687 236.385 191.415ZM194.555 244.417C194.356 244.369 194.185 244.685 194.075 245.489C193.187 251.926 189.114 251.619 183.718 247.099C178.425 242.665 176.749 236.135 176.111 231.944C175.793 238.122 178.511 244.818 184.661 248.946C187.48 250.84 195.527 254.178 195.527 253.455C195.527 253.41 195.261 252.344 194.935 251.086C194.394 248.996 194.285 246.696 194.555 244.417ZM198.099 235.179C198.211 235.029 198.326 234.882 198.443 234.738C199.368 233.604 199.368 233.604 197.047 231.181C193.609 227.589 191.747 223.727 191.234 219.122C191.223 219.022 191.213 218.927 191.203 218.836C191.395 225.846 194.954 232.06 198.099 235.179Z" fill="#22110C"/>
<path d="M366.742 373.49C366.742 369.936 369.723 367.054 373.4 367.054C377.077 367.054 380.058 369.936 380.058 373.49C380.058 377.045 377.077 379.927 373.4 379.927C369.723 379.927 366.742 377.045 366.742 373.49Z" fill="#F1F1F1"/>
<path d="M134.453 373.49C134.453 369.936 137.434 367.054 141.111 367.054C144.788 367.054 147.769 369.936 147.769 373.49C147.769 377.045 144.788 379.927 141.111 379.927C137.434 379.927 134.453 377.045 134.453 373.49Z" fill="#F1F1F1"/>
<path d="M152.206 379.342C152.206 378.371 151.345 377.587 150.283 377.587C149.22 377.587 148.359 378.371 148.359 379.342C148.359 380.31 149.22 381.098 150.283 381.098C151.345 381.098 152.206 380.31 152.206 379.342Z" fill="#F1F1F1"/>
</g>
</svg>
