<svg xmlns="http://www.w3.org/2000/svg" width="24" height="24" viewBox="80 78 350 350" fill="currentColor" fill-rule="evenodd">
<path d="M136.591248,366.118713 C136.503494,364.359558 136.168472,362.113495 137.126923,361.136932 C153.304688,344.653931 169.604568,328.289978 185.964066,311.986603 C193.355225,304.620789 201.032425,297.541626 208.409454,290.162079 C221.366898,277.200134 234.193253,264.107178 247.309311,250.831421 C238.959366,242.531784 231.075653,234.660492 223.152115,226.829498 C215.046722,218.818832 206.856934,210.893173 198.787445,202.846695 C190.283081,194.366638 181.902634,185.762451 173.421860,177.258560 C163.269211,167.078247 153.070984,156.943344 142.884262,146.797058 C141.014038,144.934265 138.842148,143.299347 137.325943,141.188324 C136.590500,140.164383 137.049469,138.282547 136.967697,136.789108 C138.284943,136.987808 139.998596,136.730362 140.847412,137.468048 C143.758057,139.997620 146.352493,142.889160 149.090622,145.619476 C169.145264,165.616867 189.244186,185.570038 209.250671,205.615463 C222.992813,219.384338 236.609055,233.278854 250.584793,247.424103 C259.092163,239.163345 267.245667,231.398453 275.228912,223.462265 C291.204498,207.580887 307.106110,191.624969 323.001465,175.663223 C335.716675,162.894928 348.341827,150.036499 361.142090,137.354462 C362.001312,136.503189 364.002167,136.804199 365.472046,136.569275 C365.375092,138.029510 365.869263,140.070068 365.091675,140.862076 C354.999542,151.141586 344.683533,161.200607 334.513336,171.404297 C326.380402,179.564056 318.459320,187.936020 310.279755,196.047989 C301.653687,204.602814 292.724243,212.852448 284.125336,221.433792 C274.267365,231.271591 264.627045,241.327484 255.007965,251.170135 C269.222900,265.395508 283.169586,279.393188 297.161987,293.345093 C316.070587,312.199005 335.016998,331.014984 353.940704,349.853790 C357.560669,353.457520 361.289673,356.968445 364.668518,360.787415 C365.665222,361.914001 365.633209,363.950745 366.072632,365.570374 C364.370941,365.227234 362.112823,365.464447 361.054779,364.449951 C351.850403,355.625092 342.838287,346.598755 333.812988,337.588257 C316.925537,320.728424 300.054840,303.851807 283.202393,286.957031 C273.818146,277.549194 264.411591,268.161407 255.173523,258.611328 C252.441238,255.786804 250.525787,255.298813 247.503113,258.392487 C234.814499,271.379059 221.939865,284.184998 209.060532,296.983826 C193.771622,312.177155 178.362457,327.249634 163.095932,342.465332 C155.577408,349.958832 148.308655,357.702972 140.789948,365.196289 C139.976089,366.007446 138.249237,365.902557 136.591248,366.118713 z"/>
<path d="M111.025421,262.545593 C106.391167,262.268982 102.184341,262.268982 97.736908,262.268982 C97.736908,272.462830 97.736908,281.583191 97.736908,291.229614 C96.022469,291.388702 94.462196,291.533508 92.789871,291.688690 C92.789871,264.487854 92.789871,237.552887 92.789871,210.212845 C105.746895,210.212845 118.195496,209.971130 130.629700,210.290115 C140.392807,210.540604 150.035461,218.353943 153.102036,227.688568 C156.687515,238.602798 154.125565,249.681137 145.733109,256.167023 C142.043945,259.018097 137.381165,260.609406 132.670609,263.023743 C139.696793,272.118286 146.853226,281.381409 154.048843,290.695282 C150.564774,292.769409 148.944580,291.667358 146.940536,288.876587 C140.981598,280.578247 134.606918,272.572388 128.206177,264.603699 C127.221664,263.377991 125.263023,262.327179 123.719147,262.276123 C119.640862,262.141205 115.542953,262.599823 111.025421,262.545593 M149.976669,240.011047 C149.973557,238.180374 149.990768,236.349396 149.963943,234.519073 C149.831360,225.474030 141.394760,215.821991 132.424606,215.476410 C120.966293,215.034973 109.478111,215.369324 97.812225,215.369324 C97.812225,229.772659 97.812225,243.764496 97.812225,258.011047 C107.296539,258.011047 116.430382,257.987122 125.564049,258.017365 C136.034332,258.052002 146.938644,253.669418 149.976669,240.011047 z"/>
<path d="M226.044403,114.651733 C226.042480,107.332458 226.042480,100.491539 226.042480,93.185150 C234.745697,93.185150 243.117447,93.077942 251.484833,93.222786 C257.076691,93.319588 262.811707,93.072021 268.218628,94.221062 C278.393829,96.383408 287.127594,106.304459 287.819885,115.269440 C288.927094,129.608841 283.785034,140.012589 272.383148,144.366302 C267.583527,146.199005 262.095551,146.652069 256.882690,146.884506 C248.098587,147.276184 239.284332,146.991867 230.939133,146.991867 C230.939133,155.604919 231.047379,163.827545 230.820450,172.040924 C230.787048,173.249786 229.163879,174.414719 228.276260,175.599991 C227.530365,174.595551 226.146027,173.598160 226.134842,172.585602 C225.980255,158.581299 226.009171,144.574936 226.004684,130.569061 C226.003052,125.422745 226.031570,120.276421 226.044403,114.651733 M230.808380,131.466873 C230.808380,134.877945 230.808380,138.289017 230.808380,141.686020 C231.186966,141.809799 231.496902,141.998795 231.807556,141.999969 C241.468872,142.036697 251.147217,142.425156 260.787415,141.983704 C273.162048,141.417084 281.707153,136.253067 283.280060,122.664124 C284.579651,111.436897 277.078796,99.156494 266.624969,98.271767 C254.951920,97.283836 243.130829,98.045151 230.423721,98.045151 C230.423721,108.777367 230.423721,119.655609 230.808380,131.466873 z"/>
<path d="M409.151611,217.972809 C411.098236,214.738968 410.664246,209.475830 417.120056,210.570221 C413.682526,218.367630 410.515320,225.752197 407.186584,233.063248 C398.583160,251.959427 389.932983,270.834564 381.186157,289.664551 C380.771301,290.557648 379.054108,291.620148 378.282288,291.402435 C376.922455,291.018860 375.317261,289.961945 374.703735,288.740479 C371.913055,283.184326 369.449890,277.464417 366.836487,271.818390 C361.076538,259.374695 355.239532,246.966248 349.547058,234.491806 C346.097839,226.933197 342.860199,219.278015 339.438721,211.463470 C342.565369,208.828094 344.264008,210.784348 345.556030,213.632843 C349.052490,221.341492 352.459564,229.090698 355.948608,236.802734 C362.482880,251.245804 369.039429,265.678864 375.623657,280.099182 C376.152252,281.256927 376.965546,282.284637 378.338867,284.479004 C388.824127,261.879608 398.925690,240.107224 409.151611,217.972809 z"/>
<path d="M277.877625,339.766357 C273.396118,339.796997 269.399353,339.836517 265.402527,339.851501 C261.578033,339.865814 257.753479,339.854614 253.790543,339.854614 C253.790543,356.683685 253.858093,373.504547 253.755447,390.324371 C253.717316,396.572937 253.384369,402.826569 252.938416,409.060150 C252.848129,410.322266 251.643616,411.504700 250.952774,412.723846 C250.385300,412.534363 249.817810,412.344910 249.250336,412.155457 C249.250336,388.169647 249.250336,364.183838 249.250336,339.850891 C238.273026,339.850891 228.004761,339.850891 217.347549,339.850891 C217.248474,338.309692 217.170349,337.094299 217.056152,335.317719 C228.639465,335.317719 239.908295,335.315765 251.177139,335.318298 C260.956665,335.320496 270.741852,335.518829 280.512634,335.228943 C283.922455,335.127777 285.713013,335.494751 284.682373,339.764496 C282.612762,339.764496 280.487549,339.764496 277.877625,339.766357 z"/>
</svg>
