<svg width="24" height="24" viewBox="0 0 40 40" xmlns="http://www.w3.org/2000/svg" fill="none">
  <path transform="translate(5.4525, 4)" fill="currentColor" fill-rule="nonzero" d="M 23.899 26.311 L 25.051 25.18 L 25.051 22.246 L 29.095 22.246 L 29.095 19.984 L 25.051 19.984 L 25.051 17.131 L 29.095 17.131 L 29.095 14.87 L 25.051 14.87 L 25.051 12.017 L 29.095 12.017 L 29.095 9.755 L 25.051 9.755 L 25.051 6.821 L 23.899 5.69 L 20.91 5.69 L 20.91 3.116 L 18.606 1.81 L 18.606 5.689 L 15.699 5.689 L 15.699 0.163 L 15.412 0 L 13.684 0 L 13.396 0.163 L 13.396 5.689 L 10.489 5.689 L 10.489 1.81 L 8.186 3.116 L 8.186 5.69 L 5.196 5.69 L 4.044 6.821 L 4.044 9.755 L 0 9.755 L 0 12.017 L 4.044 12.017 L 4.044 14.87 L 0 14.87 L 0 17.131 L 4.044 17.131 L 4.044 19.984 L 0 19.984 L 0 22.246 L 4.044 22.246 L 4.044 25.18 L 5.196 26.311 L 8.186 26.311 L 8.186 28.884 L 10.489 30.19 L 10.489 26.311 L 13.396 26.311 L 13.396 31.837 L 13.684 32 L 15.412 32 L 15.699 31.837 L 15.699 26.311 L 18.606 26.311 L 18.606 30.19 L 20.91 28.884 L 20.91 26.311 L 23.899 26.311 Z M 6.348 24.049 L 6.348 7.951 L 22.747 7.951 L 22.747 24.048 L 6.348 24.049 Z M 17.986 9.729 L 20.889 9.729 L 11.105 22.27 L 8.202 22.27 L 17.986 9.729 Z"/>
</svg>
