<?xml version="1.0" encoding="UTF-8" standalone="no"?>
<svg
   version="1.1"
   id="Layer_1"
   x="0px"
   y="0px"
   width="100%"
   viewBox="0 0 480 480"
   enable-background="new 0 0 480 480"
   xml:space="preserve"
   sodipodi:docname="agnes.svg"
   inkscape:version="1.4.3 (0d15f75042, 2025-12-25)"
   xmlns:inkscape="http://www.inkscape.org/namespaces/inkscape"
   xmlns:sodipodi="http://sodipodi.sourceforge.net/DTD/sodipodi-0.dtd"
   xmlns="http://www.w3.org/2000/svg"
   xmlns:svg="http://www.w3.org/2000/svg"><defs
   id="defs169" /><sodipodi:namedview
   id="namedview169"
   pagecolor="#ffffff"
   bordercolor="#000000"
   borderopacity="0.25"
   inkscape:showpageshadow="2"
   inkscape:pageopacity="0.0"
   inkscape:pagecheckerboard="0"
   inkscape:deskcolor="#d1d1d1"
   inkscape:zoom="1.75"
   inkscape:cx="239.71429"
   inkscape:cy="240"
   inkscape:window-width="1920"
   inkscape:window-height="1052"
   inkscape:window-x="0"
   inkscape:window-y="0"
   inkscape:window-maximized="1"
   inkscape:current-layer="layer2" />









































































































































































<g
   inkscape:groupmode="layer"
   id="layer2"
   inkscape:label="Layer 1"><path
     fill="#FDFCFE"
     opacity="1.000000"
     stroke="none"
     d=" M97.038055,391.237396   C96.275009,391.133026 95.511963,391.028656 94.369476,391.006104   C87.673592,392.202911 82.480705,388.643158 76.463837,386.940491   C76.092041,386.916138 76.031914,386.941711 75.962128,386.743530   C75.653816,386.315277 75.370590,386.223969 75.042664,386.271454   C75.042664,386.271454 74.723679,385.923279 74.340317,385.714478   C73.647209,385.398621 73.337456,385.291595 73.027702,385.184540   C73.027702,385.184540 72.860397,384.885925 72.515045,384.647278   C71.801353,384.254333 71.433014,384.100037 71.064682,383.945679   C68.314339,380.927063 65.563995,377.908478 62.538921,374.677002   C60.305878,369.846283 58.347557,365.228455 56.208759,360.291351   C55.417557,355.576233 54.806839,351.180389 54.142387,346.055054   C54.013325,344.900757 53.937996,344.475952 53.862663,344.051117   C53.907356,342.940552 53.952049,341.829987 53.971016,340.057709   C53.877312,338.850189 53.809338,338.304382 53.741360,337.758575   C53.741360,337.758575 53.878239,337.635040 53.836739,337.552490   C54.864254,328.246094 55.933270,319.022247 56.976761,309.395874   C57.056770,308.568176 57.162304,308.142914 57.426781,307.073578   C58.168987,303.651581 58.752251,300.873688 59.335510,298.095795   C59.957329,295.976990 60.579151,293.858154 61.140854,291.362366   C61.508884,290.688141 61.937031,290.390900 62.784065,290.382751   C65.873894,295.110626 68.544838,299.549469 71.304588,304.307068   C77.902847,314.162933 85.911194,321.895447 97.327759,326.106323   C106.500908,329.883942 115.647148,330.467590 125.356003,328.994446   C128.940262,328.327026 132.229477,327.824097 135.379379,326.864075   C161.172394,319.002838 182.593384,303.914307 202.620850,285.932587   C204.157745,284.449127 205.450043,283.176483 206.731384,281.892914   C219.306396,269.296112 231.879593,256.697479 244.636200,244.046387   C245.052628,243.826416 245.142365,243.601929 245.354980,243.165985   C246.090027,242.352112 246.558334,241.692200 247.014252,241.016449   C247.001831,241.000610 247.023499,241.030853 247.256531,240.942169   C247.790131,240.656448 247.953278,240.378693 248.219528,239.891632   C248.637161,239.453018 248.814209,239.143021 249.154877,238.764618   C249.515289,238.541061 249.628799,238.339066 249.949768,237.890961   C257.500885,228.624771 265.116211,219.814957 271.922028,210.418793   C278.751923,200.989410 284.774780,190.975510 291.123779,181.191498   C291.096222,181.165192 291.086975,181.240616 291.373291,181.131882   C291.794067,180.671844 291.928558,180.320541 292.139587,179.839722   C292.216125,179.710205 292.090240,179.436935 292.389709,179.290222   C292.931366,178.785522 293.173523,178.427521 293.605347,177.960663   C294.002075,177.611435 294.068817,177.336929 294.170654,176.919739   C294.552063,176.606964 294.660706,176.359955 294.919708,175.806229   C296.920349,172.402908 298.673187,169.263474 300.686279,165.934479   C310.534637,152.309616 324.557861,147.097092 340.068359,144.633179   C346.042236,143.684204 351.218414,144.928513 355.034576,149.990295   C355.488983,150.864365 355.943390,151.738434 356.601074,153.283707   C356.212250,160.965958 355.620178,167.977005 354.870972,175.331833   C354.720612,176.421341 354.727325,177.167084 354.536957,178.203705   C354.225220,179.654449 354.110535,180.814316 353.851929,182.317429   C353.723328,183.395416 353.738678,184.130142 353.753998,184.864883   C352.136414,194.956604 350.518829,205.048309 348.957275,215.552765   C348.251495,222.812592 347.504364,229.661377 346.716705,236.505508   C346.535797,238.077423 346.215454,239.633286 345.950256,241.951630   C345.893616,243.680237 345.845947,244.653732 345.798248,245.627243   C345.033112,248.227997 344.267975,250.828735 343.521301,253.809158   C341.994293,264.688965 340.327606,275.173279 338.958832,285.696381   C338.352234,290.359711 340.852814,293.091522 345.552643,293.011169   C349.524200,292.943329 353.485474,292.272919 357.786926,291.691315   C365.733154,289.597931 373.343719,287.682404 381.243408,285.502502   C381.532501,285.238098 381.550751,285.106476 381.678040,285.286163   C382.169708,285.543640 382.534088,285.621429 382.898438,285.699219   C386.823242,288.428680 383.585876,291.047638 382.730316,294.040161   C381.137573,296.550690 379.589417,298.725006 377.638123,301.384827   C370.146759,311.140015 360.340668,316.584900 349.644196,321.300171   C347.436829,322.439972 345.559692,323.521027 343.653198,324.611725   C343.623810,324.621399 343.607117,324.680939 343.295441,324.786530   C334.218964,331.374756 335.072845,344.025543 339.050751,356.941437   C338.676697,359.028534 338.302643,361.115662 337.932037,363.952148   C337.249969,366.718781 336.564453,368.736084 335.546661,370.829773   C334.649780,371.581238 334.085144,372.256317 333.309753,373.056885   C333.099030,373.182404 332.950775,373.650055 332.684998,373.780457   C330.809143,375.549713 329.199036,377.188507 327.402374,378.839966   C327.215790,378.852631 326.983093,379.145447 326.617981,379.236053   C322.172760,379.529877 318.092682,379.733063 313.936218,379.828735   C313.859833,379.721252 313.607544,379.798096 313.396790,379.504791   C308.949280,376.440033 307.261108,372.458130 306.849030,367.465912   C305.656982,353.025085 303.489624,338.786621 296.031982,325.593658   C293.086395,320.947693 290.174622,316.650024 287.147125,312.059937   C283.631348,308.591980 280.012360,305.611816 276.927734,302.154816   C275.484619,300.537506 275.073853,297.999023 274.506775,295.665588   C276.630951,294.908081 278.414825,294.047150 280.261688,293.879150   C285.137970,293.435638 290.041565,293.292664 295.328522,293.078308   C304.888184,291.155060 310.462036,285.438843 312.888000,276.527618   C313.432770,274.526520 313.727844,272.451172 314.045685,270.395782   C314.781525,265.636932 315.460968,260.869354 316.122070,256.088379   C316.080841,256.071411 316.113678,256.154297 316.406281,256.021362   C316.778290,254.273972 316.857727,252.659470 317.130798,250.725449   C317.918701,248.743576 318.722900,247.123596 319.068390,245.411057   C320.161011,239.995224 321.082001,234.544769 322.239136,228.800262   C322.580963,227.342499 322.753052,226.192169 323.040710,224.848816   C323.156219,224.655792 323.092438,224.210449 323.251373,223.858856   C325.894440,211.561310 328.378571,199.615356 330.862701,187.669403   C330.466553,187.582306 330.070404,187.495193 329.674225,187.408096   C321.465088,201.932144 313.255920,216.456192 304.808350,231.212952   C304.136627,232.213440 303.703308,232.981201 303.056458,233.924713   C302.292633,235.056290 301.742340,236.012115 300.971191,237.240234   C286.477386,257.854187 272.204346,278.195892 257.630066,298.733948   C251.505722,305.835449 245.682663,312.740570 239.544952,319.785400   C230.031067,328.826447 220.831863,337.727722 211.619507,346.638123   C211.606354,346.647278 211.585693,346.670258 211.400314,346.726074   C211.214935,346.781921 211.041916,347.128357 210.746063,347.275177   C201.854904,353.890198 193.259583,360.358368 184.332031,366.891113   C174.962753,371.849121 165.925674,376.742554 156.505249,381.680664   C154.502014,382.431885 152.934891,383.314911 151.254028,383.817627   C133.571548,389.106232 115.652565,392.732666 97.038055,391.237396  z"
     id="path85"
     style="fill:#000000" /><path
     fill="#FDFCFE"
     opacity="1.000000"
     stroke="none"
     d=" M364.123352,91.987221   C359.443207,110.595421 347.707977,118.947166 327.083435,117.839340   C324.517944,117.247879 322.756195,116.592934 320.736206,115.809647   C320.295013,115.622192 320.112030,115.563080 319.845245,115.515175   C319.761414,115.526382 319.911377,115.448128 319.707703,115.161179   C307.628693,107.993645 302.009613,97.669296 302.639282,83.592972   C303.990387,72.937851 309.630005,65.575829 317.994965,60.001099   C323.704742,58.638020 329.414551,57.274937 335.807129,55.990700   C336.659698,56.036655 336.829498,56.003757 336.999298,55.970863   C337.439545,56.047386 337.879791,56.123905 338.946716,56.286266   C340.010773,56.444977 340.448120,56.517849 340.885468,56.590721   C341.045532,56.852020 341.278687,56.988472 341.789337,56.953735   C347.482056,60.727261 352.970337,64.547127 358.766754,68.566635   C359.074860,68.766273 359.088379,68.763344 359.101227,68.860596   C360.863098,73.538605 362.612122,78.119370 364.466675,83.432411   C364.422577,86.772202 364.272980,89.379707 364.123352,91.987221  z"
     id="path88"
     style="fill:#000000" /></g></svg>
