<svg width="24" height="24" viewBox="0 0 1058 1058" fill="none" xmlns="http://www.w3.org/2000/svg">
<mask id="mask0_1_7" style="mask-type:luminance" maskUnits="userSpaceOnUse" x="0" y="0" width="1058" height="1058">
<path d="M340.59 889.64C437.09 882.58 536.85 853.86 629.08 806.6C722.33 758.79 803.59 694.14 864.22 619.41C903.52 569.67 950.62 493.2 963.98 400.57C964.81 401.72 965.64 402.9 966.47 404.07C977.94 444.06 984.1 486.3 984.1 529.98C984.1 781.71 780.04 985.76 528.32 985.76C422.41 985.76 324.94 949.63 247.55 889.03C262.34 890.37 277.94 891.04 294.87 891.04C309.09 891.04 324.24 890.57 340.59 889.64ZM253.19 535.1C207.03 523.29 166.33 482.99 149.6 432.78C142.53 410.32 141.59 384.6 146.75 356.55C155.77 310.45 179.14 263.43 214.34 220.57L214.85 219.93C296.2 112.41 437.75 48.22 593.48 48.22C625.6 48.22 657.18 50.94 687.98 56.34C573.19 66.98 454.87 117.51 335.95 206.74C330.9 210.52 327.65 216.29 327.05 222.57C326.44 228.86 328.52 235.15 332.78 239.85C371.58 282.63 410.4 329.44 454.91 387.13C462.32 396.75 475.88 398.77 485.82 391.69C575.53 327.4 653.36 279.82 728.73 243.3C725.38 281.96 673.67 341.82 619.64 387.08C533.27 457.78 429.24 531.32 312.57 540.72L308.01 541.1C305.57 541.21 303.1 541.27 300.61 541.27C285.58 541.27 269.65 539.21 253.19 535.11M0 528.66C0 820.63 236.69 1057.32 528.66 1057.32C820.63 1057.32 1057.32 820.63 1057.32 528.66C1057.32 236.69 820.63 0 528.66 0C236.69 0 0 236.69 0 528.66Z" fill="white"/>
</mask>
<g mask="url(#mask0_1_7)">
<path d="M1057.32 -0.0100098H0V1057.31H1057.32V-0.0100098Z" fill="url(#paint0_linear_1_7)"/>
</g>
<defs>
<linearGradient id="paint0_linear_1_7" x1="-251.438" y1="352.612" x2="1702.79" y2="352.612" gradientUnits="userSpaceOnUse">
<stop stop-color="white"/>
<stop stop-color="white"/>
<stop stop-color="white"/>
<stop stop-color="white"/>
</linearGradient>
</defs>
</svg>
