<svg width="24" height="24" viewBox="0 0 180 180" xmlns="http://www.w3.org/2000/svg">
<path d="M61.5209 148.425C49.4581 142.54 39.6596 133.244 33.1764 121.543C26.8431 110.109 24.1068 97.2109 25.2558 84.2423C25.5159 81.3361 28.0762 79.1905 30.9836 79.4471C33.8856 79.7057 36.0346 82.2683 35.7782 85.1763C34.8155 96.0389 37.1115 106.846 42.4182 116.428C46.987 124.677 53.5309 131.5 61.5182 136.391L86.361 85.4436C76.637 82.205 68.5376 83.6148 67.8087 83.7564C67.7017 83.7811 67.5984 83.7984 67.4932 83.8195C65.0719 84.2249 62.7299 82.9015 61.787 80.7012C60.4859 78.2719 56.5795 72.3341 51.8514 70.0276C47.1234 67.7211 39.8368 68.4651 37.491 68.9751C35.5133 69.407 33.455 68.6696 32.2057 67.0792C30.9565 65.4889 30.717 63.3199 31.6037 61.5014C47.303 29.2871 86.2909 15.8608 118.5 31.5738C150.709 47.2868 164.121 86.2447 148.449 118.45C148.433 118.483 148.417 118.515 148.399 118.552C132.672 150.73 93.7153 164.131 61.5209 148.425ZM95.8499 90.0727L71.0089 141.016C96.0809 150.382 124.611 139.976 137.657 116.326C135.823 113.488 132.606 109.419 128.882 107.602C124.07 105.254 117.019 106.023 114.597 106.532C114.199 106.627 113.801 106.673 113.402 106.677C112.686 106.68 111.96 106.538 111.263 106.234C110.54 105.918 109.887 105.441 109.359 104.827C109.058 104.472 108.809 104.084 108.608 103.669C108.453 103.358 104.6 95.8829 95.8463 90.0709L95.8499 90.0727ZM56.4791 60.528C60.5244 62.5015 63.8164 65.6398 66.2782 68.5992C73.8912 56.9534 84.223 48.1572 92.204 42.4858C95.1698 40.3798 98.2405 38.4108 101.198 36.7118C80.4243 32.35 58.6527 40.5828 46.0291 57.9162C49.3705 58.145 53.0581 58.8591 56.4791 60.528ZM125.106 48.38C125.588 51.7567 125.929 55.3856 126.094 59.0236C126.539 68.7785 125.975 82.2901 121.52 95.4311C125.236 95.5308 129.557 96.1879 133.511 98.1168C137.042 99.8391 140.001 102.445 142.331 105.046C148.278 84.3874 141.367 62.0985 125.104 48.3836L125.106 48.38ZM95.8863 77.9491C103.192 81.5131 108.473 86.2544 112.052 90.3421C117.875 71.4221 115.336 50.2495 113.217 42.4081C105.734 45.5652 87.4875 56.5979 76.1702 72.8373C81.5996 73.14 88.5844 74.3868 95.8863 77.9491Z" fill="currentColor"/>
</svg>
