<svg version="1.0" xmlns="http://www.w3.org/2000/svg"
 viewBox="0 0 510.026402 274.871565"
 preserveAspectRatio="xMidYMid meet">

<g transform="translate(-1.000000,275.586611) scale(0.100000,-0.100000)"
fill="currentColor" stroke="none">
<path d="M2420 2750 c-163 -20 -354 -77 -494 -147 -145 -72 -236 -142 -398
-304 -134 -134 -168 -163 -230 -193 -87 -43 -191 -61 -298 -53 -41 4 -145 17
-230 31 -257 42 -408 58 -550 58 -102 1 -144 -3 -172 -15 -31 -13 -38 -21 -38
-44 0 -20 11 -40 38 -65 48 -47 185 -133 331 -207 264 -134 811 -361 1326
-551 319 -118 972 -335 1320 -440 705 -213 1355 -371 1704 -415 164 -21 315
-17 354 8 41 27 36 62 -16 112 -93 89 -284 201 -639 374 -172 84 -214 109
-272 162 -37 34 -79 79 -92 100 -36 58 -61 146 -69 244 -21 270 -101 507 -246
727 -79 119 -263 303 -379 379 -167 110 -337 182 -521 219 -116 24 -319 33
-429 20z m458 -204 c312 -81 585 -273 747 -525 23 -37 57 -94 74 -129 36 -72
101 -260 100 -288 0 -11 -9 8 -19 41 -64 213 -164 381 -324 541 -101 102 -210
181 -334 243 -101 51 -257 98 -382 117 -191 28 -404 7 -590 -56 -78 -27 -209
-91 -267 -132 -24 -16 -43 -27 -43 -24 0 10 115 83 188 120 40 20 112 50 161
66 145 49 226 60 416 56 146 -2 184 -7 273 -30z m-160 -96 c165 -21 343 -88
492 -185 90 -59 240 -206 299 -294 63 -92 126 -231 157 -346 27 -96 28 -110
28 -340 1 -275 3 -281 86 -359 27 -26 43 -46 35 -46 -39 0 -171 32 -184 44
-12 13 -13 27 -4 83 6 37 9 69 8 71 -1 1 -12 -24 -24 -55 -12 -32 -28 -67 -36
-77 -15 -19 -17 -19 -127 8 -163 40 -594 165 -798 231 -391 127 -724 247 -967
350 -111 46 -113 48 -113 79 0 18 7 55 15 81 8 27 12 51 10 53 -2 2 -15 -18
-28 -45 -14 -26 -34 -57 -46 -67 -22 -20 -22 -20 -112 25 l-91 44 62 7 c34 4
81 17 106 28 51 25 87 68 170 200 66 106 176 228 274 302 36 27 110 72 165 99
200 98 412 135 623 109z m-1938 -454 c227 -39 271 -48 267 -52 -1 -2 -79 8
-173 22 -93 13 -219 26 -281 27 -92 2 -115 -1 -129 -14 -12 -13 -14 -21 -5
-37 35 -65 381 -239 871 -437 745 -302 1643 -594 2429 -790 503 -125 822 -176
914 -146 30 10 37 17 37 39 0 18 -15 41 -52 75 -55 54 -54 54 37 -6 121 -80
154 -131 100 -155 -36 -17 -204 -15 -337 4 -247 34 -682 136 -1153 269 -1111
315 -2312 764 -2799 1048 -82 47 -156 112 -156 137 0 20 16 35 45 43 40 12
244 -3 385 -27z m223 -226 c13 -15 8 -12 -12 6 -23 22 -31 36 -25 45 7 11 9 9
12 -6 2 -11 14 -31 25 -45z m3374 -977 c35 -24 67 -52 73 -63 8 -15 6 -22 -12
-34 -12 -9 -32 -16 -43 -15 -19 0 -19 1 1 9 12 5 25 13 28 19 11 17 -52 78
-130 127 -41 25 -74 48 -74 51 0 8 88 -45 157 -94z"/>
<path d="M1364 1125 c13 -169 52 -309 126 -457 111 -221 307 -416 535 -530 97
-49 203 -86 315 -110 71 -15 132 -21 240 -21 111 0 169 5 248 22 245 52 435
152 598 317 34 34 76 83 94 109 l33 48 -65 -55 c-36 -30 -93 -74 -126 -97
-136 -92 -324 -169 -481 -196 -109 -19 -311 -19 -431 0 -125 21 -281 74 -401
136 -195 102 -351 244 -476 431 -76 114 -132 238 -170 376 -15 53 -31 102 -36
107 -6 6 -7 -24 -3 -80z"/>
</g>
</svg>
