<svg xmlns="http://www.w3.org/2000/svg" viewBox="-12 -28 400 400" fill="currentColor">
  <path fill="none" stroke="currentColor" stroke-width="22" d="M48.1,104h54.8" />
  <path fill="none" stroke="currentColor" stroke-width="22" d="M35.6,231.8l40.2-40.1" />
  <path fill="none" stroke="currentColor" stroke-width="22" d="M82,304.7l35.9-42.4" />
  <circle fill="currentColor" cx="120.8" cy="103.7" r="26" />
  <circle fill="currentColor" cx="87.9" cy="180.1" r="26" />
  <circle fill="currentColor" cx="126.6" cy="252.6" r="26" />

  <path
    fill="none"
    stroke="currentColor"
    stroke-width="30"
    d="M153.1,10.2c13.9-1.8,26.2,9,26.2,23v272.7c0,4-.8,8-2.3,11.7-3.4,8.3-10.4,14.7-18.9,17.4l-1.9.6c-4.4,1.4-8.9,1.9-13.5,1.5l-16.7-1.4c-9.1-.8-17.7-4.4-24.6-10.4l-50.3-44.2c-7.1-6.2-11.2-15.2-11.2-24.7v-9.1c0-3.9-1.5-7.7-4.2-10.6l-14.2-15.2c-7.4-7.9-11.5-18.3-11.5-29.1v-34.7c0-11.8,4.9-23.1,13.6-31.2l18.4-17.1s1.8-1.2,2-1.9-.2-2.8-.2-2.8l-.8-11.7c-.8-11.5,4.4-22.5,13.8-29.2l62.9-44.7c1.6-1.1,3.4-2.1,5.2-2.8l5.2-2c3.1-1.2,6.4-2,9.6-2.4l9.4-1.2h0l3.9-.5h0Z"
  />

  <g fill="currentColor" stroke="currentColor">
    <path stroke-miterlimit="10" d="M243,45.3v5.3h14.6v-5.3h-14.6ZM257.6,15.3c0-2.9-3.3-5.3-7.3-5.3s-7.3,2.4-7.3,5.3h14.6ZM250.3,45.3h7.3V15.3h-14.6v30s7.3,0,7.3,0Z" />
    <path stroke-miterlimit="10" d="M243,118v-9.3h14.6v9.3h-14.6ZM257.6,174.3c0,3.2-3.3,5.7-7.3,5.7s-7.3-2.6-7.3-5.7h14.6ZM250.3,118h7.3v56.3h-14.6v-56.3h7.3Z" />
    <rect fill="none" stroke-width="32" x="227" y="50.6" width="46.1" height="61.9" rx="8" ry="8" />
  </g>

  <g fill="currentColor" stroke="currentColor">
    <path stroke-miterlimit="10" d="M316.4,97.8v5.3h15.5v-5.3h-15.5ZM331.9,67.8c0-2.9-3.5-5.3-7.8-5.3s-7.8,2.4-7.8,5.3h15.5ZM324.1,136.6h7.8V57h-15.5v79.6h7.8Z" />
    <path stroke-miterlimit="10" d="M316.4,221.1v-9.4h15.5v9.4h-15.5ZM331.9,277.4c0,3.2-3.5,5.7-7.8,5.7s-7.8-2.6-7.8-5.7h15.5ZM324.1,221.1h7.8v73.3h-15.5v-73.3h7.8Z" />
    <rect fill="none" stroke-width="24" x="298" y="126.9" width="50.5" height="96.2" rx="8" ry="8" />
  </g>

  <g fill="currentColor" stroke="currentColor">
    <path stroke-miterlimit="10" d="M266.4,253.8v5.3h15.3v-5.3h-15.3ZM281.6,211.8c0-2.9-3.4-5.3-7.6-5.3s-7.6,2.4-7.6,5.3h15.3ZM274,253.8h7.6v-42h-15.3v42h7.6,0Z" />
    <rect fill="none" stroke-width="32" x="250.4" y="258.2" width="46.7" height="44.7" rx="8" ry="8" />
    <path stroke-miterlimit="10" d="M266.4,306.9v-3.9h15.3v3.9h-15.3ZM281.6,330.2c0,1.3-3.4,2.4-7.6,2.4s-7.6-1.1-7.6-2.4h15.3ZM274,306.9h7.6v23.4h-15.3v-23.4h7.6,0Z" />
  </g>

  <path
    fill="none"
    stroke="currentColor"
    stroke-width="30"
    d="M236.5,10.2c-13.9-1.8-26.2,9-26.2,23v272.7c0,4,.8,8,2.3,11.7,3.4,8.3,10.4,14.7,18.9,17.4l1.9.6c4.4,1.4,8.9,1.9,13.5,1.5l16.7-1.4c9.1-.8,17.7-4.4,24.5-10.4l50.3-44.2c7.1-6.2,11.2-15.2,11.2-24.7v-9.1c0-3.9,1.5-7.7,4.2-10.6l14.2-15.2c7.4-7.9,11.5-18.3,11.5-29.1v-34.7c0-11.8-4.9-23.1-13.6-31.2l-15-13.9c-3.4-3.2-5.8-7.7-4.9-12.5l.5-7c.8-11.5-4.4-22.5-13.8-29.2l-62.9-44.7c-1.6-1.1-3.4-2.1-5.2-2.8l-5.2-2c-3.1-1.2-6.4-2-9.6-2.4l-9.4-1.2h0l-3.9-.5h0Z"
  />
</svg>
