<svg width="48" height="48" viewBox="0 0 48 48" fill="none" xmlns="http://www.w3.org/2000/svg">
<path d="M42.4927 3.5C44.1472 3.5 45.4991 3.91398 46.5006 4.78952C47.5154 5.63841 48 6.8575 48 8.38113V44.4524H41.9196L42.0347 10.4225L42.0309 10.2531C42.0271 10.1332 42.0109 10.0142 41.9805 9.89905C41.9719 9.86289 41.9576 9.82958 41.9376 9.79818C41.8796 9.76296 41.8196 9.73346 41.7568 9.70872C41.7092 9.69064 41.692 9.69064 41.6996 9.69064H41.6977C41.6797 9.6973 41.6616 9.70586 41.6463 9.71823C41.573 9.77438 41.5102 9.8429 41.4597 9.91904C41.2922 10.1531 41.156 10.4082 41.0551 10.6775L41.0532 10.6832L41.0504 10.6889L29.1941 39.7121C28.6191 41.132 27.9984 42.2826 27.3253 43.1524L27.3225 43.1562L27.3196 43.16C26.5761 44.0765 25.4394 44.5 24 44.5C22.5596 44.5 21.4106 44.0765 20.6318 43.1686L20.6261 43.16L20.6194 43.1524C19.9464 42.2826 19.3247 41.132 18.7497 39.7121L6.95058 10.687L6.94867 10.6832L6.94582 10.6775C6.8449 10.4082 6.70972 10.1531 6.54217 9.91904C6.49076 9.8429 6.42793 9.77438 6.35462 9.71823C6.33844 9.70586 6.32035 9.6973 6.30226 9.69064C6.24038 9.69064 6.17088 9.70967 6.0833 9.83244C6.00904 9.99041 5.9662 10.1836 5.9662 10.4225L6.0814 44.4524H0V8.38113C0 6.85941 0.464578 5.64031 1.44133 4.78952C2.44474 3.91398 3.79754 3.5 5.45117 3.5C6.31749 3.5 7.08671 3.61801 7.7474 3.86639C8.39381 4.10812 8.94883 4.45358 9.40674 4.90657C9.89893 5.31865 10.3054 5.83065 10.6272 6.43496C10.9471 7.03642 11.2365 7.65405 11.4954 8.28501L23.3517 37.254L23.3526 37.2568C23.4764 37.568 23.604 37.8773 23.7344 38.1856C23.8239 38.3351 23.9077 38.3655 24 38.3655C24.0343 38.3655 24.1104 38.3598 24.218 38.1714C24.358 37.9268 24.5008 37.6232 24.6474 37.2568L24.6493 37.254L36.5046 8.28597C37.0101 6.9698 37.6546 5.85159 38.4457 4.94274L38.4486 4.93893L38.4524 4.93512C39.3511 3.95109 40.7296 3.5 42.4927 3.5Z" fill="#1A2075"/>
</svg>
