<svg width="470" height="176" viewBox="0 0 470 176" fill="none" xmlns="http://www.w3.org/2000/svg">
  <path d="M244.833 70.16C244.833 74.64 243.753 78.84 241.593 82.76C239.513 86.68 236.193 89.84 231.633 92.24C227.153 94.64 221.473 95.84 214.593 95.84H200.553V128H183.753V44.24H214.593C221.073 44.24 226.593 45.36 231.153 47.6C235.713 49.84 239.113 52.92 241.353 56.84C243.673 60.76 244.833 65.2 244.833 70.16ZM213.873 82.28C218.513 82.28 221.953 81.24 224.193 79.16C226.433 77 227.553 74 227.553 70.16C227.553 62 222.993 57.92 213.873 57.92H200.553V82.28H213.873ZM249.44 94.52C249.44 87.8 250.76 81.84 253.4 76.64C256.12 71.44 259.76 67.44 264.32 64.64C268.96 61.84 274.12 60.44 279.8 60.44C284.76 60.44 289.08 61.44 292.76 63.44C296.52 65.44 299.52 67.96 301.76 71V61.52H318.68V128H301.76V118.28C299.6 121.4 296.6 124 292.76 126.08C289 128.08 284.64 129.08 279.68 129.08C274.08 129.08 268.96 127.64 264.32 124.76C259.76 121.88 256.12 117.84 253.4 112.64C250.76 107.36 249.44 101.32 249.44 94.52ZM301.76 94.76C301.76 90.68 300.96 87.2 299.36 84.32C297.76 81.36 295.6 79.12 292.88 77.6C290.16 76 287.24 75.2 284.12 75.2C281 75.2 278.12 75.96 275.48 77.48C272.84 79 270.68 81.24 269 84.2C267.4 87.08 266.6 90.52 266.6 94.52C266.6 98.52 267.4 102.04 269 105.08C270.68 108.04 272.84 110.32 275.48 111.92C278.2 113.52 281.08 114.32 284.12 114.32C287.24 114.32 290.16 113.56 292.88 112.04C295.6 110.44 297.76 108.2 299.36 105.32C300.96 102.36 301.76 98.84 301.76 94.76ZM327.769 94.52C327.769 87.8 329.089 81.84 331.729 76.64C334.449 71.44 338.089 67.44 342.649 64.64C347.289 61.84 352.449 60.44 358.129 60.44C363.089 60.44 367.409 61.44 371.089 63.44C374.849 65.44 377.849 67.96 380.089 71V61.52H397.009V128H380.089V118.28C377.929 121.4 374.929 124 371.089 126.08C367.329 128.08 362.969 129.08 358.009 129.08C352.409 129.08 347.289 127.64 342.649 124.76C338.089 121.88 334.449 117.84 331.729 112.64C329.089 107.36 327.769 101.32 327.769 94.52ZM380.089 94.76C380.089 90.68 379.289 87.2 377.689 84.32C376.089 81.36 373.929 79.12 371.209 77.6C368.489 76 365.569 75.2 362.449 75.2C359.329 75.2 356.449 75.96 353.809 77.48C351.169 79 349.009 81.24 347.329 84.2C345.729 87.08 344.929 90.52 344.929 94.52C344.929 98.52 345.729 102.04 347.329 105.08C349.009 108.04 351.169 110.32 353.809 111.92C356.529 113.52 359.409 114.32 362.449 114.32C365.569 114.32 368.489 113.56 371.209 112.04C373.929 110.44 376.089 108.2 377.689 105.32C379.289 102.36 380.089 98.84 380.089 94.76ZM435.857 129.08C430.417 129.08 425.537 128.12 421.217 126.2C416.897 124.2 413.457 121.52 410.897 118.16C408.417 114.8 407.057 111.08 406.817 107H423.737C424.057 109.56 425.297 111.68 427.457 113.36C429.697 115.04 432.457 115.88 435.737 115.88C438.937 115.88 441.417 115.24 443.177 113.96C445.017 112.68 445.937 111.04 445.937 109.04C445.937 106.88 444.817 105.28 442.577 104.24C440.417 103.12 436.937 101.92 432.137 100.64C427.177 99.44 423.097 98.2 419.897 96.92C416.777 95.64 414.057 93.68 411.737 91.04C409.497 88.4 408.377 84.84 408.377 80.36C408.377 76.68 409.417 73.32 411.497 70.28C413.657 67.24 416.697 64.84 420.617 63.08C424.617 61.32 429.297 60.44 434.657 60.44C442.577 60.44 448.897 62.44 453.617 66.44C458.337 70.36 460.937 75.68 461.417 82.4H445.337C445.097 79.76 443.977 77.68 441.977 76.16C440.057 74.56 437.457 73.76 434.177 73.76C431.137 73.76 428.777 74.32 427.097 75.44C425.497 76.56 424.697 78.12 424.697 80.12C424.697 82.36 425.817 84.08 428.057 85.28C430.297 86.4 433.777 87.56 438.497 88.76C443.297 89.96 447.257 91.2 450.377 92.48C453.497 93.76 456.177 95.76 458.417 98.48C460.737 101.12 461.937 104.64 462.017 109.04C462.017 112.88 460.937 116.32 458.777 119.36C456.697 122.4 453.657 124.8 449.657 126.56C445.737 128.24 441.137 129.08 435.857 129.08Z" fill="black"/>
  <path d="M74.9785 6.33977C78.0838 4.54655 81.9118 4.55413 85.0107 6.35833L148.031 43.0478C151.108 44.8388 153 48.1306 153 51.6904V125.168C153 128.74 151.095 132.042 148.001 133.828L82 171.94V132.94L115.011 113.829C118.099 112.041 120 108.743 120 105.175V70.7528C120 67.1593 118.072 63.8421 114.949 62.0635L85.4326 45.2509C82.3733 43.5083 78.6229 43.5025 75.5586 45.2363L47.5752 61.0693C44.4389 62.844 42.5 66.1688 42.5 69.7724V148.44L14.0664 132.314C10.935 130.538 9.00007 127.216 9 123.616V50.2138C9 46.6415 10.9055 43.3401 13.999 41.5536L74.9785 6.33977Z" fill="#573CFF"/>
  <path fill-rule="evenodd" clip-rule="evenodd" d="M102.5 70.097C104.047 70.9902 105 72.6408 105 74.4271V95.5375C105 97.3238 104.047 98.9744 102.5 99.8676L84.2178 110.423C82.6708 111.316 80.7648 111.316 79.2177 110.423L60.9355 99.8676C59.3885 98.9744 58.4355 97.3238 58.4355 95.5375V74.4271C58.4355 72.6408 59.3885 70.9902 60.9355 70.097L79.2177 59.5415C80.7648 58.6483 82.6708 58.6483 84.2178 59.5415L102.5 70.097Z" fill="url(#paint0_linear_20_17)"/>
  <defs>
    <linearGradient id="paint0_linear_20_17" x1="81.7178" y1="58.8716" x2="81.7178" y2="111.093" gradientUnits="userSpaceOnUse">
      <stop stop-color="#F74C55"/>
      <stop offset="1" stop-color="#FF751F"/>
    </linearGradient>
  </defs>
</svg>