<svg xmlns="http://www.w3.org/2000/svg" viewBox="0 0 40 40" fill="currentColor">
<path opacity=".55" d="M 19.366985 33.509254 L 2.928931 17.071104 C 0.97631 15.118478 0 12.559254 0 10.00003 C 0 8.697433 0.252923 7.394836 0.75877 6.172239 C 0.269848 7.351284 0 8.644149 0 10.00003 V 30 C 0 35.522985 4.477164 40 10 40 C 14.28809 40 17.945791 37.300896 19.366985 33.509254 Z"/>
<path opacity=".7" d="M 20 10 V 30 C 20 35.522985 24.477164 40 30 40 C 35.522985 40 40 35.522985 40 30 V 10 C 40 15.522836 35.522985 20 30 20 C 24.477164 20 20 15.522836 20 10 Z"/>
<path fill-rule="evenodd" clip-rule="evenodd" d="M 2.928931 2.928931 C 6.834179 -0.97631 13.165821 -0.97631 17.071075 2.928931 L 37.071045 22.928925 C 40.976418 26.834179 40.976418 33.16597 37.071045 37.071045 C 33.16597 40.976418 26.834179 40.976418 22.928925 37.071045 L 2.928931 17.071075 C -0.97631 13.165821 -0.97631 6.834179 2.928931 2.928931 Z"/>
<path opacity=".65" d="M 19.366896 33.509254 L 6.490776 20.633015 C 7.582657 20.223791 8.765134 20 9.99991 20 C 15.522746 20 19.99991 24.477164 19.99991 30 C 19.99991 31.234627 19.776119 32.417313 19.366896 33.509254 Z"/>
<path opacity=".65" d="M 20.633015 6.490866 L 33.509254 19.366985 C 32.417313 19.776209 31.234627 20 30 20 C 24.477164 20 20 15.522836 20 10 C 20 8.765254 20.223791 7.582746 20.633015 6.490866 Z"/>
<path opacity=".45" d="M 33.509254 19.366985 C 37.300896 17.945791 40 14.28809 40 10 C 40 4.477164 35.522985 0 30 0 C 25.71191 0 22.054209 2.699006 20.633015 6.490896 L 33.509254 19.366985 Z"/>
<path opacity=".45" d="M 6.490896 20.633015 C 2.699006 22.054209 0 25.71191 0 30 C 0 35.522985 4.477164 40 10 40 C 14.28809 40 17.945791 37.300896 19.366985 33.509254 L 6.490896 20.633015 Z"/>
</svg>
