<svg width="24" height="24" viewBox="0 0 40 40" xmlns="http://www.w3.org/2000/svg">
<path d="M30.5903 15.1892C30.5467 15.1907 30.4925 15.1926 30.4221 15.1926L30.4181 15.187C30.2235 15.231 29.9791 15.215 29.7326 15.1987C29.0046 15.1512 28.2275 15.1001 28.4833 16.6023C28.5408 16.9296 28.1426 17.0096 27.8783 17.023C27.1443 17.0633 26.4076 17.0795 25.6726 17.0647C25.5339 17.0623 25.3903 16.9442 25.2619 16.8375C25.2396 16.8189 25.2176 16.8006 25.1962 16.7831C25.1732 16.7637 25.2593 16.5222 25.3038 16.5194C26.0286 16.4774 26.2927 15.9895 26.5563 15.5085C26.6876 15.2636 26.8186 15.019 27.0083 14.8286C28.741 13.0931 30.5481 11.3897 32.5463 10.0181C32.7402 9.88527 32.9808 9.76165 33.1419 9.99302C33.2667 10.1733 33.1496 10.2748 33.0289 10.3807C32.9766 10.4265 32.9239 10.4727 32.8904 10.5266C32.7708 10.7189 32.5574 10.8617 32.3442 11.0043C31.9262 11.2832 31.5123 11.5588 31.8198 12.2055C32.0867 12.7674 31.841 12.8681 31.4756 13.0219L31.4606 13.0283C31.3035 13.0943 31.1417 13.1543 30.9802 13.2142C30.6398 13.3421 30.2999 13.4699 29.9941 13.6525C29.6876 13.8356 29.5378 14.1974 30.047 14.4088C31.1367 14.8753 33.9378 14.1295 34.4935 13.1203C35.0162 12.1586 35.7816 11.4574 36.5465 10.7566C36.9793 10.3613 37.4118 9.9663 37.7993 9.52796C38.6329 8.58505 39.6185 7.73501 40.6045 6.8853C41.0919 6.46621 41.5795 6.04693 42.0404 5.58598C42.3915 5.25835 42.5353 4.83199 42.2601 4.36399C41.9859 3.89842 41.516 3.83699 41.0759 3.93999C38.1958 4.61743 35.4265 5.52845 32.9161 7.22819C28.9653 9.97162 24.9996 12.7048 21.0065 15.4051C19.6491 16.3249 18.8225 15.8835 18.3694 14.2893C17.3543 10.6967 15.8719 7.61999 11.6544 7.13858C10.0849 6.96298 8.92354 7.93857 9.14851 9.54004C9.26368 10.3224 9.15695 11.0549 8.78199 11.7844C8.69828 11.947 8.61418 12.1098 8.52992 12.2728C7.94734 13.3968 7.36038 14.5336 7.00598 15.7197C6.97574 15.8201 6.94046 15.9267 6.90434 16.0379C6.58093 17.0246 6.16756 18.2854 8.12662 18.3549C8.20727 18.3576 8.36282 18.5584 8.3439 18.6326C8.30075 18.8111 8.21358 19.0222 8.07465 19.1256C6.18607 20.5123 4.64148 22.2186 3.98334 24.5336C3.64986 25.6871 3.87029 26.9234 4.84236 27.8171C5.53612 28.4465 6.42428 28.8099 7.21028 28.2748C7.913 27.7952 8.6914 27.4717 9.4685 27.1488C10.1496 26.866 10.8295 26.5838 11.4611 26.1898C11.6134 26.0951 11.7987 26.0089 11.9866 25.9219C12.503 25.6884 13.0423 25.4447 12.9481 24.9963C12.7984 24.2921 12.0435 23.6305 11.4205 23.1107C10.802 22.5944 9.23185 19.1754 9.4189 18.3384C9.685 17.1823 10.2749 16.1817 10.8651 15.1808C11.3715 14.3183 11.8782 13.4555 12.182 12.5046C12.3084 12.1125 12.7937 11.8973 13.2588 12.0549C13.5717 12.1601 13.5188 12.4475 13.4689 12.7131C13.4675 12.7205 13.4662 12.7279 13.4648 12.7353C13.2754 13.7739 13.0899 14.8136 12.9045 15.8532C12.812 16.3731 12.7196 16.8928 12.6267 17.4123C12.5682 17.7394 12.6708 18.0026 13.0134 18.0699C13.6739 18.2009 13.6593 18.4958 13.3634 19.0056C13.0482 19.5491 13.0039 20.2023 13.355 20.7003C13.7075 21.2003 14.2988 21.3054 14.8975 21.0078C15.271 20.8225 15.5646 20.9876 15.5606 21.3647C15.5366 23.4125 16.3731 22.9579 17.4039 22.0762C17.4983 21.9959 17.6265 21.9512 17.7513 21.9074C17.7739 21.8996 17.7964 21.8918 17.8185 21.884C17.9151 21.8493 18.0119 21.8147 18.1087 21.7801C20.0157 21.0903 21.9212 20.4014 23.0129 18.3962C23.0975 18.2406 23.3737 18.1673 23.5896 18.1103C23.6018 18.1071 23.6138 18.1039 23.6254 18.1008C24.8704 17.7626 26.162 17.7575 27.4529 17.7524C28.4087 17.7486 29.3638 17.7448 30.3082 17.5998C31.2436 17.4563 32.2732 16.9154 32.2817 16.0195C32.2894 15.2831 31.7383 15.3281 31.1883 15.3731C30.9463 15.3925 30.7043 15.4117 30.5074 15.3683C30.4671 15.3602 30.4256 15.3617 30.359 15.3639L30.5903 15.1892Z" fill="currentColor"/>
<path d="M15.1518 26.2083C14.9194 27.7441 15.5099 29.0797 17.9559 29.0617H17.9546C20.048 28.9768 22.4255 27.6994 24.7134 26.1107C26.2071 25.0611 27.5038 23.9579 28.3375 22.3035C28.9544 21.1215 28.6367 20.1646 27.7067 19.3186C27.2913 18.9438 26.8956 18.9037 26.4284 19.3497C24.7613 20.9536 22.7237 21.8208 20.6285 22.6936C20.0957 22.9123 19.4987 23.0213 18.8903 23.1314C17.2241 23.4333 15.5225 23.7401 15.1518 26.2083Z" fill="currentColor"/>
</svg>