<svg xmlns="http://www.w3.org/2000/svg" viewBox="0 0 620 620" preserveAspectRatio="xMidYMid meet">
  <g id="svg_border_group" transform="translate(10,10)">
    <g transform="translate(0.000000,600.000000) scale(0.100000,-0.100000)" fill="currentColor" stroke="currentColor">
      <path d="M1545 4319 c-416 -57 -774 -311 -961 -682 -93 -183 -134 -359 -134 -568 0 -349 122 -644 369 -890 250 -250 540 -369 902 -369 312 0 566 91 818 294 35 28 124 120 198 205 134 153 134 154 115 175 -10 11 -103 119 -206 239 -103 119 -191 217 -194 216 -4 0 -56 -59 -117 -130 -200 -237 -301 -313 -466 -353 -82 -20 -224 -20 -309 0 -185 43 -351 182 -429 359 -111 251 -37 561 174 736 68 57 117 83 210 115 67 23 98 27 190 28 159 1 282 -38 402 -126 24 -18 274 -298 555 -623 760 -876 698 -809 845 -917 310 -228 755 -293 1134 -167 194 64 366 175 518 335 478 504 459 1290 -42 1777 -175 170 -395 284 -645 334 -120 24 -366 24 -482 -1 -228 -47 -424 -143 -594 -289 -63 -55 -306 -329 -306 -346 0 -8 231 -280 376 -443 l33 -37 136 157 c160 184 212 230 321 283 362 178 798 -21 898 -408 20 -77 21 -231 1 -308 -29 -114 -81 -203 -169 -290 -93 -92 -169 -136 -282 -165 -94 -24 -235 -26 -319 -5 -82 21 -210 86 -267 135 -27 23 -287 319 -580 658 -293 339 -564 650 -603 691 -175 183 -420 318 -667 366 -101 20 -327 27 -423 14z"/>
    </g>
  </g>
</svg>