<svg xmlns="http://www.w3.org/2000/svg" viewBox="0 0 16 16" fill="currentColor"><path d="M0 0 C3.45457866 0.40169519 4.49290349 1.71149673 6.6875 4.3125 C7.0175 2.9925 7.3475 1.6725 7.6875 0.3125 C9.3375 0.3125 10.9875 0.3125 12.6875 0.3125 C12.6875 4.3125 12.6875 8.3125 12.6875 12.3125 C6.16442308 12.68173077 6.16442308 12.68173077 3.75 10.8125 C3.399375 10.3175 3.04875 9.8225 2.6875 9.3125 C2.3575 10.3025 2.0275 11.2925 1.6875 12.3125 C0.0375 12.3125 -1.6125 12.3125 -3.3125 12.3125 C-3.33937279 10.50007948 -3.35883715 8.68754767 -3.375 6.875 C-3.38660156 5.86566406 -3.39820313 4.85632813 -3.41015625 3.81640625 C-3.2828021 0.55104573 -3.20858725 0.43359287 0 0 Z " transform="translate(3.3125,1.6875)"/></svg>