<svg xmlns="http://www.w3.org/2000/svg" viewBox="0 0 511 511" fill="currentColor">
<path d="M159.752 210.234C159.877 210.254 160.005 210.226 160.111 210.156C160.217 210.086 160.293 209.979 160.324 209.856C161.578 204.802 162.98 198.788 164.935 193.9C170.229 180.668 177.491 169.324 186.72 159.867C198.421 147.871 212.76 139.475 229.736 134.679C255.293 127.457 281.717 130.934 304.535 144.52C323.11 155.581 336.671 171.304 345.217 191.686C347.569 197.285 349.165 204.137 350.816 209.68C350.862 209.833 350.964 209.963 351.102 210.047C351.239 210.13 351.403 210.16 351.563 210.132C368.957 207.132 385.719 209.342 401.847 216.764C440.38 234.5 459.721 278.226 447.215 319.056C441.736 336.955 431.462 351.537 416.391 362.801C401.699 373.786 383.53 379.716 364.706 379.43C361.355 379.381 356.414 379.381 349.884 379.43C349.679 379.43 349.477 379.377 349.299 379.277C349.122 379.176 348.974 379.032 348.87 378.858L255.708 221.228C255.66 221.148 255.592 221.083 255.511 221.037C255.43 220.991 255.339 220.967 255.247 220.967C255.155 220.967 255.065 220.991 254.985 221.037C254.906 221.083 254.84 221.148 254.795 221.228L162.141 379.006C162.068 379.132 161.964 379.237 161.839 379.31C161.714 379.383 161.573 379.421 161.43 379.421C153.978 379.384 149.161 379.384 146.978 379.421C124.972 379.771 104.552 372.245 88.0798 357.618C80.1726 350.602 73.609 341.742 68.3887 331.037C55.9469 305.526 57.192 272.6 73.1478 248.638C79.7607 238.715 86.7517 230.69 95.8087 224.327C98.5879 222.384 102.652 220.112 108.002 217.511C124.296 209.597 141.546 207.172 159.752 210.234Z"/>
<path d="M278.988 320.318C278.982 320.261 278.994 320.203 279.023 320.154C279.051 320.104 279.095 320.065 279.148 320.042C279.201 320.019 279.26 320.014 279.316 320.027C279.372 320.04 279.422 320.071 279.459 320.115C292.518 337.169 305.781 356.721 291.965 378.331C291.75 378.668 291.453 378.945 291.101 379.136C290.75 379.328 290.355 379.429 289.954 379.428H198.176C198.106 379.428 198.037 379.41 197.977 379.375C197.916 379.34 197.866 379.289 197.831 379.228C197.797 379.167 197.779 379.098 197.779 379.028C197.78 378.958 197.799 378.889 197.835 378.829L256.484 280.023C256.507 279.981 256.544 279.95 256.589 279.935C256.633 279.921 256.681 279.923 256.725 279.942C256.769 279.961 256.805 279.996 256.827 280.039C256.848 280.083 256.855 280.133 256.844 280.18C253.431 292.422 253.081 304.925 255.793 317.69C257.849 327.346 263.835 336.615 270.356 343.671C270.484 343.812 270.659 343.902 270.848 343.926C271.038 343.949 271.229 343.905 271.389 343.8C277.482 339.717 280.273 333.928 279.763 326.433C279.671 325.123 279.413 323.085 278.988 320.318Z"/>
</svg>
