<svg viewBox="0 0 48 48" xmlns="http://www.w3.org/2000/svg" fill="currentColor">
<path d="m45.1 35.4c-1.6-5.5-3.9-13.5-6.9-24 0.4-0.4 0.6-1 0.6-1.6 0-1.3-1-2.3-2.3-2.3s-2.3 1.1-2.3 2.3c0 0.5 0.2 1 0.5 1.4l-10.3 8.6-10.4-8.8c0.2-0.3 0.3-0.7 0.3-1.1 0-1.3-1-2.3-2.3-2.3s-2.3 1-2.3 2.2c0 0.7 0.3 1.4 0.8 1.8-3.1 10.4-5.4 18.3-7.1 23.8-1.1 0.2-1.9 1.1-1.9 2.3 0 1.3 1 2.3 2.3 2.3s2.3-1.1 2.3-2.3c0-0.4-0.1-0.8-0.3-1.1l12.3-10.2c1.9 4.3 3.3 7.7 4.3 10-0.3 0.4-0.4 0.9-0.4 1.4 0 1.3 1 2.3 2.3 2.3s2.3-1.1 2.3-2.3c0-0.6-0.2-1.2-0.6-1.6 1-2.3 2.5-5.6 4.3-9.9l12.3 10.5c-0.1 0.3-0.2 0.6-0.2 0.9 0 1.3 1 2.3 2.3 2.3s2.3-1 2.3-2.3c0-1.2-0.8-2.1-1.9-2.3zm-8.6-26.9c0.7 0 1.3 0.6 1.3 1.3s-0.6 1.3-1.3 1.3-1.3-0.6-1.3-1.3 0.6-1.3 1.3-1.3zm-24.5 0c0.7 0 1.3 0.6 1.3 1.3s-0.6 1.3-1.3 1.3-1.3-0.6-1.3-1.3 0.6-1.3 1.3-1.3zm-8.2 30.6c-0.7 0-1.3-0.6-1.3-1.3s0.6-1.3 1.3-1.3 1.3 0.6 1.3 1.3-0.6 1.3-1.3 1.3zm1.6-3.4 6.9-22.9 5.4 12.6-12.3 10.3zm9-23.1 9.2 7.9-4.3 3.6-4.9-11.5zm9.9 26.5c-0.7 0-1.3-0.6-1.3-1.3s0.6-1.3 1.3-1.3 1.3 0.6 1.3 1.3-0.6 1.3-1.3 1.3zm-0.2-3.8-4.4-10.3 4.6-3.9 4.3 3.7-4.5 10.5zm5-11.4-4-3.4 8.7-7.2-4.7 10.6zm7.3-11.5 6.8 23.6-12.5-10.7 5.7-12.9zm8.3 26.7c-0.7 0-1.3-0.6-1.3-1.3s0.6-1.3 1.3-1.3 1.3 0.5 1.3 1.2-0.6 1.4-1.3 1.4z"/>
</svg>
