<svg width="300" height="300" viewBox="0 0 300 300" fill="none" xmlns="http://www.w3.org/2000/svg">
<g clip-path="url(#clip0_762_2023)">
<path d="M174.803 135.751C173.507 136.85 171.535 135.92 171.535 134.229V124.87V67.9855C171.535 66.2942 169.563 65.3921 168.268 66.4633L89.338 133.552C88.0422 134.651 86.0704 133.721 86.0704 132.03V86.1671C86.0704 84.8422 85 83.7992 83.7042 83.7992H45.3662C44.0422 83.7992 43 84.8704 43 86.1671V229.816C43 231.507 44.9718 232.409 46.2676 231.338L125.197 164.249C126.493 163.15 128.465 164.08 128.465 165.771V232.015C128.465 233.706 130.437 234.608 131.732 233.537L210.662 166.448C211.958 165.349 213.93 166.279 213.93 167.97V213.833C213.93 215.158 215 216.201 216.296 216.201H254.634C255.958 216.201 257 215.13 257 213.833V70.1842C257 68.4929 255.028 67.5908 253.732 68.662L174.803 135.751Z" fill="black"/>
</g>
<defs>
<clipPath id="clip0_762_2023">
<rect width="300" height="300" fill="white"/>
</clipPath>
</defs>
</svg>
