<svg width="500" height="500" viewBox="0 0 500 500" fill="none" xmlns="http://www.w3.org/2000/svg">
<rect width="500" height="500" rx="29.1262" fill="white"/>
<rect x="45.6309" y="50.4854" width="405.825" height="413.592" fill="white"/>
<path d="M287.683 234.672C285.661 236.366 282.601 234.945 282.601 232.322V217.784V129.299C282.601 126.675 279.541 125.254 277.52 126.949L154.698 231.284C152.677 232.978 149.618 231.557 149.618 228.933V157.61C149.618 155.587 147.977 153.893 145.901 153.893H86.2393C84.2178 153.893 82.5244 155.533 82.5244 157.61V381.036C82.5244 383.659 85.5837 385.08 87.6052 383.386L210.372 279.051C212.394 277.357 215.454 278.778 215.454 281.401V384.425C215.454 387.048 218.513 388.469 220.535 386.775L343.356 282.44C345.378 280.746 348.437 282.167 348.437 284.79V356.114C348.437 358.136 350.076 359.83 352.152 359.83H411.815C413.837 359.83 415.53 358.191 415.53 356.114V132.687C415.53 130.064 412.471 128.643 410.45 130.337L287.628 234.672H287.683Z" fill="#0066FC"/>
</svg>
