<svg xmlns="http://www.w3.org/2000/svg" viewBox="0 0 36 36" fill="currentColor">
  <path d="M1.67 29.52a.68.68 0 0 1-.69-.91L7.04 6.58a.68.68 0 0 1 1.26-.18l7.99 5.24a.68.68 0 0 0 .78 0l8.02-5.24a.68.68 0 0 1 1.26.18l6.04 22.02a.68.68 0 0 1-.69.91h-7.71a8.8 8.8 0 0 0-2.18-5.85v-.25a8.8 8.8 0 0 0-2.15-5.96l-.99-4.97a.68.68 0 0 0-1.21-.12l-3.73 2.8a.68.68 0 0 1-.93-.03 8.78 8.78 0 0 0-4.03 0 .68.68 0 0 1-.93.03l-3.73-2.8a.68.68 0 0 0-1.21.12l-.96 5.19a8.8 8.8 0 0 0-2.15 6v.47a8.8 8.8 0 0 0 2.15 5.71H1.67z" fill-rule="evenodd"/>
  <path d="M14 25.2h2.16v-5.04L14.37 20.16L14 25.2zm7.92 0H19.8v-5.04l1.77-.01l.33 5.05z"/>
</svg>
