<svg width="24" height="24" viewBox="219 -1 42 42" xmlns="http://www.w3.org/2000/svg">
  <g transform="translate(-484.887 0)">
    <path d="M720.429,18.309c.416.12.905.113,1.357.272.228.08.438.443.678.407.523-.079.263-.992.135-1.266-.26-.56-.462-.882-.633-1.221-2.159-4.293-4.2-8.182-6.51-12.116A17.924,17.924,0,0,0,712.382,0h-.09c-.035.053-.174.083-.181.091-1.82,2.124-1.1,6.376-.226,8.951,1.489,4.378,4.187,8.015,8.544,9.268" fill="currentColor" fill-rule="evenodd"/>
  </g>
  <g transform="translate(-472.624 -18.326)">
    <path d="M705.318,39.212c.92.089,2.44.63,2.668-.045.216-.639-.967-1.434-1.447-1.853-3.151-2.756-6.04-5.191-9.222-7.731a15,15,0,0,0-4.114-2.712,2.69,2.69,0,0,0-.18,1.537,10.876,10.876,0,0,0,1.853,4.747c2.3,3.559,5.232,5.554,10.443,6.058" fill="currentColor" fill-rule="evenodd"/>
  </g>
  <g transform="translate(-516.679 -35.131)">
    <path d="M759.093,54.3a1.394,1.394,0,1,0-.407-2.758,1.394,1.394,0,0,0,.407,2.758" fill="currentColor" fill-rule="evenodd"/>
  </g>
  <g transform="translate(-505.797 -40.913)">
    <path d="M746.809,61.031a1.1,1.1,0,0,0-1.265-1.039,3.892,3.892,0,0,0-2.532,1.266,4.473,4.473,0,0,0-1.357,2.4c-.1.8.26,1.428.995,1.491a4.875,4.875,0,0,0,4.159-4.114" fill="currentColor" fill-rule="evenodd"/>
  </g>
  <g transform="translate(-516.884 -47.305)">
    <path d="M774.985,78.274a136.364,136.364,0,0,0-13.969-7.731,11.594,11.594,0,0,0-2.441-1.175c-.225-.039-.66.183-.678.407-.02.239.332.455.407.678.176.517.21,1.063.362,1.537a11.92,11.92,0,0,0,6.283,7.1c2.9,1.519,8.6,3.479,11.935.859a5,5,0,0,0-1.9-1.672" fill="currentColor" fill-rule="evenodd"/>
  </g>
  <g transform="translate(-512.184 -52.71)">
    <path d="M753.332,78.932c-.459-.516-1.16-1.506-1.763-1.628-1.006-.2-.374,1.688-.317,2.081.143.987.182,1.922.362,2.8a12.465,12.465,0,0,0,7.007,8.951c1.389.7,3.074,1.542,5.018,1.04a15.387,15.387,0,0,0-2.622-4.114c-2.441-3.143-5.005-6.122-7.686-9.132" fill="currentColor" fill-rule="evenodd"/>
  </g>
  <g transform="translate(-500.869 -50.856)">
    <path d="M734.7,75.115a1.4,1.4,0,1,1,0,1.708,1.4,1.4,0,0,1,0-1.708" fill="currentColor"/>
  </g>
  <circle cx="221.7" cy="38.4" r="1.0" fill="currentColor" opacity="0.3"/>
  <circle cx="223.6" cy="36.5" r="1.05" fill="currentColor" opacity="0.4"/>
  <circle cx="225.5" cy="34.6" r="1.1" fill="currentColor" opacity="0.5"/>
  <circle cx="227.4" cy="32.7" r="1.15" fill="currentColor" opacity="0.6"/>
  <circle cx="229.3" cy="30.8" r="1.2" fill="currentColor" opacity="0.7"/>
  <circle cx="231.2" cy="28.9" r="1.3" fill="currentColor" opacity="0.8"/>
  <circle cx="233.0" cy="27.0" r="1.35" fill="currentColor" opacity="0.9"/>
</svg>
