<svg width="24" height="24" viewBox="0 0 40 40" xmlns="http://www.w3.org/2000/svg">
<path d="M32.4 16.922l-4.893 19.31a.358.358 0 0 0 .357.435h9.783a.358.358 0 0 0 .357-.435l-4.917-19.31a.357.357 0 0 0-.687 0zM5.467 21.297L1.675 36.267a.357.357 0 0 0 .345.435h7.553a.358.358 0 0 0 .345-.435L5.467 21.297a.357.357 0 0 0-.683 0z" fill="currentColor"/>
<path d="M12.15 8.932L4.913 36.231a.358.358 0 0 0 .339.435h13.816a.358.358 0 0 0 .358-.435L12.833 8.93a.357.357 0 0 0-.683 0z" fill="currentColor"/>
<path d="M24.067.25a.357.357 0 0 0-.683 0L13.943 36.232a.357.357 0 0 0 .357.435h19.2a.36.36 0 0 0 .285-.13.357.357 0 0 0 .073-.305L24.065.25z" fill="currentColor"/>
<path d="M17.13 12.902L11.142 36.227a.357.357 0 0 0 .357.44h11.95a.358.358 0 0 0 .357-.44L17.48 12.902a.357.357 0 0 0-.683 0z" fill="currentColor"/>
</svg>
