<?xml version="1.0" encoding="UTF-8"?>
<svg width="300px" height="300px" viewBox="0 0 300 300" version="1.1" xmlns="http://www.w3.org/2000/svg" xmlns:xlink="http://www.w3.org/1999/xlink">
    <title>火山引擎图形-黑白</title>
    <g id="火山引擎图形-黑白" stroke="none" fill="none" fill-rule="evenodd" stroke-width="1">
        <g id="编组" fill="#000000" fill-rule="nonzero">
            <path d="M131.44,120.14 L93.42,237.14 L175.11,237.14 L137.09,120.14 C136.2,117.4 132.32,117.4 131.43,120.14 L131.44,120.14 Z" id="路径"></path>
            <path d="M75.59,154.25 C74.7,151.51 70.82,151.51 69.93,154.25 L43,237.14 L60.97,237.14 L81.75,173.19 L75.6,154.25 L75.59,154.25 Z" id="路径"></path>
            <path d="M117.97,97.45 C117.08,94.71 113.2,94.71 112.31,97.45 L66.92,237.14 L87.47,237.14 L125.41,120.36 L117.97,97.45 Z" id="路径"></path>
            <path d="M172.06,48.7 C171.17,45.96 167.29,45.96 166.4,48.7 L143.12,120.35 L181.07,237.13 L233.29,237.13 L172.06,48.7 Z" id="路径"></path>
            <path d="M225.17,139.19 C224.28,136.45 220.4,136.45 219.51,139.19 L213.46,157.8 L239.24,237.14 L257,237.14 L225.17,139.19 L225.17,139.19 Z" id="路径"></path>
        </g>
    </g>
</svg>