<svg xmlns="http://www.w3.org/2000/svg" viewBox="0 0 24 24" width="24" height="24">
<path fill="currentColor" d="M12.04 5.72L11.82 6.95L11.69 7.92L11.6 8.85L11.52 9.64L11.43 10.52L10.85 16.17L10.81 17.05L10.63 17.89L10.46 18.77L10.24 19.74L9.88 20.8L9.53 21.5L9.05 22.16L8.43 22.16L7.9 21.9L7.15 21.46L6.67 21.59L6.22 21.9L6.27 22.34L6.58 22.69L7.06 22.87L7.5 22.96L8.12 23L8.69 22.87L9.13 22.69L9.66 22.43L10.06 21.99L10.46 21.55L10.85 20.97L11.21 20.27L11.43 19.61L11.65 19.08L11.78 18.46L12.04 17.27L12.22 16.52L12.4 15.68L12.62 14.23L12.84 12.73L13.01 11.05L13.15 9.82L13.23 8.63L13.32 7.17L13.45 5.85L13.72 4.35L14.12 3.2L14.56 2.32L14.82 1.88L15.44 1.84L16.01 2.1L16.5 2.32L16.94 2.5L17.51 2.37L17.78 1.88L17.64 1.44L17.2 1.22L16.59 1.04L15.92 1L15.35 1.13L14.87 1.31L14.38 1.66L13.85 2.15L13.41 2.68L13.1 3.25L12.84 3.82L12.57 4.35L12.35 4.97Z"/>
</svg>
