<svg xmlns="http://www.w3.org/2000/svg" viewBox="0 0 1576 1494" fill="currentColor">
<path d="M0 0 C11.22 0 22.44 0 34 0 C34 0.66 34 1.32 34 2 C37.3 2 40.6 2 44 2 C44 2.66 44 3.32 44 4 C45.98 4 47.96 4 50 4 C50 4.66 50 5.32 50 6 C52.64 6 55.28 6 58 6 C58 6.66 58 7.32 58 8 C59.98 8 61.96 8 64 8 C64 8.66 64 9.32 64 10 C65.98 10 67.96 10 70 10 C70 10.66 70 11.32 70 12 C71.98 12 73.96 12 76 12 C76 12.66 76 13.32 76 14 C77.98 14 79.96 14 82 14 C82 14.66 82 15.32 82 16 C83.32 16 84.64 16 86 16 C86 16.66 86 17.32 86 18 C87.98 18 89.96 18 92 18 C92 18.66 92 19.32 92 20 C93.32 20 94.64 20 96 20 C96 22.64 96 25.28 96 28 C95.34 28 94.68 28 94 28 C94 30.64 94 33.28 94 36 C93.34 36 92.68 36 92 36 C92 38.64 92 41.28 92 44 C91.34 44 90.68 44 90 44 C90 46.64 90 49.28 90 52 C89.34 52 88.68 52 88 52 C88 53.98 88 55.96 88 58 C87.34 58 86.68 58 86 58 C86 60.64 86 63.28 86 66 C85.34 66 84.68 66 84 66 C84 68.64 84 71.28 84 74 C83.34 74 82.68 74 82 74 C82 75.98 82 77.96 82 80 C81.34 80 80.68 80 80 80 C80 82.64 80 85.28 80 88 C79.34 88 78.68 88 78 88 C78 90.64 78 93.28 78 96 C77.34 96 76.68 96 76 96 C76 98.64 76 101.28 76 104 C75.34 104 74.68 104 74 104 C74 106.64 74 109.28 74 112 C73.34 112 72.68 112 72 112 C72 113.32 72 114.64 72 116 C66.06 116 60.12 116 54 116 C54 115.34 54 114.68 54 114 C44.76 114 35.52 114 26 114 C26 114.66 26 115.32 26 116 C24.68 116 23.36 116 22 116 C22 116.66 22 117.32 22 118 C21.34 118 20.68 118 20 118 C20 118.66 20 119.32 20 120 C19.34 120 18.68 120 18 120 C18 120.66 18 121.32 18 122 C17.34 122 16.68 122 16 122 C16 122.66 16 123.32 16 124 C15.34 124 14.68 124 14 124 C14 124.66 14 125.32 14 126 C13.34 126 12.68 126 12 126 C12 126.66 12 127.32 12 128 C11.34 128 10.68 128 10 128 C10 128.66 10 129.32 10 130 C9.34 130 8.68 130 8 130 C8 130.66 8 131.32 8 132 C7.34 132 6.68 132 6 132 C6 132.66 6 133.32 6 134 C5.34 134 4.68 134 4 134 C4 135.32 4 136.64 4 138 C3.34 138 2.68 138 2 138 C2 139.32 2 140.64 2 142 C1.34 142 0.68 142 0 142 C0 143.32 0 144.64 0 146 C-0.66 146 -1.32 146 -2 146 C-2 147.98 -2 149.96 -2 152 C-2.66 152 -3.32 152 -4 152 C-4 153.32 -4 154.64 -4 156 C-4.66 156 -5.32 156 -6 156 C-6 157.32 -6 158.64 -6 160 C-6.66 160 -7.32 160 -8 160 C-8 162.64 -8 165.28 -8 168 C-8.66 168 -9.32 168 -10 168 C-10 170.64 -10 173.28 -10 176 C-10.66 176 -11.32 176 -12 176 C-12 177.32 -12 178.64 -12 180 C-11.34 180 -10.68 180 -10 180 C-10 180.66 -10 181.32 -10 182 C-8.68 182 -7.36 182 -6 182 C-6 182.66 -6 183.32 -6 184 C-5.34 184 -4.68 184 -4 184 C-4 184.66 -4 185.32 -4 186 C-2.68 186 -1.36 186 0 186 C0 186.66 0 187.32 0 188 C0.66 188 1.32 188 2 188 C2 188.66 2 189.32 2 190 C3.32 190 4.64 190 6 190 C6 190.66 6 191.32 6 192 C6.66 192 7.32 192 8 192 C8 192.66 8 193.32 8 194 C8.66 194 9.32 194 10 194 C10 194.66 10 195.32 10 196 C11.32 196 12.64 196 14 196 C14 196.66 14 197.32 14 198 C14.66 198 15.32 198 16 198 C16 198.66 16 199.32 16 200 C16.66 200 17.32 200 18 200 C18 200.66 18 201.32 18 202 C18.66 202 19.32 202 20 202 C20 202.66 20 203.32 20 204 C20.66 204 21.32 204 22 204 C22 204.66 22 205.32 22 206 C22.66 206 23.32 206 24 206 C24 206.66 24 207.32 24 208 C25.32 208 26.64 208 28 208 C28 208.66 28 209.32 28 210 C28.66 210 29.32 210 30 210 C30 210.66 30 211.32 30 212 C30.66 212 31.32 212 32 212 C32 212.66 32 213.32 32 214 C32.66 214 33.32 214 34 214 C34 214.66 34 215.32 34 216 C34.66 216 35.32 216 36 216 C36 216.66 36 217.32 36 218 C36.66 218 37.32 218 38 218 C38 218.66 38 219.32 38 220 C38.66 220 39.32 220 40 220 C40 220.66 40 221.32 40 222 C40.66 222 41.32 222 42 222 C42 222.66 42 223.32 42 224 C42.66 224 43.32 224 44 224 C44 224.66 44 225.32 44 226 C44.66 226 45.32 226 46 226 C46 226.66 46 227.32 46 228 C46.66 228 47.32 228 48 228 C48 228.66 48 229.32 48 230 C48.66 230 49.32 230 50 230 C50 230.66 50 231.32 50 232 C50.66 232 51.32 232 52 232 C52 232.66 52 233.32 52 234 C52.66 234 53.32 234 54 234 C54 235.32 54 236.64 54 238 C54.66 238 55.32 238 56 238 C56 238.66 56 239.32 56 240 C56.66 240 57.32 240 58 240 C58 240.66 58 241.32 58 242 C58.66 242 59.32 242 60 242 C60 242.66 60 243.32 60 244 C60.66 244 61.32 244 62 244 C62 245.32 62 246.64 62 248 C62.66 248 63.32 248 64 248 C64 248.66 64 249.32 64 250 C64.66 250 65.32 250 66 250 C66 250.66 66 251.32 66 252 C66.66 252 67.32 252 68 252 C68 253.32 68 254.64 68 256 C68.66 256 69.32 256 70 256 C70 256.66 70 257.32 70 258 C70.66 258 71.32 258 72 258 C72 258.66 72 259.32 72 260 C72.66 260 73.32 260 74 260 C74 261.32 74 262.64 74 264 C74.66 264 75.32 264 76 264 C76 264.66 76 265.32 76 266 C76.66 266 77.32 266 78 266 C78 267.32 78 268.64 78 270 C78.66 270 79.32 270 80 270 C80 270.66 80 271.32 80 272 C80.66 272 81.32 272 82 272 C82 273.32 82 274.64 82 276 C82.66 276 83.32 276 84 276 C84 276.66 84 277.32 84 278 C84.66 278 85.32 278 86 278 C86 279.32 86 280.64 86 282 C86.66 282 87.32 282 88 282 C88 282.66 88 283.32 88 284 C88.66 284 89.32 284 90 284 C90 285.32 90 286.64 90 288 C90.66 288 91.32 288 92 288 C92 289.32 92 290.64 92 292 C92.66 292 93.32 292 94 292 C94 293.32 94 294.64 94 296 C94.66 296 95.32 296 96 296 C96 297.32 96 298.64 96 300 C96.66 300 97.32 300 98 300 C98 300.66 98 301.32 98 302 C98.66 302 99.32 302 100 302 C100 303.32 100 304.64 100 306 C100.66 306 101.32 306 102 306 C102 307.32 102 308.64 102 310 C102.66 310 103.32 310 104 310 C104 311.32 104 312.64 104 314 C104.66 314 105.32 314 106 314 C106 315.98 106 317.96 106 320 C106.66 320 107.32 320 108 320 C108 321.32 108 322.64 108 324 C108.66 324 109.32 324 110 324 C110 325.98 110 327.96 110 330 C110.66 330 111.32 330 112 330 C112 331.32 112 332.64 112 334 C112.66 334 113.32 334 114 334 C114 335.98 114 337.96 114 340 C114.66 340 115.32 340 116 340 C116 341.98 116 343.96 116 346 C116.66 346 117.32 346 118 346 C118 347.98 118 349.96 118 352 C118.66 352 119.32 352 120 352 C120 354.64 120 357.28 120 360 C120.66 360 121.32 360 122 360 C122 361.98 122 363.96 122 366 C122.66 366 123.32 366 124 366 C124 368.64 124 371.28 124 374 C124.66 374 125.32 374 126 374 C126 376.64 126 379.28 126 382 C126.66 382 127.32 382 128 382 C128 385.3 128 388.6 128 392 C128.66 392 129.32 392 130 392 C130 396.62 130 401.24 130 406 C130.66 406 131.32 406 132 406 C132 411.28 132 416.56 132 422 C132.66 422 133.32 422 134 422 C134 441.14 134 460.28 134 480 C133.34 480 132.68 480 132 480 C132 484.62 132 489.24 132 494 C131.34 494 130.68 494 130 494 C130 499.94 130 505.88 130 512 C129.34 512 128.68 512 128 512 C128 514.64 128 517.28 128 520 C127.34 520 126.68 520 126 520 C126 522.64 126 525.28 126 528 C125.34 528 124.68 528 124 528 C124 530.64 124 533.28 124 536 C123.34 536 122.68 536 122 536 C122 538.64 122 541.28 122 544 C121.34 544 120.68 544 120 544 C120 545.98 120 547.96 120 550 C119.34 550 118.68 550 118 550 C118 551.98 118 553.96 118 556 C117.34 556 116.68 556 116 556 C116 557.98 116 559.96 116 562 C115.34 562 114.68 562 114 562 C114 563.98 114 565.96 114 568 C113.34 568 112.68 568 112 568 C112 569.98 112 571.96 112 574 C111.34 574 110.68 574 110 574 C110 575.32 110 576.64 110 578 C109.34 578 108.68 578 108 578 C108 579.98 108 581.96 108 584 C107.34 584 106.68 584 106 584 C106 585.32 106 586.64 106 588 C105.34 588 104.68 588 104 588 C104 589.32 104 590.64 104 592 C103.34 592 102.68 592 102 592 C102 593.32 102 594.64 102 596 C101.34 596 100.68 596 100 596 C100 597.32 100 598.64 100 600 C99.34 600 98.68 600 98 600 C98 601.98 98 603.96 98 606 C97.34 606 96.68 606 96 606 C96 607.32 96 608.64 96 610 C95.34 610 94.68 610 94 610 C94 611.32 94 612.64 94 614 C93.34 614 92.68 614 92 614 C92 615.32 92 616.64 92 618 C91.34 618 90.68 618 90 618 C90 619.32 90 620.64 90 622 C89.34 622 88.68 622 88 622 C88 623.32 88 624.64 88 626 C87.34 626 86.68 626 86 626 C86 627.32 86 628.64 86 630 C85.34 630 84.68 630 84 630 C84 631.32 84 632.64 84 634 C83.34 634 82.68 634 82 634 C82 634.66 82 635.32 82 636 C81.34 636 80.68 636 80 636 C80 637.32 80 638.64 80 640 C79.34 640 78.68 640 78 640 C78 641.32 78 642.64 78 644 C77.34 644 76.68 644 76 644 C76 645.32 76 646.64 76 648 C75.34 648 74.68 648 74 648 C74 649.32 74 650.64 74 652 C73.34 652 72.68 652 72 652 C72 652.66 72 653.32 72 654 C71.34 654 70.68 654 70 654 C70 655.32 70 656.64 70 658 C69.34 658 68.68 658 68 658 C68 659.32 68 660.64 68 662 C67.34 662 66.68 662 66 662 C66 662.66 66 663.32 66 664 C65.34 664 64.68 664 64 664 C64 665.32 64 666.64 64 668 C63.34 668 62.68 668 62 668 C62 669.32 62 670.64 62 672 C61.34 672 60.68 672 60 672 C60 672.66 60 673.32 60 674 C59.34 674 58.68 674 58 674 C58 675.32 58 676.64 58 678 C57.34 678 56.68 678 56 678 C56 679.32 56 680.64 56 682 C55.34 682 54.68 682 54 682 C54 682.66 54 683.32 54 684 C53.34 684 52.68 684 52 684 C52 685.32 52 686.64 52 688 C51.34 688 50.68 688 50 688 C50 688.66 50 689.32 50 690 C49.34 690 48.68 690 48 690 C48 691.32 48 692.64 48 694 C47.34 694 46.68 694 46 694 C46 694.66 46 695.32 46 696 C45.34 696 44.68 696 44 696 C44 697.32 44 698.64 44 700 C43.34 700 42.68 700 42 700 C42 700.66 42 701.32 42 702 C41.34 702 40.68 702 40 702 C40 703.32 40 704.64 40 706 C39.34 706 38.68 706 38 706 C38 706.66 38 707.32 38 708 C37.34 708 36.68 708 36 708 C36 709.32 36 710.64 36 712 C35.34 712 34.68 712 34 712 C34 712.66 34 713.32 34 714 C33.34 714 32.68 714 32 714 C32 715.32 32 716.64 32 718 C31.34 718 30.68 718 30 718 C30 718.66 30 719.32 30 720 C29.34 720 28.68 720 28 720 C28 720.66 28 721.32 28 722 C27.34 722 26.68 722 26 722 C26 723.32 26 724.64 26 726 C25.34 726 24.68 726 24 726 C24 726.66 24 727.32 24 728 C23.34 728 22.68 728 22 728 C22 728.66 22 729.32 22 730 C21.34 730 20.68 730 20 730 C20 731.32 20 732.64 20 734 C19.34 734 18.68 734 18 734 C18 734.66 18 735.32 18 736 C17.34 736 16.68 736 16 736 C16 737.32 16 738.64 16 740 C15.34 740 14.68 740 14 740 C14 740.66 14 741.32 14 742 C13.34 742 12.68 742 12 742 C12 742.66 12 743.32 12 744 C11.34 744 10.68 744 10 744 C10 744.66 10 745.32 10 746 C9.34 746 8.68 746 8 746 C8 747.32 8 748.64 8 750 C7.34 750 6.68 750 6 750 C6 750.66 6 751.32 6 752 C5.34 752 4.68 752 4 752 C4 752.66 4 753.32 4 754 C3.34 754 2.68 754 2 754 C2 755.32 2 756.64 2 758 C1.34 758 0.68 758 0 758 C0 758.66 0 759.32 0 760 C-0.66 760 -1.32 760 -2 760 C-2 760.66 -2 761.32 -2 762 C-2.66 762 -3.32 762 -4 762 C-4 762.66 -4 763.32 -4 764 C-4.66 764 -5.32 764 -6 764 C-6 764.66 -6 765.32 -6 766 C-6.66 766 -7.32 766 -8 766 C-8 767.32 -8 768.64 -8 770 C-8.66 770 -9.32 770 -10 770 C-10 770.66 -10 771.32 -10 772 C-10.66 772 -11.32 772 -12 772 C-12 772.66 -12 773.32 -12 774 C-12.66 774 -13.32 774 -14 774 C-14 774.66 -14 775.32 -14 776 C-14.66 776 -15.32 776 -16 776 C-16 776.66 -16 777.32 -16 778 C-16.66 778 -17.32 778 -18 778 C-18 779.32 -18 780.64 -18 782 C-18.66 782 -19.32 782 -20 782 C-20 782.66 -20 783.32 -20 784 C-20.66 784 -21.32 784 -22 784 C-22 784.66 -22 785.32 -22 786 C-22.66 786 -23.32 786 -24 786 C-24 786.66 -24 787.32 -24 788 C-24.66 788 -25.32 788 -26 788 C-26 788.66 -26 789.32 -26 790 C-26.66 790 -27.32 790 -28 790 C-28 790.66 -28 791.32 -28 792 C-28.66 792 -29.32 792 -30 792 C-30 792.66 -30 793.32 -30 794 C-30.66 794 -31.32 794 -32 794 C-32 795.32 -32 796.64 -32 798 C-32.66 798 -33.32 798 -34 798 C-34 798.66 -34 799.32 -34 800 C-34.66 800 -35.32 800 -36 800 C-36 800.66 -36 801.32 -36 802 C-36.66 802 -37.32 802 -38 802 C-38 802.66 -38 803.32 -38 804 C-38.66 804 -39.32 804 -40 804 C-40 804.66 -40 805.32 -40 806 C-40.66 806 -41.32 806 -42 806 C-42 806.66 -42 807.32 -42 808 C-42.66 808 -43.32 808 -44 808 C-44 808.66 -44 809.32 -44 810 C-44.66 810 -45.32 810 -46 810 C-46 810.66 -46 811.32 -46 812 C-46.66 812 -47.32 812 -48 812 C-48 812.66 -48 813.32 -48 814 C-48.66 814 -49.32 814 -50 814 C-50 814.66 -50 815.32 -50 816 C-50.66 816 -51.32 816 -52 816 C-52 816.66 -52 817.32 -52 818 C-52.66 818 -53.32 818 -54 818 C-54 818.66 -54 819.32 -54 820 C-54.66 820 -55.32 820 -56 820 C-56 820.66 -56 821.32 -56 822 C-56.66 822 -57.32 822 -58 822 C-58 822.66 -58 823.32 -58 824 C-58.66 824 -59.32 824 -60 824 C-60 824.66 -60 825.32 -60 826 C-60.66 826 -61.32 826 -62 826 C-62 826.66 -62 827.32 -62 828 C-62.66 828 -63.32 828 -64 828 C-64 828.66 -64 829.32 -64 830 C-64.66 830 -65.32 830 -66 830 C-66 830.66 -66 831.32 -66 832 C-66.66 832 -67.32 832 -68 832 C-68 832.66 -68 833.32 -68 834 C-68.66 834 -69.32 834 -70 834 C-70 834.66 -70 835.32 -70 836 C-70.66 836 -71.32 836 -72 836 C-72 836.66 -72 837.32 -72 838 C-72.66 838 -73.32 838 -74 838 C-74 838.66 -74 839.32 -74 840 C-74.66 840 -75.32 840 -76 840 C-76 840.66 -76 841.32 -76 842 C-76.66 842 -77.32 842 -78 842 C-78 842.66 -78 843.32 -78 844 C-78.66 844 -79.32 844 -80 844 C-80 844.66 -80 845.32 -80 846 C-80.66 846 -81.32 846 -82 846 C-82 846.66 -82 847.32 -82 848 C-82.66 848 -83.32 848 -84 848 C-84 848.66 -84 849.32 -84 850 C-84.66 850 -85.32 850 -86 850 C-86 850.66 -86 851.32 -86 852 C-86.66 852 -87.32 852 -88 852 C-88 852.66 -88 853.32 -88 854 C-88.66 854 -89.32 854 -90 854 C-90 854.66 -90 855.32 -90 856 C-90.66 856 -91.32 856 -92 856 C-92 856.66 -92 857.32 -92 858 C-92.66 858 -93.32 858 -94 858 C-94 858.66 -94 859.32 -94 860 C-94.66 860 -95.32 860 -96 860 C-96 860.66 -96 861.32 -96 862 C-96.66 862 -97.32 862 -98 862 C-98 862.66 -98 863.32 -98 864 C-98.66 864 -99.32 864 -100 864 C-100 864.66 -100 865.32 -100 866 C-100.66 866 -101.32 866 -102 866 C-102 866.66 -102 867.32 -102 868 C-102.66 868 -103.32 868 -104 868 C-104 868.66 -104 869.32 -104 870 C-104.66 870 -105.32 870 -106 870 C-106 870.66 -106 871.32 -106 872 C-106.66 872 -107.32 872 -108 872 C-108 872.66 -108 873.32 -108 874 C-108.66 874 -109.32 874 -110 874 C-110 874.66 -110 875.32 -110 876 C-111.32 876 -112.64 876 -114 876 C-114 876.66 -114 877.32 -114 878 C-114.66 878 -115.32 878 -116 878 C-116 878.66 -116 879.32 -116 880 C-116.66 880 -117.32 880 -118 880 C-118 880.66 -118 881.32 -118 882 C-118.66 882 -119.32 882 -120 882 C-120 882.66 -120 883.32 -120 884 C-120.66 884 -121.32 884 -122 884 C-122 884.66 -122 885.32 -122 886 C-123.32 886 -124.64 886 -126 886 C-126 886.66 -126 887.32 -126 888 C-126.66 888 -127.32 888 -128 888 C-128 888.66 -128 889.32 -128 890 C-128.66 890 -129.32 890 -130 890 C-130 890.66 -130 891.32 -130 892 C-130.66 892 -131.32 892 -132 892 C-132 892.66 -132 893.32 -132 894 C-132.66 894 -133.32 894 -134 894 C-134 894.66 -134 895.32 -134 896 C-134.66 896 -135.32 896 -136 896 C-136 896.66 -136 897.32 -136 898 C-137.32 898 -138.64 898 -140 898 C-140 898.66 -140 899.32 -140 900 C-140.66 900 -141.32 900 -142 900 C-142 900.66 -142 901.32 -142 902 C-142.66 902 -143.32 902 -144 902 C-144 902.66 -144 903.32 -144 904 C-144.66 904 -145.32 904 -146 904 C-146 904.66 -146 905.32 -146 906 C-147.32 906 -148.64 906 -150 906 C-150 906.66 -150 907.32 -150 908 C-150.66 908 -151.32 908 -152 908 C-152 908.66 -152 909.32 -152 910 C-152.66 910 -153.32 910 -154 910 C-154 910.66 -154 911.32 -154 912 C-154.66 912 -155.32 912 -156 912 C-156 912.66 -156 913.32 -156 914 C-157.32 914 -158.64 914 -160 914 C-160 914.66 -160 915.32 -160 916 C-160.66 916 -161.32 916 -162 916 C-162 916.66 -162 917.32 -162 918 C-162.66 918 -163.32 918 -164 918 C-164 918.66 -164 919.32 -164 920 C-165.32 920 -166.64 920 -168 920 C-168 920.66 -168 921.32 -168 922 C-168.66 922 -169.32 922 -170 922 C-170 922.66 -170 923.32 -170 924 C-170.66 924 -171.32 924 -172 924 C-172 924.66 -172 925.32 -172 926 C-173.32 926 -174.64 926 -176 926 C-176 926.66 -176 927.32 -176 928 C-176.66 928 -177.32 928 -178 928 C-178 928.66 -178 929.32 -178 930 C-179.32 930 -180.64 930 -182 930 C-182 930.66 -182 931.32 -182 932 C-182.66 932 -183.32 932 -184 932 C-184 932.66 -184 933.32 -184 934 C-184.66 934 -185.32 934 -186 934 C-186 934.66 -186 935.32 -186 936 C-187.32 936 -188.64 936 -190 936 C-190 936.66 -190 937.32 -190 938 C-190.66 938 -191.32 938 -192 938 C-192 938.66 -192 939.32 -192 940 C-193.32 940 -194.64 940 -196 940 C-196 940.66 -196 941.32 -196 942 C-196.66 942 -197.32 942 -198 942 C-198 942.66 -198 943.32 -198 944 C-198.66 944 -199.32 944 -200 944 C-200 944.66 -200 945.32 -200 946 C-201.32 946 -202.64 946 -204 946 C-204 946.66 -204 947.32 -204 948 C-204.66 948 -205.32 948 -206 948 C-206 948.66 -206 949.32 -206 950 C-207.32 950 -208.64 950 -210 950 C-210 950.66 -210 951.32 -210 952 C-210.66 952 -211.32 952 -212 952 C-212 952.66 -212 953.32 -212 954 C-213.32 954 -214.64 954 -216 954 C-216 954.66 -216 955.32 -216 956 C-216.66 956 -217.32 956 -218 956 C-218 956.66 -218 957.32 -218 958 C-219.32 958 -220.64 958 -222 958 C-222 958.66 -222 959.32 -222 960 C-222.66 960 -223.32 960 -224 960 C-224 960.66 -224 961.32 -224 962 C-225.32 962 -226.64 962 -228 962 C-228 962.66 -228 963.32 -228 964 C-229.32 964 -230.64 964 -232 964 C-232 964.66 -232 965.32 -232 966 C-232.66 966 -233.32 966 -234 966 C-234 966.66 -234 967.32 -234 968 C-235.32 968 -236.64 968 -238 968 C-238 968.66 -238 969.32 -238 970 C-238.66 970 -239.32 970 -240 970 C-240 970.66 -240 971.32 -240 972 C-241.32 972 -242.64 972 -244 972 C-244 972.66 -244 973.32 -244 974 C-245.32 974 -246.64 974 -248 974 C-248 974.66 -248 975.32 -248 976 C-248.66 976 -249.32 976 -250 976 C-250 976.66 -250 977.32 -250 978 C-251.32 978 -252.64 978 -254 978 C-254 978.66 -254 979.32 -254 980 C-255.32 980 -256.64 980 -258 980 C-258 980.66 -258 981.32 -258 982 C-258.66 982 -259.32 982 -260 982 C-260 982.66 -260 983.32 -260 984 C-261.32 984 -262.64 984 -264 984 C-264 984.66 -264 985.32 -264 986 C-265.32 986 -266.64 986 -268 986 C-268 986.66 -268 987.32 -268 988 C-269.32 988 -270.64 988 -272 988 C-272 988.66 -272 989.32 -272 990 C-272.66 990 -273.32 990 -274 990 C-274 990.66 -274 991.32 -274 992 C-275.32 992 -276.64 992 -278 992 C-278 992.66 -278 993.32 -278 994 C-279.32 994 -280.64 994 -282 994 C-282 994.66 -282 995.32 -282 996 C-283.32 996 -284.64 996 -286 996 C-286 996.66 -286 997.32 -286 998 C-287.32 998 -288.64 998 -290 998 C-290 998.66 -290 999.32 -290 1000 C-291.32 1000 -292.64 1000 -294 1000 C-294 1000.66 -294 1001.32 -294 1002 C-295.32 1002 -296.64 1002 -298 1002 C-298 1002.66 -298 1003.32 -298 1004 C-298.66 1004 -299.32 1004 -300 1004 C-300 1004.66 -300 1005.32 -300 1006 C-301.32 1006 -302.64 1006 -304 1006 C-304 1006.66 -304 1007.32 -304 1008 C-305.32 1008 -306.64 1008 -308 1008 C-308 1008.66 -308 1009.32 -308 1010 C-309.98 1010 -311.96 1010 -314 1010 C-314 1010.66 -314 1011.32 -314 1012 C-314.66 1012 -315.32 1012 -316 1012 C-316 1012.66 -316 1013.32 -316 1014 C-317.98 1014 -319.96 1014 -322 1014 C-322 1014.66 -322 1015.32 -322 1016 C-323.32 1016 -324.64 1016 -326 1016 C-326 1016.66 -326 1017.32 -326 1018 C-327.32 1018 -328.64 1018 -330 1018 C-330 1018.66 -330 1019.32 -330 1020 C-331.32 1020 -332.64 1020 -334 1020 C-334 1020.66 -334 1021.32 -334 1022 C-335.32 1022 -336.64 1022 -338 1022 C-338 1022.66 -338 1023.32 -338 1024 C-339.32 1024 -340.64 1024 -342 1024 C-342 1024.66 -342 1025.32 -342 1026 C-343.32 1026 -344.64 1026 -346 1026 C-346 1026.66 -346 1027.32 -346 1028 C-347.98 1028 -349.96 1028 -352 1028 C-352 1028.66 -352 1029.32 -352 1030 C-353.32 1030 -354.64 1030 -356 1030 C-356 1030.66 -356 1031.32 -356 1032 C-357.32 1032 -358.64 1032 -360 1032 C-360 1032.66 -360 1033.32 -360 1034 C-361.98 1034 -363.96 1034 -366 1034 C-366 1034.66 -366 1035.32 -366 1036 C-367.32 1036 -368.64 1036 -370 1036 C-370 1036.66 -370 1037.32 -370 1038 C-371.32 1038 -372.64 1038 -374 1038 C-374 1038.66 -374 1039.32 -374 1040 C-375.98 1040 -377.96 1040 -380 1040 C-380 1040.66 -380 1041.32 -380 1042 C-381.32 1042 -382.64 1042 -384 1042 C-384 1042.66 -384 1043.32 -384 1044 C-385.98 1044 -387.96 1044 -390 1044 C-390 1044.66 -390 1045.32 -390 1046 C-391.98 1046 -393.96 1046 -396 1046 C-396 1046.66 -396 1047.32 -396 1048 C-397.32 1048 -398.64 1048 -400 1048 C-400 1048.66 -400 1049.32 -400 1050 C-401.98 1050 -403.96 1050 -406 1050 C-406 1050.66 -406 1051.32 -406 1052 C-407.98 1052 -409.96 1052 -412 1052 C-412 1052.66 -412 1053.32 -412 1054 C-413.98 1054 -415.96 1054 -418 1054 C-418 1054.66 -418 1055.32 -418 1056 C-419.32 1056 -420.64 1056 -422 1056 C-422 1056.66 -422 1057.32 -422 1058 C-424.64 1058 -427.28 1058 -430 1058 C-430 1058.66 -430 1059.32 -430 1060 C-431.98 1060 -433.96 1060 -436 1060 C-436 1060.66 -436 1061.32 -436 1062 C-437.98 1062 -439.96 1062 -442 1062 C-442 1062.66 -442 1063.32 -442 1064 C-443.98 1064 -445.96 1064 -448 1064 C-448 1064.66 -448 1065.32 -448 1066 C-449.98 1066 -451.96 1066 -454 1066 C-454 1066.66 -454 1067.32 -454 1068 C-456.64 1068 -459.28 1068 -462 1068 C-462 1068.66 -462 1069.32 -462 1070 C-463.98 1070 -465.96 1070 -468 1070 C-468 1070.66 -468 1071.32 -468 1072 C-469.98 1072 -471.96 1072 -474 1072 C-474 1072.66 -474 1073.32 -474 1074 C-477.3 1074 -480.6 1074 -484 1074 C-484 1074.66 -484 1075.32 -484 1076 C-485.98 1076 -487.96 1076 -490 1076 C-490 1076.66 -490 1077.32 -490 1078 C-492.64 1078 -495.28 1078 -498 1078 C-498 1078.66 -498 1079.32 -498 1080 C-500.64 1080 -503.28 1080 -506 1080 C-506 1080.66 -506 1081.32 -506 1082 C-509.3 1082 -512.6 1082 -516 1082 C-516 1082.66 -516 1083.32 -516 1084 C-518.64 1084 -521.28 1084 -524 1084 C-524 1084.66 -524 1085.32 -524 1086 C-527.3 1086 -530.6 1086 -534 1086 C-534 1086.66 -534 1087.32 -534 1088 C-537.3 1088 -540.6 1088 -544 1088 C-544 1088.66 -544 1089.32 -544 1090 C-547.3 1090 -550.6 1090 -554 1090 C-554 1090.66 -554 1091.32 -554 1092 C-558.62 1092 -563.24 1092 -568 1092 C-568 1092.66 -568 1093.32 -568 1094 C-571.3 1094 -574.6 1094 -578 1094 C-578 1094.66 -578 1095.32 -578 1096 C-581.96 1096 -585.92 1096 -590 1096 C-590 1096.66 -590 1097.32 -590 1098 C-595.94 1098 -601.88 1098 -608 1098 C-608 1098.66 -608 1099.32 -608 1100 C-611.96 1100 -615.92 1100 -620 1100 C-620 1100.66 -620 1101.32 -620 1102 C-627.26 1102 -634.52 1102 -642 1102 C-642 1102.66 -642 1103.32 -642 1104 C-653.22 1104 -664.44 1104 -676 1104 C-676 1104.66 -676 1105.32 -676 1106 C-712.96 1106 -749.92 1106 -788 1106 C-788 1105.34 -788 1104.68 -788 1104 C-798.56 1104 -809.12 1104 -820 1104 C-820 1103.34 -820 1102.68 -820 1102 C-827.26 1102 -834.52 1102 -842 1102 C-842 1101.34 -842 1100.68 -842 1100 C-847.28 1100 -852.56 1100 -858 1100 C-858 1099.34 -858 1098.68 -858 1098 C-862.62 1098 -867.24 1098 -872 1098 C-872 1097.34 -872 1096.68 -872 1096 C-875.96 1096 -879.92 1096 -884 1096 C-884 1095.34 -884 1094.68 -884 1094 C-889.28 1094 -894.56 1094 -900 1094 C-900 1093.34 -900 1092.68 -900 1092 C-903.3 1092 -906.6 1092 -910 1092 C-910 1091.34 -910 1090.68 -910 1090 C-913.3 1090 -916.6 1090 -920 1090 C-920 1089.34 -920 1088.68 -920 1088 C-923.96 1088 -927.92 1088 -932 1088 C-932 1087.34 -932 1086.68 -932 1086 C-935.96 1086 -939.92 1086 -944 1086 C-944 1085.34 -944 1084.68 -944 1084 C-945.98 1084 -947.96 1084 -950 1084 C-950 1083.34 -950 1082.68 -950 1082 C-951.98 1082 -953.96 1082 -956 1082 C-956 1081.34 -956 1080.68 -956 1080 C-957.32 1080 -958.64 1080 -960 1080 C-960 1079.34 -960 1078.68 -960 1078 C-960.66 1078 -961.32 1078 -962 1078 C-962 1077.34 -962 1076.68 -962 1076 C-963.32 1076 -964.64 1076 -966 1076 C-966 1075.34 -966 1074.68 -966 1074 C-966.66 1074 -967.32 1074 -968 1074 C-968 1073.34 -968 1072.68 -968 1072 C-968.66 1072 -969.32 1072 -970 1072 C-970 1071.34 -970 1070.68 -970 1070 C-970.66 1070 -971.32 1070 -972 1070 C-972 1069.34 -972 1068.68 -972 1068 C-972.66 1068 -973.32 1068 -974 1068 C-974 1067.34 -974 1066.68 -974 1066 C-974.66 1066 -975.32 1066 -976 1066 C-976 1065.34 -976 1064.68 -976 1064 C-976.66 1064 -977.32 1064 -978 1064 C-978 1062.68 -978 1061.36 -978 1060 C-978.66 1060 -979.32 1060 -980 1060 C-980 1059.34 -980 1058.68 -980 1058 C-980.66 1058 -981.32 1058 -982 1058 C-982 1056.68 -982 1055.36 -982 1054 C-982.66 1054 -983.32 1054 -984 1054 C-984 1052.02 -984 1050.04 -984 1048 C-984.66 1048 -985.32 1048 -986 1048 C-986 1046.68 -986 1045.36 -986 1044 C-986.66 1044 -987.32 1044 -988 1044 C-988 1030.14 -988 1016.28 -988 1002 C-987.34 1002 -986.68 1002 -986 1002 C-986 1000.68 -986 999.36 -986 998 C-985.34 998 -984.68 998 -984 998 C-984 996.68 -984 995.36 -984 994 C-983.34 994 -982.68 994 -982 994 C-982 992.68 -982 991.36 -982 990 C-981.34 990 -980.68 990 -980 990 C-980 988.68 -980 987.36 -980 986 C-979.34 986 -978.68 986 -978 986 C-978 985.34 -978 984.68 -978 984 C-977.34 984 -976.68 984 -976 984 C-976 982.68 -976 981.36 -976 980 C-975.34 980 -974.68 980 -974 980 C-974 979.34 -974 978.68 -974 978 C-973.34 978 -972.68 978 -972 978 C-972 977.34 -972 976.68 -972 976 C-971.34 976 -970.68 976 -970 976 C-970 975.34 -970 974.68 -970 974 C-969.34 974 -968.68 974 -968 974 C-968 973.34 -968 972.68 -968 972 C-967.34 972 -966.68 972 -966 972 C-966 971.34 -966 970.68 -966 970 C-964.68 970 -963.36 970 -962 970 C-962 969.34 -962 968.68 -962 968 C-961.34 968 -960.68 968 -960 968 C-960 967.34 -960 966.68 -960 966 C-958.68 966 -957.36 966 -956 966 C-956 965.34 -956 964.68 -956 964 C-954.68 964 -953.36 964 -952 964 C-952 963.34 -952 962.68 -952 962 C-950.02 962 -948.04 962 -946 962 C-946 961.34 -946 960.68 -946 960 C-944.68 960 -943.36 960 -942 960 C-942 959.34 -942 958.68 -942 958 C-940.68 958 -939.36 958 -938 958 C-938 957.34 -938 956.68 -938 956 C-936.02 956 -934.04 956 -932 956 C-932 955.34 -932 954.68 -932 954 C-930.68 954 -929.36 954 -928 954 C-928 953.34 -928 952.68 -928 952 C-926.68 952 -925.36 952 -924 952 C-924 951.34 -924 950.68 -924 950 C-922.68 950 -921.36 950 -920 950 C-920 949.34 -920 948.68 -920 948 C-918.68 948 -917.36 948 -916 948 C-916 947.34 -916 946.68 -916 946 C-914.02 946 -912.04 946 -910 946 C-910 945.34 -910 944.68 -910 944 C-908.68 944 -907.36 944 -906 944 C-906 943.34 -906 942.68 -906 942 C-904.68 942 -903.36 942 -902 942 C-902 941.34 -902 940.68 -902 940 C-900.68 940 -899.36 940 -898 940 C-898 939.34 -898 938.68 -898 938 C-896.68 938 -895.36 938 -894 938 C-894 937.34 -894 936.68 -894 936 C-892.68 936 -891.36 936 -890 936 C-890 935.34 -890 934.68 -890 934 C-888.68 934 -887.36 934 -886 934 C-886 933.34 -886 932.68 -886 932 C-884.68 932 -883.36 932 -882 932 C-882 931.34 -882 930.68 -882 930 C-880.68 930 -879.36 930 -878 930 C-878 929.34 -878 928.68 -878 928 C-876.68 928 -875.36 928 -874 928 C-874 927.34 -874 926.68 -874 926 C-872.68 926 -871.36 926 -870 926 C-870 925.34 -870 924.68 -870 924 C-868.68 924 -867.36 924 -866 924 C-866 923.34 -866 922.68 -866 922 C-864.68 922 -863.36 922 -862 922 C-862 921.34 -862 920.68 -862 920 C-860.68 920 -859.36 920 -858 920 C-858 919.34 -858 918.68 -858 918 C-856.68 918 -855.36 918 -854 918 C-854 917.34 -854 916.68 -854 916 C-852.68 916 -851.36 916 -850 916 C-850 915.34 -850 914.68 -850 914 C-849.34 914 -848.68 914 -848 914 C-848 913.34 -848 912.68 -848 912 C-846.68 912 -845.36 912 -844 912 C-844 911.34 -844 910.68 -844 910 C-842.68 910 -841.36 910 -840 910 C-840 909.34 -840 908.68 -840 908 C-839.34 908 -838.68 908 -838 908 C-838 907.34 -838 906.68 -838 906 C-836.68 906 -835.36 906 -834 906 C-834 905.34 -834 904.68 -834 904 C-832.68 904 -831.36 904 -830 904 C-830 903.34 -830 902.68 -830 902 C-828.68 902 -827.36 902 -826 902 C-826 901.34 -826 900.68 -826 900 C-825.34 900 -824.68 900 -824 900 C-824 899.34 -824 898.68 -824 898 C-822.68 898 -821.36 898 -820 898 C-820 897.34 -820 896.68 -820 896 C-818.68 896 -817.36 896 -816 896 C-816 895.34 -816 894.68 -816 894 C-815.34 894 -814.68 894 -814 894 C-814 893.34 -814 892.68 -814 892 C-812.68 892 -811.36 892 -810 892 C-810 891.34 -810 890.68 -810 890 C-809.34 890 -808.68 890 -808 890 C-808 889.34 -808 888.68 -808 888 C-806.68 888 -805.36 888 -804 888 C-804 887.34 -804 886.68 -804 886 C-802.68 886 -801.36 886 -800 886 C-800 885.34 -800 884.68 -800 884 C-799.34 884 -798.68 884 -798 884 C-798 883.34 -798 882.68 -798 882 C-796.68 882 -795.36 882 -794 882 C-794 881.34 -794 880.68 -794 880 C-793.34 880 -792.68 880 -792 880 C-792 879.34 -792 878.68 -792 878 C-790.68 878 -789.36 878 -788 878 C-788 877.34 -788 876.68 -788 876 C-787.34 876 -786.68 876 -786 876 C-786 875.34 -786 874.68 -786 874 C-784.68 874 -783.36 874 -782 874 C-782 873.34 -782 872.68 -782 872 C-781.34 872 -780.68 872 -780 872 C-780 871.34 -780 870.68 -780 870 C-779.34 870 -778.68 870 -778 870 C-778 869.34 -778 868.68 -778 868 C-776.68 868 -775.36 868 -774 868 C-774 867.34 -774 866.68 -774 866 C-773.34 866 -772.68 866 -772 866 C-772 865.34 -772 864.68 -772 864 C-770.68 864 -769.36 864 -768 864 C-768 863.34 -768 862.68 -768 862 C-767.34 862 -766.68 862 -766 862 C-766 861.34 -766 860.68 -766 860 C-765.34 860 -764.68 860 -764 860 C-764 859.34 -764 858.68 -764 858 C-762.68 858 -761.36 858 -760 858 C-760 857.34 -760 856.68 -760 856 C-759.34 856 -758.68 856 -758 856 C-758 855.34 -758 854.68 -758 854 C-757.34 854 -756.68 854 -756 854 C-756 853.34 -756 852.68 -756 852 C-755.34 852 -754.68 852 -754 852 C-754 851.34 -754 850.68 -754 850 C-752.68 850 -751.36 850 -750 850 C-750 849.34 -750 848.68 -750 848 C-749.34 848 -748.68 848 -748 848 C-748 847.34 -748 846.68 -748 846 C-747.34 846 -746.68 846 -746 846 C-746 845.34 -746 844.68 -746 844 C-745.34 844 -744.68 844 -744 844 C-744 843.34 -744 842.68 -744 842 C-742.68 842 -741.36 842 -740 842 C-740 841.34 -740 840.68 -740 840 C-739.34 840 -738.68 840 -738 840 C-738 839.34 -738 838.68 -738 838 C-737.34 838 -736.68 838 -736 838 C-736 837.34 -736 836.68 -736 836 C-735.34 836 -734.68 836 -734 836 C-734 835.34 -734 834.68 -734 834 C-732.68 834 -731.36 834 -730 834 C-730 833.34 -730 832.68 -730 832 C-729.34 832 -728.68 832 -728 832 C-728 831.34 -728 830.68 -728 830 C-727.34 830 -726.68 830 -726 830 C-726 829.34 -726 828.68 -726 828 C-725.34 828 -724.68 828 -724 828 C-724 827.34 -724 826.68 -724 826 C-723.34 826 -722.68 826 -722 826 C-722 825.34 -722 824.68 -722 824 C-721.34 824 -720.68 824 -720 824 C-720 823.34 -720 822.68 -720 822 C-719.34 822 -718.68 822 -718 822 C-718 821.34 -718 820.68 -718 820 C-717.34 820 -716.68 820 -716 820 C-716 819.34 -716 818.68 -716 818 C-715.34 818 -714.68 818 -714 818 C-714 817.34 -714 816.68 -714 816 C-713.34 816 -712.68 816 -712 816 C-712 815.34 -712 814.68 -712 814 C-711.34 814 -710.68 814 -710 814 C-710 813.34 -710 812.68 -710 812 C-709.34 812 -708.68 812 -708 812 C-708 811.34 -708 810.68 -708 810 C-707.34 810 -706.68 810 -706 810 C-706 809.34 -706 808.68 -706 808 C-705.34 808 -704.68 808 -704 808 C-704 807.34 -704 806.68 -704 806 C-703.34 806 -702.68 806 -702 806 C-702 805.34 -702 804.68 -702 804 C-701.34 804 -700.68 804 -700 804 C-700 803.34 -700 802.68 -700 802 C-699.34 802 -698.68 802 -698 802 C-698 801.34 -698 800.68 -698 800 C-697.34 800 -696.68 800 -696 800 C-696 799.34 -696 798.68 -696 798 C-695.34 798 -694.68 798 -694 798 C-694 797.34 -694 796.68 -694 796 C-693.34 796 -692.68 796 -692 796 C-692 795.34 -692 794.68 -692 794 C-691.34 794 -690.68 794 -690 794 C-690 793.34 -690 792.68 -690 792 C-689.34 792 -688.68 792 -688 792 C-688 791.34 -688 790.68 -688 790 C-687.34 790 -686.68 790 -686 790 C-686 789.34 -686 788.68 -686 788 C-685.34 788 -684.68 788 -684 788 C-684 787.34 -684 786.68 -684 786 C-683.34 786 -682.68 786 -682 786 C-682 785.34 -682 784.68 -682 784 C-681.34 784 -680.68 784 -680 784 C-680 783.34 -680 782.68 -680 782 C-679.34 782 -678.68 782 -678 782 C-678 781.34 -678 780.68 -678 780 C-677.34 780 -676.68 780 -676 780 C-676 779.34 -676 778.68 -676 778 C-675.34 778 -674.68 778 -674 778 C-674 776.68 -674 775.36 -674 774 C-673.34 774 -672.68 774 -672 774 C-672 773.34 -672 772.68 -672 772 C-671.34 772 -670.68 772 -670 772 C-670 771.34 -670 770.68 -670 770 C-669.34 770 -668.68 770 -668 770 C-668 769.34 -668 768.68 -668 768 C-667.34 768 -666.68 768 -666 768 C-666 766.68 -666 765.36 -666 764 C-665.34 764 -664.68 764 -664 764 C-664 763.34 -664 762.68 -664 762 C-663.34 762 -662.68 762 -662 762 C-662 761.34 -662 760.68 -662 760 C-661.34 760 -660.68 760 -660 760 C-660 759.34 -660 758.68 -660 758 C-659.34 758 -658.68 758 -658 758 C-658 756.68 -658 755.36 -658 754 C-657.34 754 -656.68 754 -656 754 C-656 753.34 -656 752.68 -656 752 C-655.34 752 -654.68 752 -654 752 C-654 751.34 -654 750.68 -654 750 C-653.34 750 -652.68 750 -652 750 C-652 748.68 -652 747.36 -652 746 C-651.34 746 -650.68 746 -650 746 C-650 745.34 -650 744.68 -650 744 C-649.34 744 -648.68 744 -648 744 C-648 743.34 -648 742.68 -648 742 C-647.34 742 -646.68 742 -646 742 C-646 740.68 -646 739.36 -646 738 C-645.34 738 -644.68 738 -644 738 C-644 737.34 -644 736.68 -644 736 C-643.34 736 -642.68 736 -642 736 C-642 734.68 -642 733.36 -642 732 C-641.34 732 -640.68 732 -640 732 C-640 731.34 -640 730.68 -640 730 C-639.34 730 -638.68 730 -638 730 C-638 728.68 -638 727.36 -638 726 C-637.34 726 -636.68 726 -636 726 C-636 725.34 -636 724.68 -636 724 C-635.34 724 -634.68 724 -634 724 C-634 722.68 -634 721.36 -634 720 C-633.34 720 -632.68 720 -632 720 C-632 719.34 -632 718.68 -632 718 C-631.34 718 -630.68 718 -630 718 C-630 716.68 -630 715.36 -630 714 C-629.34 714 -628.68 714 -628 714 C-628 712.68 -628 711.36 -628 710 C-627.34 710 -626.68 710 -626 710 C-626 709.34 -626 708.68 -626 708 C-625.34 708 -624.68 708 -624 708 C-624 706.68 -624 705.36 -624 704 C-623.34 704 -622.68 704 -622 704 C-622 702.68 -622 701.36 -622 700 C-621.34 700 -620.68 700 -620 700 C-620 698.68 -620 697.36 -620 696 C-619.34 696 -618.68 696 -618 696 C-618 695.34 -618 694.68 -618 694 C-617.34 694 -616.68 694 -616 694 C-616 692.68 -616 691.36 -616 690 C-615.34 690 -614.68 690 -614 690 C-614 688.68 -614 687.36 -614 686 C-613.34 686 -612.68 686 -612 686 C-612 684.68 -612 683.36 -612 682 C-611.34 682 -610.68 682 -610 682 C-610 680.68 -610 679.36 -610 678 C-609.34 678 -608.68 678 -608 678 C-608 676.68 -608 675.36 -608 674 C-607.34 674 -606.68 674 -606 674 C-606 672.68 -606 671.36 -606 670 C-605.34 670 -604.68 670 -604 670 C-604 668.68 -604 667.36 -604 666 C-603.34 666 -602.68 666 -602 666 C-602 664.68 -602 663.36 -602 662 C-601.34 662 -600.68 662 -600 662 C-600 660.68 -600 659.36 -600 658 C-599.34 658 -598.68 658 -598 658 C-598 656.68 -598 655.36 -598 654 C-597.34 654 -596.68 654 -596 654 C-596 652.68 -596 651.36 -596 650 C-595.34 650 -594.68 650 -594 650 C-594 648.68 -594 647.36 -594 646 C-593.34 646 -592.68 646 -592 646 C-592 644.02 -592 642.04 -592 640 C-591.34 640 -590.68 640 -590 640 C-590 638.68 -590 637.36 -590 636 C-589.34 636 -588.68 636 -588 636 C-588 634.68 -588 633.36 -588 632 C-587.34 632 -586.68 632 -586 632 C-586 630.68 -586 629.36 -586 628 C-585.34 628 -584.68 628 -584 628 C-584 626.02 -584 624.04 -584 622 C-583.34 622 -582.68 622 -582 622 C-582 620.68 -582 619.36 -582 618 C-581.34 618 -580.68 618 -580 618 C-580 616.02 -580 614.04 -580 612 C-579.34 612 -578.68 612 -578 612 C-578 610.68 -578 609.36 -578 608 C-577.34 608 -576.68 608 -576 608 C-576 606.02 -576 604.04 -576 602 C-575.34 602 -574.68 602 -574 602 C-574 600.68 -574 599.36 -574 598 C-573.34 598 -572.68 598 -572 598 C-572 596.02 -572 594.04 -572 592 C-571.34 592 -570.68 592 -570 592 C-570 590.02 -570 588.04 -570 586 C-569.34 586 -568.68 586 -568 586 C-568 584.68 -568 583.36 -568 582 C-567.34 582 -566.68 582 -566 582 C-566 580.02 -566 578.04 -566 576 C-565.34 576 -564.68 576 -564 576 C-564 574.02 -564 572.04 -564 570 C-563.34 570 -562.68 570 -562 570 C-562 568.02 -562 566.04 -562 564 C-561.34 564 -560.68 564 -560 564 C-560 562.02 -560 560.04 -560 558 C-559.34 558 -558.68 558 -558 558 C-558 556.02 -558 554.04 -558 552 C-557.34 552 -556.68 552 -556 552 C-556 550.02 -556 548.04 -556 546 C-555.34 546 -554.68 546 -554 546 C-554 544.02 -554 542.04 -554 540 C-553.34 540 -552.68 540 -552 540 C-552 538.02 -552 536.04 -552 534 C-551.34 534 -550.68 534 -550 534 C-550 532.02 -550 530.04 -550 528 C-549.34 528 -548.68 528 -548 528 C-548 526.02 -548 524.04 -548 522 C-547.34 522 -546.68 522 -546 522 C-546 520.02 -546 518.04 -546 516 C-545.34 516 -544.68 516 -544 516 C-544 513.36 -544 510.72 -544 508 C-543.34 508 -542.68 508 -542 508 C-542 506.02 -542 504.04 -542 502 C-541.34 502 -540.68 502 -540 502 C-540 499.36 -540 496.72 -540 494 C-539.34 494 -538.68 494 -538 494 C-538 492.02 -538 490.04 -538 488 C-537.34 488 -536.68 488 -536 488 C-536 486.02 -536 484.04 -536 482 C-535.34 482 -534.68 482 -534 482 C-534 480.02 -534 478.04 -534 476 C-533.34 476 -532.68 476 -532 476 C-532 473.36 -532 470.72 -532 468 C-531.34 468 -530.68 468 -530 468 C-530 466.02 -530 464.04 -530 462 C-529.34 462 -528.68 462 -528 462 C-528 459.36 -528 456.72 -528 454 C-527.34 454 -526.68 454 -526 454 C-526 452.02 -526 450.04 -526 448 C-525.34 448 -524.68 448 -524 448 C-524 445.36 -524 442.72 -524 440 C-523.34 440 -522.68 440 -522 440 C-522 437.36 -522 434.72 -522 432 C-521.34 432 -520.68 432 -520 432 C-520 430.02 -520 428.04 -520 426 C-519.34 426 -518.68 426 -518 426 C-518 424.02 -518 422.04 -518 420 C-517.34 420 -516.68 420 -516 420 C-516 417.36 -516 414.72 -516 412 C-515.34 412 -514.68 412 -514 412 C-514 409.36 -514 406.72 -514 404 C-513.34 404 -512.68 404 -512 404 C-512 402.02 -512 400.04 -512 398 C-511.34 398 -510.68 398 -510 398 C-510 395.36 -510 392.72 -510 390 C-509.34 390 -508.68 390 -508 390 C-508 387.36 -508 384.72 -508 382 C-507.34 382 -506.68 382 -506 382 C-506 379.36 -506 376.72 -506 374 C-505.34 374 -504.68 374 -504 374 C-504 371.36 -504 368.72 -504 366 C-503.34 366 -502.68 366 -502 366 C-502 364.02 -502 362.04 -502 360 C-501.34 360 -500.68 360 -500 360 C-500 358.02 -500 356.04 -500 354 C-499.34 354 -498.68 354 -498 354 C-498 351.36 -498 348.72 -498 346 C-497.34 346 -496.68 346 -496 346 C-496 344.02 -496 342.04 -496 340 C-495.34 340 -494.68 340 -494 340 C-494 338.02 -494 336.04 -494 334 C-493.34 334 -492.68 334 -492 334 C-492 332.68 -492 331.36 -492 330 C-491.34 330 -490.68 330 -490 330 C-490 328.02 -490 326.04 -490 324 C-489.34 324 -488.68 324 -488 324 C-488 322.68 -488 321.36 -488 320 C-487.34 320 -486.68 320 -486 320 C-486 318.68 -486 317.36 -486 316 C-485.34 316 -484.68 316 -484 316 C-484 314.02 -484 312.04 -484 310 C-483.34 310 -482.68 310 -482 310 C-482 308.68 -482 307.36 -482 306 C-481.34 306 -480.68 306 -480 306 C-480 304.68 -480 303.36 -480 302 C-479.34 302 -478.68 302 -478 302 C-478 301.34 -478 300.68 -478 300 C-477.34 300 -476.68 300 -476 300 C-476 298.68 -476 297.36 -476 296 C-475.34 296 -474.68 296 -474 296 C-474 294.68 -474 293.36 -474 292 C-473.34 292 -472.68 292 -472 292 C-472 290.68 -472 289.36 -472 288 C-471.34 288 -470.68 288 -470 288 C-470 286.68 -470 285.36 -470 284 C-469.34 284 -468.68 284 -468 284 C-468 283.34 -468 282.68 -468 282 C-467.34 282 -466.68 282 -466 282 C-466 280.68 -466 279.36 -466 278 C-465.34 278 -464.68 278 -464 278 C-464 277.34 -464 276.68 -464 276 C-463.34 276 -462.68 276 -462 276 C-462 274.68 -462 273.36 -462 272 C-461.34 272 -460.68 272 -460 272 C-460 270.68 -460 269.36 -460 268 C-459.34 268 -458.68 268 -458 268 C-458 267.34 -458 266.68 -458 266 C-457.34 266 -456.68 266 -456 266 C-456 264.68 -456 263.36 -456 262 C-455.34 262 -454.68 262 -454 262 C-454 261.34 -454 260.68 -454 260 C-453.34 260 -452.68 260 -452 260 C-452 259.34 -452 258.68 -452 258 C-451.34 258 -450.68 258 -450 258 C-450 256.68 -450 255.36 -450 254 C-449.34 254 -448.68 254 -448 254 C-448 253.34 -448 252.68 -448 252 C-447.34 252 -446.68 252 -446 252 C-446 251.34 -446 250.68 -446 250 C-445.34 250 -444.68 250 -444 250 C-444 248.68 -444 247.36 -444 246 C-443.34 246 -442.68 246 -442 246 C-442 245.34 -442 244.68 -442 244 C-441.34 244 -440.68 244 -440 244 C-440 243.34 -440 242.68 -440 242 C-439.34 242 -438.68 242 -438 242 C-438 241.34 -438 240.68 -438 240 C-437.34 240 -436.68 240 -436 240 C-436 239.34 -436 238.68 -436 238 C-435.34 238 -434.68 238 -434 238 C-434 237.34 -434 236.68 -434 236 C-433.34 236 -432.68 236 -432 236 C-432 235.34 -432 234.68 -432 234 C-431.34 234 -430.68 234 -430 234 C-430 233.34 -430 232.68 -430 232 C-429.34 232 -428.68 232 -428 232 C-428 231.34 -428 230.68 -428 230 C-427.34 230 -426.68 230 -426 230 C-426 229.34 -426 228.68 -426 228 C-425.34 228 -424.68 228 -424 228 C-424 227.34 -424 226.68 -424 226 C-423.34 226 -422.68 226 -422 226 C-422 225.34 -422 224.68 -422 224 C-421.34 224 -420.68 224 -420 224 C-420 223.34 -420 222.68 -420 222 C-419.34 222 -418.68 222 -418 222 C-418 221.34 -418 220.68 -418 220 C-417.34 220 -416.68 220 -416 220 C-416 219.34 -416 218.68 -416 218 C-415.34 218 -414.68 218 -414 218 C-414 217.34 -414 216.68 -414 216 C-413.34 216 -412.68 216 -412 216 C-412 215.34 -412 214.68 -412 214 C-411.34 214 -410.68 214 -410 214 C-410 213.34 -410 212.68 -410 212 C-409.34 212 -408.68 212 -408 212 C-408 211.34 -408 210.68 -408 210 C-407.34 210 -406.68 210 -406 210 C-406 209.34 -406 208.68 -406 208 C-405.34 208 -404.68 208 -404 208 C-404 207.34 -404 206.68 -404 206 C-403.34 206 -402.68 206 -402 206 C-402 205.34 -402 204.68 -402 204 C-401.34 204 -400.68 204 -400 204 C-400 203.34 -400 202.68 -400 202 C-399.34 202 -398.68 202 -398 202 C-398 201.34 -398 200.68 -398 200 C-397.34 200 -396.68 200 -396 200 C-396 199.34 -396 198.68 -396 198 C-394.68 198 -393.36 198 -392 198 C-392 197.34 -392 196.68 -392 196 C-391.34 196 -390.68 196 -390 196 C-390 195.34 -390 194.68 -390 194 C-389.34 194 -388.68 194 -388 194 C-388 193.34 -388 192.68 -388 192 C-386.68 192 -385.36 192 -384 192 C-384 191.34 -384 190.68 -384 190 C-383.34 190 -382.68 190 -382 190 C-382 189.34 -382 188.68 -382 188 C-381.34 188 -380.68 188 -380 188 C-380 187.34 -380 186.68 -380 186 C-378.68 186 -377.36 186 -376 186 C-376 185.34 -376 184.68 -376 184 C-375.34 184 -374.68 184 -374 184 C-374 183.34 -374 182.68 -374 182 C-372.68 182 -371.36 182 -370 182 C-370 181.34 -370 180.68 -370 180 C-369.34 180 -368.68 180 -368 180 C-368 179.34 -368 178.68 -368 178 C-366.68 178 -365.36 178 -364 178 C-364 177.34 -364 176.68 -364 176 C-362.68 176 -361.36 176 -360 176 C-360 175.34 -360 174.68 -360 174 C-359.34 174 -358.68 174 -358 174 C-358 173.34 -358 172.68 -358 172 C-356.68 172 -355.36 172 -354 172 C-354 171.34 -354 170.68 -354 170 C-352.68 170 -351.36 170 -350 170 C-350 169.34 -350 168.68 -350 168 C-349.34 168 -348.68 168 -348 168 C-348 167.34 -348 166.68 -348 166 C-346.68 166 -345.36 166 -344 166 C-344 165.34 -344 164.68 -344 164 C-342.68 164 -341.36 164 -340 164 C-340 163.34 -340 162.68 -340 162 C-338.68 162 -337.36 162 -336 162 C-336 161.34 -336 160.68 -336 160 C-334.68 160 -333.36 160 -332 160 C-332 159.34 -332 158.68 -332 158 C-330.68 158 -329.36 158 -328 158 C-328 157.34 -328 156.68 -328 156 C-326.02 156 -324.04 156 -322 156 C-322 155.34 -322 154.68 -322 154 C-320.68 154 -319.36 154 -318 154 C-318 153.34 -318 152.68 -318 152 C-316.02 152 -314.04 152 -312 152 C-312 151.34 -312 150.68 -312 150 C-310.68 150 -309.36 150 -308 150 C-308 149.34 -308 148.68 -308 148 C-306.02 148 -304.04 148 -302 148 C-302 147.34 -302 146.68 -302 146 C-300.68 146 -299.36 146 -298 146 C-298 145.34 -298 144.68 -298 144 C-296.02 144 -294.04 144 -292 144 C-292 143.34 -292 142.68 -292 142 C-289.36 142 -286.72 142 -284 142 C-284 141.34 -284 140.68 -284 140 C-282.02 140 -280.04 140 -278 140 C-278 139.34 -278 138.68 -278 138 C-275.36 138 -272.72 138 -270 138 C-270 137.34 -270 136.68 -270 136 C-266.7 136 -263.4 136 -260 136 C-260 135.34 -260 134.68 -260 134 C-257.36 134 -254.72 134 -252 134 C-252 133.34 -252 132.68 -252 132 C-248.04 132 -244.08 132 -240 132 C-240 131.34 -240 130.68 -240 130 C-234.06 130 -228.12 130 -222 130 C-222 129.34 -222 128.68 -222 128 C-197.58 128 -173.16 128 -148 128 C-148 126.68 -148 125.36 -148 124 C-147.34 124 -146.68 124 -146 124 C-146 122.68 -146 121.36 -146 120 C-145.34 120 -144.68 120 -144 120 C-144 118.68 -144 117.36 -144 116 C-143.34 116 -142.68 116 -142 116 C-142 114.68 -142 113.36 -142 112 C-141.34 112 -140.68 112 -140 112 C-140 110.68 -140 109.36 -140 108 C-139.34 108 -138.68 108 -138 108 C-138 106.68 -138 105.36 -138 104 C-137.34 104 -136.68 104 -136 104 C-136 103.34 -136 102.68 -136 102 C-135.34 102 -134.68 102 -134 102 C-134 100.68 -134 99.36 -134 98 C-133.34 98 -132.68 98 -132 98 C-132 96.68 -132 95.36 -132 94 C-131.34 94 -130.68 94 -130 94 C-130 93.34 -130 92.68 -130 92 C-129.34 92 -128.68 92 -128 92 C-128 90.68 -128 89.36 -128 88 C-127.34 88 -126.68 88 -126 88 C-126 87.34 -126 86.68 -126 86 C-125.34 86 -124.68 86 -124 86 C-124 84.68 -124 83.36 -124 82 C-123.34 82 -122.68 82 -122 82 C-122 81.34 -122 80.68 -122 80 C-121.34 80 -120.68 80 -120 80 C-120 78.68 -120 77.36 -120 76 C-119.34 76 -118.68 76 -118 76 C-118 75.34 -118 74.68 -118 74 C-117.34 74 -116.68 74 -116 74 C-116 73.34 -116 72.68 -116 72 C-115.34 72 -114.68 72 -114 72 C-114 70.68 -114 69.36 -114 68 C-113.34 68 -112.68 68 -112 68 C-112 67.34 -112 66.68 -112 66 C-111.34 66 -110.68 66 -110 66 C-110 65.34 -110 64.68 -110 64 C-109.34 64 -108.68 64 -108 64 C-108 63.34 -108 62.68 -108 62 C-107.34 62 -106.68 62 -106 62 C-106 61.34 -106 60.68 -106 60 C-105.34 60 -104.68 60 -104 60 C-104 59.34 -104 58.68 -104 58 C-103.34 58 -102.68 58 -102 58 C-102 57.34 -102 56.68 -102 56 C-101.34 56 -100.68 56 -100 56 C-100 55.34 -100 54.68 -100 54 C-99.34 54 -98.68 54 -98 54 C-98 53.34 -98 52.68 -98 52 C-97.34 52 -96.68 52 -96 52 C-96 51.34 -96 50.68 -96 50 C-95.34 50 -94.68 50 -94 50 C-94 49.34 -94 48.68 -94 48 C-93.34 48 -92.68 48 -92 48 C-92 47.34 -92 46.68 -92 46 C-91.34 46 -90.68 46 -90 46 C-90 45.34 -90 44.68 -90 44 C-89.34 44 -88.68 44 -88 44 C-88 43.34 -88 42.68 -88 42 C-87.34 42 -86.68 42 -86 42 C-86 41.34 -86 40.68 -86 40 C-85.34 40 -84.68 40 -84 40 C-84 39.34 -84 38.68 -84 38 C-83.34 38 -82.68 38 -82 38 C-82 37.34 -82 36.68 -82 36 C-81.34 36 -80.68 36 -80 36 C-80 35.34 -80 34.68 -80 34 C-78.68 34 -77.36 34 -76 34 C-76 33.34 -76 32.68 -76 32 C-75.34 32 -74.68 32 -74 32 C-74 31.34 -74 30.68 -74 30 C-72.68 30 -71.36 30 -70 30 C-70 29.34 -70 28.68 -70 28 C-69.34 28 -68.68 28 -68 28 C-68 27.34 -68 26.68 -68 26 C-66.68 26 -65.36 26 -64 26 C-64 25.34 -64 24.68 -64 24 C-63.34 24 -62.68 24 -62 24 C-62 23.34 -62 22.68 -62 22 C-60.68 22 -59.36 22 -58 22 C-58 21.34 -58 20.68 -58 20 C-56.68 20 -55.36 20 -54 20 C-54 19.34 -54 18.68 -54 18 C-52.68 18 -51.36 18 -50 18 C-50 17.34 -50 16.68 -50 16 C-48.68 16 -47.36 16 -46 16 C-46 15.34 -46 14.68 -46 14 C-44.68 14 -43.36 14 -42 14 C-42 13.34 -42 12.68 -42 12 C-40.68 12 -39.36 12 -38 12 C-38 11.34 -38 10.68 -38 10 C-36.02 10 -34.04 10 -32 10 C-32 9.34 -32 8.68 -32 8 C-30.02 8 -28.04 8 -26 8 C-26 7.34 -26 6.68 -26 6 C-23.36 6 -20.72 6 -18 6 C-18 5.34 -18 4.68 -18 4 C-16.02 4 -14.04 4 -12 4 C-12 3.34 -12 2.68 -12 2 C-8.04 2 -4.08 2 0 2 C0 1.34 0 0.68 0 0 Z" transform="translate(1193,205)"/>
</svg>
