<svg xmlns="http://www.w3.org/2000/svg" width="24" height="24" viewBox="0 0 24 24" fill="currentColor">
  <path d="M 7.1,20.58 L 5.39,20.49 L 3.69,20.2 L 3.31,19.92 L 3.16,19.64 L 3.14,19.05 L 3.3,18.75 L 3.59,18.48 L 5.18,17.73 L 6.72,16.74 L 7.79,15.75 L 8.34,15.06 L 8.89,14.16 L 9.31,13.25 L 9.85,11.76 L 10.62,8.98 L 10.93,8.3 L 11.37,7.61 L 12.26,6.72 L 13.39,6.07 L 14.63,5.73 L 15.9,5.73 L 16.2,5.19 L 16.61,4.64 L 17.06,4.24 L 17.59,3.94 L 18.41,3.75 L 18.85,3.81 L 19.58,4.07 L 19.24,5.48 L 18.59,5.44 L 18.38,5.55 L 18.07,6.05 L 17.95,6.5 L 18.91,7.31 L 19.45,8.04 L 19.77,8.63 L 20.12,9.84 L 20.19,10.49 L 20.15,11.16 L 19.99,12.0 L 19.58,13.02 L 18.94,14.15 L 18.27,15.09 L 17.17,16.34 L 15.88,17.51 L 14.6,18.42 L 13.2,19.2 L 11.95,19.73 L 10.17,20.25 L 8.39,20.52 L 7.1,20.58 Z"/>
</svg>
