<?xml version="1.0" encoding="UTF-8"?>
<svg version="1.1" xmlns="http://www.w3.org/2000/svg" width="1200" height="1200">
<path d="M0 0 C1.36029084 -0.00702498 2.72058136 -0.01411177 4.08087158 -0.02125549 C8.40417967 -0.04064824 12.72743405 -0.04568995 17.05078125 -0.046875 C17.78817158 -0.04731686 18.5255619 -0.04775871 19.28529739 -0.04821396 C41.40461053 -0.05516189 63.37218652 0.18367024 85.34967041 2.94989014 C87.45415847 3.21455386 89.5597295 3.46912769 91.66552734 3.72314453 C177.15146732 14.17788072 262.65445442 42.72231173 380.71875 120.90722656 C382.45563039 122.27589656 384.20529414 123.62697149 385.95703125 124.9765625 C396.75033217 133.32923317 407.16219846 142.13779029 417.36328125 151.203125 C418.08257813 151.84121094 418.801875 152.47929687 419.54296875 153.13671875 C447.27224405 177.9112352 447.27224405 177.9112352 458.36328125 190.921875 C460.53227572 193.39588431 462.77170688 195.79212613 465.02416992 198.18994141 C471.0915586 204.6522591 476.84397436 211.26160763 482.36328125 218.203125 C483.27105246 219.31989158 484.17996977 220.43572721 485.08984375 221.55078125 C506.10862785 247.39891896 525.05352919 275.14891056 541.36328125 304.203125 C541.88937988 305.13721191 542.41547852 306.07129883 542.95751953 307.03369141 C568.98384425 353.50648412 588.23797611 402.61464118 601.36328125 454.203125 C601.76836914 455.7806958 601.76836914 455.7806958 602.18164062 457.39013672 C608.682789 483.04559446 612.77292989 509.22811685 615.67578125 535.515625 C615.7570929 536.25117615 615.83840454 536.98672729 615.92218018 537.74456787 C617.52484457 552.44234454 618.51460462 567.0837066 618.56640625 581.875 C618.57343052 583.23800691 618.58051732 584.60101349 618.58766174 585.96401978 C618.60704884 590.29372639 618.61209594 594.62337935 618.61328125 598.953125 C618.61372311 599.69151863 618.61416496 600.42991226 618.61462021 601.19068146 C618.6216737 623.67452736 618.20935475 645.87047215 615.36328125 668.203125 C615.18883161 669.65400111 615.01552947 671.10501556 614.84326172 672.55615234 C604.56494595 758.41757207 576.04601486 844.18037348 497.65917969 962.55859375 C496.29050969 964.29547414 494.93943476 966.04513789 493.58984375 967.796875 C485.23717308 978.59017592 476.42861596 989.00204221 467.36328125 999.203125 C466.72519531 999.92242188 466.08710937 1000.64171875 465.4296875 1001.3828125 C440.65517105 1029.1120878 440.65517105 1029.1120878 427.64453125 1040.203125 C425.17052194 1042.37211947 422.77428012 1044.61155063 420.37646484 1046.86401367 C413.91414715 1052.93140235 407.30479862 1058.68381811 400.36328125 1064.203125 C399.24651467 1065.11089621 398.13067904 1066.01981352 397.015625 1066.9296875 C371.16748729 1087.9484716 343.41749569 1106.89337294 314.36328125 1123.203125 C313.42919434 1123.72922363 312.49510742 1124.25532227 311.53271484 1124.79736328 C265.05992213 1150.823688 215.95176507 1170.07781986 164.36328125 1183.203125 C163.31156738 1183.47318359 162.25985352 1183.74324219 161.17626953 1184.02148438 C135.52081179 1190.52263275 109.3382894 1194.61277364 83.05078125 1197.515625 C82.3152301 1197.59693665 81.57967896 1197.67824829 80.82183838 1197.76202393 C66.12406171 1199.36468832 51.48269965 1200.35444837 36.69140625 1200.40625 C35.32839934 1200.41327427 33.96539276 1200.42036107 32.60238647 1200.42750549 C28.27267986 1200.44689259 23.9430269 1200.45193969 19.61328125 1200.453125 C18.5056908 1200.45378778 18.5056908 1200.45378778 17.37572479 1200.45446396 C-5.10812111 1200.46151745 -27.3040659 1200.0491985 -49.63671875 1197.203125 C-51.08759486 1197.02867536 -52.53860931 1196.85537322 -53.98974609 1196.68310547 C-139.85116582 1186.4047897 -225.61396723 1157.88585861 -343.9921875 1079.49902344 C-345.72906789 1078.13035344 -347.47873164 1076.77927851 -349.23046875 1075.4296875 C-360.02376967 1067.07701683 -370.43563596 1058.26845971 -380.63671875 1049.203125 C-381.35601562 1048.56503906 -382.0753125 1047.92695312 -382.81640625 1047.26953125 C-410.54568155 1022.4950148 -410.54568155 1022.4950148 -421.63671875 1009.484375 C-423.80571322 1007.01036569 -426.04514438 1004.61412387 -428.29760742 1002.21630859 C-434.3649961 995.7539909 -440.11741186 989.14464237 -445.63671875 982.203125 C-446.54448996 981.08635842 -447.45340727 979.97052279 -448.36328125 978.85546875 C-469.38206535 953.00733104 -488.32696669 925.25733944 -504.63671875 896.203125 C-505.16281738 895.26903809 -505.68891602 894.33495117 -506.23095703 893.37255859 C-532.25728175 846.89976588 -551.51141361 797.79160882 -564.63671875 746.203125 C-564.90677734 745.15141113 -565.17683594 744.09969727 -565.45507812 743.01611328 C-571.9562265 717.36065554 -576.04636739 691.17813315 -578.94921875 664.890625 C-579.0305304 664.15507385 -579.11184204 663.41952271 -579.19561768 662.66168213 C-580.7969845 647.97580529 -581.78795289 633.34573187 -581.83984375 618.56640625 C-581.84686873 617.20611541 -581.85395552 615.84582489 -581.86109924 614.48553467 C-581.88049199 610.16222658 -581.8855337 605.8389722 -581.88671875 601.515625 C-581.88716061 600.77823467 -581.88760246 600.04084435 -581.88805771 599.28110886 C-581.89500564 577.16179572 -581.65617351 555.19421973 -578.88995361 533.21673584 C-578.62528989 531.11224778 -578.37071606 529.00667675 -578.11669922 526.90087891 C-567.66196303 441.41493893 -539.11753202 355.91195183 -460.93261719 237.84765625 C-459.56394719 236.11077586 -458.21287226 234.36111211 -456.86328125 232.609375 C-448.51061058 221.81607408 -439.70205346 211.40420779 -430.63671875 201.203125 C-429.99863281 200.48382813 -429.36054688 199.76453125 -428.703125 199.0234375 C-403.92860855 171.2941622 -403.92860855 171.2941622 -390.91796875 160.203125 C-388.44395944 158.03413053 -386.04771762 155.79469937 -383.64990234 153.54223633 C-377.18758465 147.47484765 -370.57823612 141.72243189 -363.63671875 136.203125 C-362.51995217 135.29535379 -361.40411654 134.38643648 -360.2890625 133.4765625 C-334.44092479 112.4577784 -306.69093319 93.51287706 -277.63671875 77.203125 C-276.70263184 76.67702637 -275.76854492 76.15092773 -274.80615234 75.60888672 C-228.33335963 49.582562 -179.22520257 30.32843014 -127.63671875 17.203125 C-126.58500488 16.93306641 -125.53329102 16.66300781 -124.44970703 16.38476562 C-98.79424929 9.88361725 -72.6117269 5.79347636 -46.32421875 2.890625 C-45.5886676 2.80931335 -44.85311646 2.72800171 -44.09527588 2.64422607 C-29.40939904 1.04285925 -14.77932562 0.05189086 0 0 Z " fill="#FE511D" transform="translate(581.63671875,-0.203125)"/>
<path d="M0 0 C-3.03994789 13.09002215 -6.16961762 26.12264623 -9.99462891 39.00854492 C-11.5593738 44.30398242 -12.85462925 49.59730777 -14 55 C-15.89611434 54.85786703 -17.79188394 54.71113093 -19.6875 54.5625 C-20.74324219 54.48128906 -21.79898438 54.40007812 -22.88671875 54.31640625 C-25.65435626 54.03512816 -28.27964153 53.56220742 -31 53 C-37.32573541 52.4814971 -41.82378949 53.15422111 -47 57 C-56.88022238 66.88022238 -60.04075857 79.8239362 -63 93 C-61.89205078 93.81791016 -61.89205078 93.81791016 -60.76171875 94.65234375 C-57.49277079 97.08224789 -54.24125137 99.53334454 -51 102 C-50.11441406 102.67289062 -49.22882812 103.34578125 -48.31640625 104.0390625 C-7.82889766 135.96072072 13.58588526 180.88327371 21.62109375 230.86328125 C24.69705622 257.79798322 21.10784124 285.30182631 13 311 C12.79068848 311.67450195 12.58137695 312.34900391 12.36572266 313.04394531 C-1.47231777 356.4507388 -29.57806273 396.99383016 -58 432 C-58.70898438 432.88429688 -59.41796875 433.76859375 -60.1484375 434.6796875 C-64.80732937 440.45017463 -69.64804998 445.99780581 -74.671875 451.453125 C-76.61800592 453.58211386 -78.50573432 455.74156653 -80.375 457.9375 C-84.84743359 463.09144728 -89.75223887 467.83000268 -94.60498047 472.62158203 C-97.96651415 475.94311146 -101.29333665 479.29738203 -104.6015625 482.671875 C-111.31661299 489.49437296 -117.98089985 496.09316985 -125.515625 502.01171875 C-127.99365074 503.9949186 -130.30276314 506.08751433 -132.625 508.25 C-139.02063693 514.06881525 -145.9401713 519.18964109 -152.84912109 524.37548828 C-154.82548033 525.86818912 -156.7845491 527.38021972 -158.73828125 528.90234375 C-205.25132359 564.89148545 -258.53845162 590.32116571 -314 609 C-315.04623535 609.35819824 -316.0924707 609.71639648 -317.17041016 610.08544922 C-358.0191976 624.03774286 -401.10328497 630.53719259 -444 634 C-445.04559082 634.08475586 -446.09118164 634.16951172 -447.16845703 634.25683594 C-453.1125706 634.70443808 -459.04041951 634.91378725 -465 635 C-466.21913086 635.02046387 -467.43826172 635.04092773 -468.69433594 635.06201172 C-504.98639352 635.6156422 -541.56696705 634.02638443 -577.34765625 627.62109375 C-581.1836302 626.96877305 -584.98661887 626.57418357 -588.859375 626.23828125 C-591.80758603 625.91010447 -594.63996401 625.28926543 -597.51953125 624.5859375 C-599.38100943 624.14621824 -601.25653257 623.76528034 -603.13671875 623.4140625 C-613.93566024 621.28186732 -622.02283508 616.61243795 -629 608 C-634.76416518 598.8854138 -636.37298525 588.91485615 -634.53515625 578.3203125 C-631.80105659 567.93396942 -625.4939817 560.35934436 -617 554 C-612.74857613 551.59983434 -608.34768403 549.63760501 -603.875 547.6875 C-602.62900592 547.12825169 -601.38390096 546.56701865 -600.13964844 546.00390625 C-597.62474583 544.86679744 -595.10714978 543.73607729 -592.58691406 542.61083984 C-555.53228746 525.97005395 -518.69037121 506.34060132 -487.9296875 479.52734375 C-485.23791713 477.20524318 -482.48334289 475.00686334 -479.6875 472.8125 C-469.14838123 464.21764033 -459.43412547 454.30571953 -451.05078125 443.6015625 C-449.65519822 441.83116575 -448.2124188 440.09719608 -446.73046875 438.3984375 C-413.25637657 400.00327522 -394.58568179 350.2700008 -379.10566711 302.46780396 C-377.8837747 298.69623064 -376.64613076 294.93077638 -375.38354492 291.17260742 C-374.97940872 289.96909637 -374.97940872 289.96909637 -374.56710815 288.74127197 C-374.0523533 287.21156275 -373.53589574 285.68242495 -373.0173645 284.1539917 C-371.13139319 278.54682318 -369.59856979 272.90294789 -368.12890625 267.171875 C-366.74595647 261.92108918 -365.10530999 256.74859458 -363.5 251.5625 C-361.059423 243.64991277 -358.83450027 235.74021389 -356.89453125 227.69140625 C-355.67878358 222.67445625 -354.33976828 217.69385247 -352.9921875 212.7109375 C-352.33209862 210.24210115 -351.69135394 207.76800941 -351.0703125 205.2890625 C-343.28905634 174.61419318 -328.39718923 147.38419112 -306.953125 124.140625 C-305.37097392 122.40658742 -303.89053119 120.65300618 -302.4375 118.8125 C-299.25581105 115.14132045 -295.70858647 112.12563141 -292 109 C-291.14664062 108.2471875 -290.29328125 107.494375 -289.4140625 106.71875 C-264.02352931 84.73680894 -233.6771419 71.61269919 -201 65 C-200.06470459 64.79987305 -199.12940918 64.59974609 -198.16577148 64.39355469 C-187.10227433 62.33125408 -175.89288246 62.78162915 -164.6875 62.875 C-162.5787803 62.88505156 -160.47005595 62.89417355 -158.36132812 62.90234375 C-153.2407689 62.92418092 -148.12043682 62.95859056 -143 63 C-142.7255455 62.4985849 -142.451091 61.9971698 -142.1683197 61.4805603 C-140.89548274 59.15968026 -139.61769105 56.84156241 -138.33984375 54.5234375 C-137.90845093 53.73509521 -137.47705811 52.94675293 -137.03259277 52.13452148 C-129.8552778 39.14001439 -121.48129158 27.51136703 -111 17 C-110.17371094 16.15050781 -109.34742188 15.30101562 -108.49609375 14.42578125 C-76.50323794 -16.68788158 -38.48780028 -16.48705771 0 0 Z " fill="#18181A" transform="translate(876,289)"/>
</svg>
