<svg width="24" height="24" viewBox="0 0 40 40" xmlns="http://www.w3.org/2000/svg">
<path d="M26.3263 9.5942C26.8715 9.2991 27.5579 9.1229 28.2635 9.3147C28.3962 9.3455 28.5136 9.382 28.6296 9.4246L29.1998 9.6333L29.0435 10.2205C28.9806 10.4552 28.9245 10.6634 28.8616 10.898L28.7102 11.4644L28.1292 11.3838C28.0865 11.3779 28.0481 11.3755 28.0035 11.3752C27.7877 11.3798 27.5979 11.4874 27.4103 11.8C27.2649 12.0422 27.1513 12.3662 27.0696 12.7351C28.7964 13.8601 29.9408 15.8086 29.9408 18.0256C29.9406 19.0506 29.6946 20.0199 29.2595 20.8772C27.5038 24.7694 20.8379 32.6479 9.0252 30.3889C8.4154 30.2721 8.0746 29.7761 8.0401 29.2793C8.0063 28.7915 8.2612 28.2647 8.8067 28.0317C11.9496 26.6905 13.6879 25.2734 14.8455 23.5517C16.0213 21.8032 16.6391 19.6896 17.4346 16.8184C17.9982 13.9104 20.5566 11.7147 23.6296 11.7146L23.8017 11.7158C24.0157 11.7216 24.2271 11.7392 24.4354 11.7659C24.5971 11.4354 24.7854 11.1109 25.0079 10.7954L25.0676 10.71C25.3708 10.2825 25.8126 9.8723 26.3263 9.5942Z" fill="currentColor"/>
</svg>
