<svg xmlns="http://www.w3.org/2000/svg" viewBox="0 0 24 24" fill="currentColor">
  <path d="M 21.78 0.31 L 21.68 0.31 L 21.57 0.31 L 21.47 0.31 L 21.36 0.31 L 21.27 0.33 L 21.18 0.34 L 21.08 0.35 L 20.99 0.36 L 20.90 0.38 L 20.82 0.41 L 20.73 0.43 L 20.66 0.46 L 20.58 0.48 L 20.50 0.52 L 20.43 0.55 L 20.36 0.58 L 20.29 0.62 L 20.21 0.65 L 20.15 0.69 L 20.08 0.73 L 20.00 0.76 L 19.94 0.80 L 19.88 0.85 L 19.82 0.89 L 19.76 0.94 L 19.70 0.98 L 19.64 1.03 L 19.58 1.08 L 19.53 1.13 L 19.46 1.17 L 19.41 1.23 L 19.36 1.28 L 19.30 1.33 L 19.25 1.39 L 19.20 1.45 L 19.15 1.50 L 19.10 1.55 L 19.05 1.61 L 19.01 1.67 L 18.95 1.73 L 18.91 1.79 L 18.87 1.85 L 18.81 1.91 L 18.78 1.98 L 18.73 2.04 L 18.69 2.10 L 18.65 2.17 L 18.60 2.23 L 18.57 2.30 L 18.53 2.37 L 18.48 2.43 L 18.45 2.50 L 18.41 2.57 L 18.38 2.65 L 18.34 2.71 L 18.31 2.79 L 18.27 2.85 L 18.23 2.92 L 18.18 2.98 L 18.12 3.02 L 18.02 3.01 L 17.92 3.01 L 17.81 3.01 L 17.71 3.01 L 17.60 3.01 L 17.50 3.01 L 17.39 3.01 L 17.28 3.01 L 17.18 3.01 L 17.07 3.01 L 16.97 3.01 L 16.86 3.01 L 16.76 3.01 L 16.66 3.02 L 16.58 3.04 L 16.48 3.05 L 16.39 3.06 L 16.29 3.07 L 16.20 3.09 L 16.11 3.10 L 16.02 3.12 L 15.95 3.15 L 15.86 3.17 L 15.77 3.19 L 15.69 3.21 L 15.62 3.24 L 15.53 3.26 L 15.44 3.27 L 15.36 3.31 L 15.29 3.34 L 15.21 3.37 L 15.13 3.40 L 15.05 3.42 L 14.98 3.45 L 14.91 3.49 L 14.83 3.52 L 14.75 3.54 L 14.68 3.58 L 14.62 3.62 L 14.55 3.66 L 14.47 3.69 L 14.41 3.73 L 14.34 3.76 L 14.27 3.80 L 14.20 3.84 L 14.14 3.88 L 14.08 3.93 L 14.01 3.96 L 13.94 4.00 L 13.87 4.04 L 13.81 4.08 L 13.75 4.13 L 13.69 4.18 L 13.63 4.23 L 13.57 4.27 L 13.51 4.32 L 13.45 4.37 L 13.39 4.41 L 13.33 4.46 L 13.28 4.51 L 13.22 4.56 L 13.15 4.60 L 13.11 4.66 L 13.05 4.71 L 13.00 4.76 L 12.94 4.81 L 12.89 4.87 L 12.83 4.92 L 12.79 4.98 L 12.74 5.04 L 12.68 5.08 L 12.63 5.14 L 12.57 5.19 L 12.53 5.25 L 12.48 5.31 L 12.44 5.37 L 12.38 5.42 L 12.34 5.49 L 12.30 5.55 L 12.24 5.60 L 12.20 5.67 L 12.15 5.72 L 12.11 5.79 L 12.07 5.85 L 12.03 5.92 L 11.99 5.99 L 11.95 6.06 L 11.91 6.12 L 11.86 6.18 L 11.83 6.25 L 11.79 6.32 L 11.76 6.40 L 11.71 6.46 L 11.68 6.54 L 11.65 6.61 L 11.60 6.67 L 11.57 6.74 L 11.54 6.82 L 11.51 6.89 L 11.47 6.96 L 11.45 7.04 L 11.42 7.12 L 11.39 7.20 L 11.35 7.27 L 11.31 7.34 L 11.29 7.42 L 11.26 7.50 L 11.24 7.59 L 11.21 7.67 L 11.20 7.75 L 11.18 7.84 L 11.14 7.92 L 11.13 8.01 L 11.10 8.09 L 11.08 8.17 L 11.06 8.26 L 11.03 8.34 L 11.01 8.42 L 11.01 8.53 L 10.98 8.61 L 10.96 8.69 L 10.93 8.77 L 10.91 8.86 L 10.89 8.94 L 10.87 9.03 L 10.84 9.11 L 10.81 9.19 L 10.80 9.28 L 10.79 9.38 L 10.76 9.46 L 10.73 9.54 L 10.72 9.63 L 10.69 9.71 L 10.67 9.79 L 10.64 9.87 L 10.63 9.96 L 10.60 10.04 L 10.58 10.12 L 10.55 10.21 L 10.52 10.29 L 10.51 10.38 L 10.48 10.46 L 10.46 10.54 L 10.43 10.62 L 10.40 10.70 L 10.39 10.79 L 10.38 10.89 L 10.34 10.96 L 10.32 11.04 L 10.28 11.12 L 10.26 11.20 L 10.23 11.28 L 10.22 11.37 L 10.21 11.46 L 10.18 11.54 L 10.15 11.62 L 10.11 11.69 L 10.07 11.76 L 10.07 11.86 L 10.04 11.94 L 10.01 12.01 L 9.98 12.09 L 9.95 12.17 L 9.93 12.25 L 9.90 12.33 L 9.88 12.42 L 9.85 12.50 L 9.82 12.58 L 9.79 12.65 L 9.77 12.74 L 9.74 12.82 L 9.71 12.89 L 9.68 12.96 L 9.65 13.04 L 9.63 13.12 L 9.59 13.19 L 9.56 13.27 L 9.53 13.35 L 9.51 13.43 L 9.47 13.50 L 9.44 13.58 L 9.41 13.66 L 9.37 13.73 L 9.35 13.81 L 9.32 13.88 L 9.30 13.97 L 9.26 14.04 L 9.22 14.10 L 9.18 14.18 L 9.15 14.25 L 9.12 14.32 L 9.08 14.39 L 9.04 14.46 L 9.02 14.54 L 8.98 14.61 L 8.95 14.69 L 8.91 14.76 L 8.87 14.83 L 8.83 14.89 L 8.79 14.96 L 8.77 15.04 L 8.73 15.11 L 8.68 15.17 L 8.64 15.23 L 8.60 15.29 L 8.56 15.36 L 8.52 15.44 L 8.49 15.51 L 8.44 15.57 L 8.40 15.63 L 8.36 15.70 L 8.32 15.76 L 8.28 15.83 L 8.24 15.90 L 8.19 15.96 L 8.15 16.02 L 8.10 16.08 L 8.06 16.15 L 8.02 16.21 L 7.97 16.27 L 7.93 16.33 L 7.89 16.40 L 7.84 16.46 L 7.80 16.52 L 7.75 16.58 L 7.70 16.63 L 7.65 16.69 L 7.61 16.75 L 7.55 16.80 L 7.50 16.86 L 7.45 16.92 L 7.41 16.98 L 7.36 17.04 L 7.30 17.09 L 7.26 17.15 L 7.21 17.21 L 7.15 17.26 L 7.10 17.31 L 7.04 17.36 L 6.99 17.42 L 6.93 17.46 L 6.88 17.52 L 6.83 17.57 L 6.78 17.62 L 6.72 17.67 L 6.66 17.73 L 6.60 17.77 L 6.54 17.82 L 6.50 17.88 L 6.44 17.93 L 6.39 17.98 L 6.34 18.04 L 6.28 18.09 L 6.21 18.13 L 6.16 18.18 L 6.10 18.22 L 6.03 18.26 L 5.97 18.31 L 5.91 18.35 L 5.85 18.40 L 5.80 18.46 L 5.74 18.50 L 5.67 18.54 L 5.61 18.59 L 5.56 18.64 L 5.50 18.68 L 5.43 18.72 L 5.37 18.77 L 5.30 18.81 L 5.24 18.86 L 5.18 18.90 L 5.12 18.94 L 5.05 18.98 L 4.98 19.02 L 4.91 19.06 L 4.86 19.10 L 4.80 19.15 L 4.73 19.19 L 4.66 19.23 L 4.60 19.27 L 4.54 19.32 L 4.47 19.36 L 4.41 19.40 L 4.34 19.44 L 4.27 19.48 L 4.22 19.53 L 4.14 19.56 L 4.08 19.60 L 4.01 19.64 L 3.93 19.67 L 3.87 19.71 L 3.80 19.75 L 3.73 19.78 L 3.65 19.81 L 3.58 19.85 L 3.51 19.88 L 3.46 19.94 L 3.39 19.98 L 3.31 20.00 L 3.24 20.04 L 3.17 20.07 L 3.09 20.10 L 3.02 20.14 L 2.94 20.16 L 2.88 20.20 L 2.80 20.23 L 2.73 20.27 L 2.67 20.31 L 2.60 20.35 L 2.52 20.38 L 2.45 20.41 L 2.38 20.45 L 2.32 20.49 L 2.24 20.52 L 2.16 20.54 L 2.09 20.58 L 2.03 20.62 L 1.96 20.67 L 1.89 20.71 L 1.84 20.76 L 1.79 20.81 L 1.74 20.87 L 1.70 20.93 L 1.64 20.99 L 1.60 21.05 L 1.55 21.11 L 1.52 21.19 L 1.48 21.25 L 1.46 21.33 L 1.43 21.42 L 1.42 21.51 L 1.39 21.59 L 1.38 21.68 L 1.38 21.79 L 1.38 21.90 L 1.41 21.98 L 1.43 22.06 L 1.45 22.15 L 1.48 22.23 L 1.50 22.31 L 1.52 22.39 L 1.56 22.46 L 1.62 22.51 L 1.65 22.59 L 1.70 22.64 L 1.75 22.69 L 1.81 22.75 L 1.86 22.80 L 1.93 22.83 L 1.99 22.88 L 2.06 22.92 L 2.13 22.96 L 2.21 22.98 L 2.28 23.02 L 2.37 23.04 L 2.45 23.06 L 2.55 23.07 L 2.63 23.10 L 2.72 23.11 L 2.81 23.12 L 2.90 23.14 L 2.98 23.16 L 3.09 23.16 L 3.17 23.18 L 3.27 23.19 L 3.36 23.20 L 3.46 23.22 L 3.55 23.23 L 3.63 23.25 L 3.73 23.26 L 3.83 23.27 L 3.92 23.28 L 4.01 23.30 L 4.10 23.31 L 4.20 23.32 L 4.29 23.34 L 4.38 23.35 L 4.47 23.37 L 4.55 23.39 L 4.66 23.39 L 4.76 23.39 L 4.87 23.39 L 4.97 23.39 L 5.05 23.42 L 5.16 23.42 L 5.25 23.43 L 5.36 23.43 L 5.45 23.44 L 5.54 23.46 L 5.65 23.46 L 5.75 23.46 L 5.86 23.46 L 5.96 23.46 L 6.07 23.46 L 6.17 23.46 L 6.28 23.46 L 6.39 23.46 L 6.49 23.46 L 6.60 23.46 L 6.70 23.46 L 6.81 23.46 L 6.91 23.46 L 7.02 23.46 L 7.12 23.46 L 7.23 23.46 L 7.34 23.46 L 7.44 23.46 L 7.55 23.46 L 7.65 23.46 L 7.74 23.44 L 7.84 23.43 L 7.93 23.42 L 8.04 23.42 L 8.14 23.42 L 8.23 23.40 L 8.33 23.39 L 8.43 23.39 L 8.54 23.39 L 8.63 23.38 L 8.73 23.37 L 8.81 23.35 L 8.91 23.34 L 8.99 23.32 L 9.09 23.31 L 9.18 23.30 L 9.28 23.28 L 9.37 23.27 L 9.45 23.24 L 9.54 23.23 L 9.63 23.22 L 9.72 23.20 L 9.82 23.19 L 9.91 23.18 L 10.00 23.16 L 10.08 23.14 L 10.17 23.12 L 10.26 23.10 L 10.34 23.08 L 10.44 23.07 L 10.52 23.04 L 10.59 23.02 L 10.69 23.00 L 10.78 22.99 L 10.87 22.98 L 10.95 22.95 L 11.04 22.94 L 11.12 22.91 L 11.21 22.89 L 11.29 22.87 L 11.37 22.84 L 11.45 22.81 L 11.53 22.79 L 11.61 22.76 L 11.69 22.73 L 11.79 22.73 L 11.86 22.69 L 11.94 22.67 L 12.02 22.64 L 12.10 22.61 L 12.18 22.59 L 12.26 22.56 L 12.34 22.53 L 12.42 22.51 L 12.49 22.47 L 12.56 22.44 L 12.64 22.41 L 12.73 22.40 L 12.80 22.36 L 12.88 22.33 L 12.96 22.31 L 13.04 22.28 L 13.11 22.25 L 13.18 22.21 L 13.26 22.19 L 13.34 22.16 L 13.42 22.13 L 13.50 22.10 L 13.58 22.08 L 13.65 22.04 L 13.73 22.02 L 13.79 21.98 L 13.87 21.94 L 13.94 21.91 L 14.00 21.86 L 14.08 21.84 L 14.15 21.80 L 14.22 21.77 L 14.30 21.74 L 14.37 21.70 L 14.44 21.67 L 14.51 21.64 L 14.59 21.60 L 14.66 21.57 L 14.72 21.53 L 14.79 21.49 L 14.86 21.46 L 14.93 21.42 L 15.00 21.38 L 15.07 21.35 L 15.14 21.31 L 15.21 21.27 L 15.28 21.23 L 15.34 21.19 L 15.41 21.15 L 15.48 21.12 L 15.56 21.09 L 15.62 21.05 L 15.69 21.01 L 15.74 20.95 L 15.81 20.92 L 15.88 20.88 L 15.95 20.84 L 16.00 20.79 L 16.07 20.75 L 16.14 20.71 L 16.21 20.68 L 16.26 20.62 L 16.32 20.58 L 16.39 20.54 L 16.46 20.50 L 16.53 20.47 L 16.59 20.42 L 16.65 20.38 L 16.72 20.34 L 16.79 20.30 L 16.84 20.25 L 16.90 20.20 L 16.97 20.16 L 17.03 20.12 L 17.09 20.08 L 17.16 20.04 L 17.21 19.98 L 17.27 19.94 L 17.33 19.89 L 17.40 19.85 L 17.46 19.80 L 17.52 19.75 L 17.57 19.70 L 17.62 19.65 L 17.69 19.61 L 17.75 19.56 L 17.81 19.52 L 17.87 19.47 L 17.93 19.43 L 17.98 19.37 L 18.04 19.33 L 18.10 19.28 L 18.16 19.23 L 18.22 19.19 L 18.27 19.13 L 18.33 19.08 L 18.39 19.04 L 18.45 18.99 L 18.50 18.94 L 18.56 18.88 L 18.61 18.83 L 18.68 18.79 L 18.72 18.73 L 18.78 18.68 L 18.83 18.63 L 18.89 18.58 L 18.95 18.53 L 19.01 18.48 L 19.05 18.42 L 19.11 18.37 L 19.16 18.31 L 19.22 18.27 L 19.26 18.21 L 19.32 18.15 L 19.38 18.11 L 19.44 18.07 L 19.48 18.00 L 19.54 17.95 L 19.59 17.89 L 19.64 17.84 L 19.69 17.78 L 19.74 17.73 L 19.80 17.68 L 19.85 17.62 L 19.90 17.57 L 19.95 17.51 L 20.00 17.46 L 20.05 17.40 L 20.10 17.34 L 20.15 17.29 L 20.20 17.23 L 20.25 17.18 L 20.30 17.12 L 20.35 17.06 L 20.40 17.01 L 20.45 16.95 L 20.50 16.89 L 20.54 16.83 L 20.60 16.77 L 20.65 16.72 L 20.69 16.66 L 20.74 16.60 L 20.79 16.54 L 20.84 16.49 L 20.89 16.43 L 20.93 16.37 L 20.99 16.31 L 21.03 16.25 L 21.08 16.19 L 21.12 16.12 L 21.16 16.06 L 21.21 16.00 L 21.26 15.95 L 21.31 15.89 L 21.35 15.83 L 21.39 15.76 L 21.43 15.70 L 21.47 15.62 L 21.51 15.56 L 21.56 15.50 L 21.61 15.45 L 21.65 15.38 L 21.70 15.33 L 21.75 15.27 L 21.79 15.20 L 21.83 15.13 L 21.88 15.07 L 21.92 15.01 L 21.96 14.95 L 22.00 14.88 L 22.04 14.81 L 22.08 14.75 L 22.11 14.67 L 22.16 14.61 L 22.19 14.54 L 22.23 14.46 L 22.26 14.40 L 22.30 14.33 L 22.35 14.27 L 22.39 14.20 L 22.43 14.14 L 22.47 14.07 L 22.51 14.00 L 22.54 13.93 L 22.58 13.85 L 22.61 13.79 L 22.67 13.73 L 22.71 13.67 L 22.74 13.59 L 22.78 13.53 L 22.81 13.45 L 22.83 13.37 L 22.87 13.30 L 22.91 13.23 L 22.94 13.15 L 22.97 13.08 L 23.00 13.00 L 23.04 12.94 L 23.08 12.86 L 23.11 12.79 L 23.14 12.72 L 23.18 12.64 L 23.20 12.56 L 23.23 12.49 L 23.27 12.42 L 23.29 12.33 L 23.32 12.25 L 23.35 12.18 L 23.39 12.11 L 23.41 12.03 L 23.44 11.95 L 23.47 11.87 L 23.49 11.79 L 23.52 11.71 L 23.53 11.61 L 23.53 11.50 L 23.53 11.40 L 23.53 11.29 L 23.53 11.18 L 23.53 11.08 L 23.53 10.97 L 23.53 10.86 L 23.53 10.75 L 23.53 10.65 L 23.53 10.54 L 23.53 10.43 L 23.53 10.33 L 23.54 10.25 L 23.54 10.15 L 23.54 10.04 L 23.54 9.94 L 23.54 9.83 L 23.54 9.72 L 23.54 9.62 L 23.54 9.51 L 23.54 9.40 L 23.54 9.29 L 23.54 9.19 L 23.54 9.08 L 23.54 8.97 L 23.54 8.87 L 23.54 8.76 L 23.54 8.65 L 23.54 8.54 L 23.54 8.44 L 23.54 8.33 L 23.54 8.22 L 23.54 8.12 L 23.54 8.01 L 23.54 7.91 L 23.52 7.82 L 23.51 7.73 L 23.48 7.65 L 23.46 7.56 L 23.43 7.49 L 23.40 7.41 L 23.37 7.33 L 23.34 7.25 L 23.31 7.18 L 23.28 7.10 L 23.25 7.02 L 23.21 6.95 L 23.18 6.88 L 23.14 6.81 L 23.11 6.74 L 23.07 6.67 L 23.04 6.60 L 23.00 6.52 L 22.96 6.46 L 22.93 6.38 L 22.89 6.31 L 22.85 6.25 L 22.81 6.19 L 22.77 6.11 L 22.73 6.05 L 22.70 5.97 L 22.66 5.91 L 22.61 5.85 L 22.57 5.79 L 22.52 5.73 L 22.48 5.67 L 22.42 5.61 L 22.38 5.55 L 22.34 5.48 L 22.29 5.42 L 22.25 5.36 L 22.20 5.30 L 22.15 5.24 L 22.11 5.18 L 22.05 5.13 L 22.01 5.07 L 21.95 5.02 L 21.90 4.96 L 21.84 4.92 L 21.79 4.86 L 21.74 4.81 L 21.69 4.75 L 21.64 4.69 L 21.59 4.64 L 21.52 4.60 L 21.46 4.55 L 21.41 4.49 L 21.36 4.44 L 21.30 4.40 L 21.24 4.35 L 21.18 4.31 L 21.11 4.27 L 21.04 4.23 L 20.98 4.19 L 20.92 4.14 L 20.89 4.06 L 20.89 3.95 L 20.91 3.86 L 20.92 3.76 L 20.95 3.69 L 20.99 3.62 L 21.01 3.54 L 21.02 3.44 L 21.06 3.37 L 21.09 3.29 L 21.12 3.21 L 21.15 3.14 L 21.19 3.07 L 21.24 3.01 L 21.28 2.95 L 21.33 2.89 L 21.37 2.83 L 21.42 2.77 L 21.47 2.72 L 21.54 2.68 L 21.61 2.65 L 21.69 2.62 L 21.78 2.60 L 21.88 2.59 L 21.98 2.59 L 22.07 2.60 L 22.17 2.62 L 22.26 2.63 L 22.36 2.64 L 22.44 2.66 L 22.52 2.63 L 22.56 2.56 L 22.59 2.48 L 22.61 2.40 L 22.63 2.32 L 22.65 2.22 L 22.67 2.14 L 22.69 2.05 L 22.71 1.97 L 22.74 1.89 L 22.77 1.81 L 22.79 1.72 L 22.81 1.63 L 22.82 1.54 L 22.85 1.46 L 22.87 1.38 L 22.89 1.29 L 22.91 1.21 L 22.93 1.12 L 22.95 1.03 L 22.98 0.95 L 22.99 0.86 L 22.96 0.78 L 22.92 0.72 L 22.85 0.68 L 22.79 0.64 L 22.71 0.61 L 22.63 0.58 L 22.56 0.55 L 22.48 0.52 L 22.39 0.50 L 22.31 0.48 L 22.23 0.45 L 22.15 0.42 L 22.07 0.40 L 21.99 0.38 L 21.91 0.35 L 21.82 0.33 L 21.78 0.31 Z"/>
</svg>