<svg xmlns="http://www.w3.org/2000/svg" viewBox="0 0 120 25">

<g transform="translate(0.000000,25.000000) scale(0.100000,-0.100000)"
fill="currentColor" stroke="none">
<path d="M0 213 l1 -38 14 26 c8 15 23 29 35 32 19 5 20 1 20 -88 0 -79 -3
-96 -17 -104 -14 -8 -4 -10 42 -11 57 0 58 1 37 16 -20 14 -22 24 -22 99 0 46
4 86 8 89 13 8 52 -23 52 -40 0 -8 5 -14 10 -14 6 0 10 16 10 35 l0 35 -95 0
-95 0 0 -37z"/>
<path d="M296 217 c-12 -9 -17 -23 -14 -42 2 -23 12 -34 41 -48 20 -9 37 -22
37 -27 0 -17 -29 -23 -45 -10 -8 6 -21 10 -30 8 -14 -3 -14 -5 0 -25 11 -16
26 -23 49 -23 40 0 59 19 54 57 -2 21 -12 32 -40 46 -21 9 -38 22 -38 27 0 16
30 24 43 11 13 -13 37 -15 37 -2 0 34 -61 52 -94 28z"/>
<path d="M683 200 c-3 -11 -12 -20 -19 -20 -18 0 -18 -26 0 -33 9 -4 16 -23
18 -49 3 -39 6 -43 31 -46 19 -2 27 1 27 12 0 9 -7 16 -15 16 -10 0 -15 11
-15 35 0 24 5 35 15 35 8 0 15 7 15 15 0 8 -7 15 -15 15 -8 0 -15 9 -15 20 0
11 -5 20 -11 20 -6 0 -13 -9 -16 -20z"/>
<path d="M412 168 c45 -124 44 -119 25 -133 -22 -16 -22 -25 2 -25 26 0 35 14
65 98 24 67 24 72 7 72 -12 0 -22 -13 -31 -42 l-13 -43 -14 43 c-9 25 -21 42
-30 42 -8 0 -13 -6 -11 -12z"/>
<path d="M552 168 c-22 -22 -14 -49 18 -61 17 -6 30 -17 30 -24 0 -16 -5 -16
-30 -1 -24 15 -37 4 -20 -17 8 -10 25 -15 44 -13 25 2 32 8 34 30 3 21 -3 30
-28 43 -17 9 -28 20 -25 25 4 6 14 5 25 -2 24 -15 37 -4 20 17 -15 18 -51 20
-68 3z"/>
<path d="M776 164 c-21 -20 -21 -78 0 -98 25 -26 84 -18 84 11 0 10 -6 13 -17
8 -20 -7 -23 -8 -40 -6 -7 0 -13 8 -13 16 0 11 11 15 40 15 44 0 50 11 24 48
-18 26 -56 29 -78 6z m59 -24 c4 -6 -5 -10 -20 -10 -15 0 -24 4 -20 10 3 6 12
10 20 10 8 0 17 -4 20 -10z"/>
<path d="M900 114 c0 -49 3 -64 14 -64 11 0 16 14 18 47 2 36 7 49 21 51 14 3
17 -4 17 -47 0 -38 4 -51 14 -51 11 0 16 14 18 47 2 36 7 49 21 51 14 3 17 -4
17 -47 0 -44 3 -51 20 -51 17 0 20 7 20 46 0 75 -7 81 -99 81 l-81 1 0 -64z"/>
<path d="M1122 171 c-22 -14 -10 -55 21 -69 20 -10 26 -17 18 -25 -7 -7 -15
-6 -26 3 -18 15 -30 7 -22 -15 8 -19 60 -20 77 0 17 20 3 54 -26 61 -25 6 -31
18 -15 29 5 3 12 1 16 -5 3 -5 13 -10 21 -10 12 0 12 4 4 20 -11 21 -45 26
-68 11z"/>
<path d="M0 125 c0 -18 5 -25 20 -25 15 0 20 7 20 25 0 18 -5 25 -20 25 -15 0
-20 -7 -20 -25z"/>
<path d="M144 135 c-4 -9 -2 -21 4 -27 15 -15 44 -1 40 19 -4 23 -36 29 -44 8z"/>
</g>
</svg>
