<svg xmlns="http://www.w3.org/2000/svg" viewBox="0 0 180 36" fill="currentColor">
  <!-- Telekom T mark: three dots -->
  <rect x="1.5" y="0" width="4.5" height="4.5" rx="0.5"/>
  <rect x="9" y="0" width="4.5" height="4.5" rx="0.5"/>
  <rect x="16.5" y="0" width="4.5" height="4.5" rx="0.5"/>
  <!-- Telekom T mark: crossbar and stem -->
  <rect x="0" y="7.5" width="22.5" height="6"/>
  <rect x="8.25" y="13.5" width="6" height="22.5"/>
  <!-- Systems text -->
  <path d="M32.5 28.5q-2.1 0-3.6-.7-1.5-.7-2.3-1.9l2.1-2.1q.6.9 1.6 1.4 1 .5 2.2.5 1.1 0 1.7-.4.6-.4.6-1.1 0-.6-.4-1-.4-.4-1.4-.6l-2-.4q-1.8-.4-2.8-1.4-1-1-1-2.6 0-1.1.5-2 .5-.9 1.5-1.5 1-.5 2.4-.5 1.9 0 3.2.7 1.3.6 2 1.7l-2 2q-.5-.8-1.3-1.2-.8-.4-1.9-.4-1 0-1.5.4-.5.4-.5 1 0 .6.4.9.4.3 1.3.6l2 .4q1.9.4 2.9 1.4 1 1 1 2.7 0 1.1-.5 2.1-.6.9-1.6 1.5-1 .5-2.5.5z"/>
  <path d="M41.5 30.5l-4.2-6.5h3.2l3 4.8 3-4.8h3l-5.8 9.2q-.5.8-1.2 1.2-.7.4-1.6.4h-2v-2.6h1.3q.6 0 .9-.2.3-.2.5-.6l-.1.1z"/>
  <path d="M49.5 28.3q-1-.7-1.5-1.8-.5-1.1-.5-2.5 0-1.4.5-2.5.5-1.1 1.5-1.8 1-.6 2.3-.6 1 0 1.7.4.7.4 1.2 1v-1.2h2.8v9.4h-2.8v-1.2q-.5.6-1.2 1-.7.4-1.7.4-1.3 0-2.3-.6zm4.5-1.8q.6-.7.6-1.7v-.8q0-1-.6-1.7-.6-.6-1.5-.6-.9 0-1.5.6-.6.7-.6 1.7v.8q0 1 .6 1.7.6.6 1.5.6.9 0 1.5-.6z"/>
  <path d="M62 28.5q-1.1 0-2-.4-.8-.4-1.3-1.2-.5-.7-.5-1.7v-5.9h-1.5v-2.5h1.5v-3h2.8v3h2.5v2.5h-2.5v5.3q0 .5.3.8.3.3.8.3h1.3v2.6h-1.5z"/>
  <path d="M68.3 28.5q-1.3 0-2.3-.6-1-.7-1.5-1.8-.5-1.1-.5-2.5v-.4q0-1.4.5-2.5.5-1.1 1.5-1.8 1-.6 2.3-.6 1.3 0 2.2.6 1 .6 1.5 1.7.5 1.1.5 2.4v1.2h-6q.1.9.7 1.5.6.5 1.5.5.7 0 1.2-.3.5-.3.8-.7l1.8 1.5q-.6.9-1.6 1.4-1 .5-2.3.5zm0-8q-.8 0-1.3.5-.5.5-.6 1.3h3.8q-.1-.8-.6-1.3-.5-.5-1.3-.5z"/>
  <path d="M76.8 28.5q-1 0-1.9-.3-.9-.3-1.5-.9l1.2-2q.4.4 1 .7.6.2 1.2.2 1.1 0 1.1-.7 0-.3-.3-.5-.3-.2-.9-.3l-1-.2q-1.2-.3-1.9-1-.7-.7-.7-1.8 0-.8.4-1.4.4-.6 1.1-1 .8-.4 1.8-.4.9 0 1.7.3.8.3 1.3.8l-1.2 2q-.7-.7-1.8-.7-.5 0-.7.2-.3.2-.3.5 0 .3.3.5.3.2.8.3l1 .2q1.3.3 1.9 1 .7.7.7 1.7 0 .8-.4 1.5-.4.6-1.2 1-.8.4-1.8.4z"/>
  <path d="M82.5 28.5q-1 0-1.9-.3-.9-.3-1.5-.9l1.2-2q.4.4 1 .7.6.2 1.2.2.5 0 .8-.2.2-.2.2-.5 0-.3-.3-.5-.3-.2-.9-.3l-1-.2q-1.2-.3-1.9-1-.7-.7-.7-1.8 0-.8.4-1.4.4-.6 1.2-1 .7-.4 1.7-.4.9 0 1.7.3.8.3 1.3.8l-1.2 2q-.7-.7-1.8-.7-.5 0-.7.2-.3.2-.3.5 0 .3.3.5.3.2.8.3l1 .2q1.3.3 2 1 .6.7.6 1.7 0 .8-.4 1.5-.4.6-1.2 1-.7.4-1.7.4z"/>
</svg>
