<?xml version="1.0" encoding="UTF-8"?>
<svg version="1.1" xmlns="http://www.w3.org/2000/svg" width="31" height="30">
<path d="M0 0 C10.23 0 20.46 0 31 0 C31 9.9 31 19.8 31 30 C20.77 30 10.54 30 0 30 C0 20.1 0 10.2 0 0 Z " fill="#FCFEFF" transform="translate(0,0)"/>
<path d="M0 0 C3.0916909 2.52956528 3.90931332 5.22454612 5 9 C5.66 9 6.32 9 7 9 C7.99 12.3 8.98 15.6 10 19 C2.74 19 -4.52 19 -12 19 C-11.34 16.03 -10.68 13.06 -10 10 C-9.01 10.33 -8.02 10.66 -7 11 C-6.814375 9.5459375 -6.814375 9.5459375 -6.625 8.0625 C-6.41875 7.051875 -6.2125 6.04125 -6 5 C-5.34 4.67 -4.68 4.34 -4 4 C-4 4.99 -4 5.98 -4 7 C-3.34 7 -2.68 7 -2 7 C-1.34 4.69 -0.68 2.38 0 0 Z " fill="#0DD2FF" transform="translate(18,4)"/>
<path d="M0 0 C3.0916909 2.52956528 3.90931332 5.22454612 5 9 C5.66 9 6.32 9 7 9 C7.99 12.3 8.98 15.6 10 19 C7.03 19 4.06 19 1 19 C-1.16208276 12.92906706 -2.58389205 8.3355682 -1 2 C-0.67 1.34 -0.34 0.68 0 0 Z " fill="#0B71FF" transform="translate(18,4)"/>
<path d="M0 0 C0.33 0 0.66 0 1 0 C0.88529863 1.75070517 0.75780972 3.50057536 0.625 5.25 C0.55539063 6.22453125 0.48578125 7.1990625 0.4140625 8.203125 C0.01534751 10.89633189 -0.63507063 12.66963279 -2 15 C-3.65 15 -5.3 15 -7 15 C-6.34 12.03 -5.68 9.06 -5 6 C-4.01 6.33 -3.02 6.66 -2 7 C-1.855625 6.030625 -1.71125 5.06125 -1.5625 4.0625 C-1 1 -1 1 0 0 Z " fill="#1477FF" transform="translate(13,8)"/>
<path d="M0 0 C0.99 0.66 1.98 1.32 3 2 C2.34 4.31 1.68 6.62 1 9 C0.01 9 -0.98 9 -2 9 C-1.34 6.03 -0.68 3.06 0 0 Z " fill="#28D3FF" transform="translate(8,14)"/>
<path d="M0 0 C2.95183101 2.95183101 3.08663988 5.95511947 4 10 C3.01 10 2.02 10 1 10 C0.63720544 8.71073008 0.28503302 7.41846728 -0.0625 6.125 C-0.35833984 5.04605469 -0.35833984 5.04605469 -0.66015625 3.9453125 C-1 2 -1 2 0 0 Z " fill="#18D8FF" transform="translate(24,13)"/>
</svg>
