<svg width="88" height="102" viewBox="0 0 88.3 102.1" fill="none" xmlns="http://www.w3.org/2000/svg">
<path d="M88.2308 76.4992L44.1491 102.038L0 76.5381L0.0673933 25.577L44.1491 0.0380859L88.2982 25.5381L88.2308 76.4992Z" fill="black" stroke="white" stroke-width="2"/>
<path d="M57.1344 49.8695L62.7358 46.6302L62.7474 73.2539C62.7478 74.0738 62.7109 74.9153 62.7113 75.7351C62.7124 77.6769 62.8253 79.2086 64.8791 78.0209C66.5968 77.0276 67.0071 75.8407 67.1183 74.2656L67.1048 44.1035L72.7062 40.8642L72.7197 71.0263C72.7952 72.4503 73.2065 73.2052 74.8496 72.255C77.0154 71.0025 77.1266 69.4274 77.1256 67.3993C77.1196 56.3528 77.0812 49.3841 77.0753 38.3376L82.674 35.1L82.6902 65.2604C82.693 70.5248 79.3714 76.1146 74.853 78.7276C72.9113 79.8505 71.2304 80.1319 69.9228 79.6795C68.5791 81.6652 66.8617 83.349 64.8826 84.4935C60.4016 87.0849 57.1507 85.2096 57.1479 80.0316L57.1344 49.8695Z" fill="white"/>
<path fill-rule="evenodd" clip-rule="evenodd" d="M16.1006 21.9945L44.0926 5.82666L63.1929 16.8588C69.8266 20.6903 69.7815 26.8796 63.1553 30.7067L59.1389 33.0266C52.5089 36.856 43.7007 37.936 35.2009 33.0266L16.1006 21.9945ZM57.7982 27.1356C61.2342 25.151 61.2599 21.9307 57.8358 19.953L44.4679 12.2318L27.1526 22.233L40.1891 29.7627C43.6131 31.7404 50.4841 31.2743 52.956 29.9324L57.7982 27.1356Z" fill="white"/>
</svg>
