<svg viewBox="0 0 35 22" fill="currentColor" xmlns="http://www.w3.org/2000/svg">
  <path d="M15.0547 21.2619C15.4071 21.2619 15.6926 20.9763 15.6926 20.624V5.66369C15.6926 4.90732 15.559 4.21475 15.2932 3.58748C15.0274 2.96021 14.6568 2.42711 14.1829 1.98817C13.7106 1.55075 13.1532 1.21206 12.5122 0.973605C11.8713 0.732115 11.1772 0.613647 10.4269 0.613647C9.40172 0.613647 8.47069 0.893109 7.63231 1.45051C6.79392 2.00792 6.19703 2.79466 5.84315 3.81226L0.0488879 20.1698C-0.139445 20.7029 0.25089 21.2619 0.809812 21.2619H3.13663C3.4814 21.2619 3.7882 21.0416 3.90059 20.7121L9.09644 5.54371C9.2544 5.12603 9.41843 4.80253 9.5855 4.57167C9.75257 4.34233 10.0047 4.22842 10.3388 4.22842C11.364 4.22842 11.8774 4.82531 11.8774 6.02061V20.624C11.8774 20.9763 12.1629 21.2619 12.5153 21.2619H15.0578H15.0547Z" fill="currentColor"/>
  <path d="M30.0503 9.98096C30.2014 9.5694 30.8386 9.59865 30.9204 10.0688L30.9312 10.1265C31.2237 11.8083 32.5413 13.1259 34.2231 13.4185L34.2817 13.4292H34.2808C34.7825 13.5163 34.7825 14.2367 34.2808 14.3237L34.2798 14.3228L34.2231 14.3335C32.5413 14.626 31.2237 15.9437 30.9312 17.6255V17.6265L30.9204 17.6841C30.8381 18.1537 30.2012 18.1826 30.0503 17.771L30.0425 17.7788L30.0249 17.6851L30.0142 17.6274C29.9635 17.3347 29.8861 16.937 29.6372 16.5347C29.3887 16.1332 28.9671 15.7228 28.2222 15.4106H28.2212C27.3804 15.0577 26.052 14.8109 24.3042 14.6528C22.5574 14.4949 20.3961 14.4263 17.8931 14.4263H7.43506V14.4253C7.17527 14.3802 7.05139 14.1456 7.05127 13.9233C7.05127 13.7009 7.17515 13.4653 7.43506 13.4194C7.45485 13.416 7.50844 13.4139 7.58447 13.4116C7.66285 13.4093 7.77088 13.4068 7.90381 13.4048C8.16965 13.4007 8.53717 13.398 8.9751 13.395C9.85157 13.3891 11.0111 13.3846 12.2026 13.3823C13.5824 13.3793 15.0054 13.3788 16.0835 13.3784C16.6223 13.3782 17.075 13.3774 17.3931 13.3774C17.5519 13.3775 17.6776 13.3784 17.7632 13.3784H17.895C20.6955 13.3784 22.9832 13.2827 24.7671 13.0835C26.5523 12.8841 27.8277 12.5812 28.6079 12.1675L28.8013 12.0552C29.7202 11.4744 29.9329 10.6046 30.0161 10.1265L30.0269 10.0688L30.0503 9.98096Z" fill="currentColor" stroke="currentColor" stroke-width="0.1"/>
</svg>
